%TF.GenerationSoftware,KiCad,Pcbnew,(5.1.6)-1*%
%TF.CreationDate,2020-09-08T16:49:50+09:00*%
%TF.ProjectId,td4-shield,7464342d-7368-4696-956c-642e6b696361,rev?*%
%TF.SameCoordinates,Original*%
%TF.FileFunction,Copper,L1,Top*%
%TF.FilePolarity,Positive*%
%FSLAX46Y46*%
G04 Gerber Fmt 4.6, Leading zero omitted, Abs format (unit mm)*
G04 Created by KiCad (PCBNEW (5.1.6)-1) date 2020-09-08 16:49:50*
%MOMM*%
%LPD*%
G01*
G04 APERTURE LIST*
%TA.AperFunction,ComponentPad*%
%ADD10O,1.000000X1.000000*%
%TD*%
%TA.AperFunction,ComponentPad*%
%ADD11R,1.000000X1.000000*%
%TD*%
%TA.AperFunction,SMDPad,CuDef*%
%ADD12R,1.700000X0.900000*%
%TD*%
%TA.AperFunction,SMDPad,CuDef*%
%ADD13R,1.500000X1.100000*%
%TD*%
%TA.AperFunction,ComponentPad*%
%ADD14O,1.727200X2.032000*%
%TD*%
%TA.AperFunction,ComponentPad*%
%ADD15C,4.064000*%
%TD*%
%TA.AperFunction,ComponentPad*%
%ADD16C,1.500000*%
%TD*%
%TA.AperFunction,SMDPad,CuDef*%
%ADD17R,0.600000X1.500000*%
%TD*%
%TA.AperFunction,ViaPad*%
%ADD18C,0.800000*%
%TD*%
%TA.AperFunction,ViaPad*%
%ADD19C,0.600000*%
%TD*%
%TA.AperFunction,Conductor*%
%ADD20C,0.300000*%
%TD*%
%TA.AperFunction,Conductor*%
%ADD21C,0.200000*%
%TD*%
G04 APERTURE END LIST*
%TO.P,R11,2*%
%TO.N,Net-(R11-Pad2)*%
%TA.AperFunction,SMDPad,CuDef*%
G36*
G01*
X144255500Y-108235000D02*
X143780500Y-108235000D01*
G75*
G02*
X143543000Y-107997500I0J237500D01*
G01*
X143543000Y-107422500D01*
G75*
G02*
X143780500Y-107185000I237500J0D01*
G01*
X144255500Y-107185000D01*
G75*
G02*
X144493000Y-107422500I0J-237500D01*
G01*
X144493000Y-107997500D01*
G75*
G02*
X144255500Y-108235000I-237500J0D01*
G01*
G37*
%TD.AperFunction*%
%TO.P,R11,1*%
%TO.N,VCC*%
%TA.AperFunction,SMDPad,CuDef*%
G36*
G01*
X144255500Y-109985000D02*
X143780500Y-109985000D01*
G75*
G02*
X143543000Y-109747500I0J237500D01*
G01*
X143543000Y-109172500D01*
G75*
G02*
X143780500Y-108935000I237500J0D01*
G01*
X144255500Y-108935000D01*
G75*
G02*
X144493000Y-109172500I0J-237500D01*
G01*
X144493000Y-109747500D01*
G75*
G02*
X144255500Y-109985000I-237500J0D01*
G01*
G37*
%TD.AperFunction*%
%TD*%
%TO.P,R10,2*%
%TO.N,Net-(R10-Pad2)*%
%TA.AperFunction,SMDPad,CuDef*%
G36*
G01*
X142510500Y-92425000D02*
X142985500Y-92425000D01*
G75*
G02*
X143223000Y-92662500I0J-237500D01*
G01*
X143223000Y-93237500D01*
G75*
G02*
X142985500Y-93475000I-237500J0D01*
G01*
X142510500Y-93475000D01*
G75*
G02*
X142273000Y-93237500I0J237500D01*
G01*
X142273000Y-92662500D01*
G75*
G02*
X142510500Y-92425000I237500J0D01*
G01*
G37*
%TD.AperFunction*%
%TO.P,R10,1*%
%TO.N,VCC*%
%TA.AperFunction,SMDPad,CuDef*%
G36*
G01*
X142510500Y-90675000D02*
X142985500Y-90675000D01*
G75*
G02*
X143223000Y-90912500I0J-237500D01*
G01*
X143223000Y-91487500D01*
G75*
G02*
X142985500Y-91725000I-237500J0D01*
G01*
X142510500Y-91725000D01*
G75*
G02*
X142273000Y-91487500I0J237500D01*
G01*
X142273000Y-90912500D01*
G75*
G02*
X142510500Y-90675000I237500J0D01*
G01*
G37*
%TD.AperFunction*%
%TD*%
%TO.P,R1,2*%
%TO.N,GND*%
%TA.AperFunction,SMDPad,CuDef*%
G36*
G01*
X128482500Y-123094000D02*
X128007500Y-123094000D01*
G75*
G02*
X127770000Y-122856500I0J237500D01*
G01*
X127770000Y-122281500D01*
G75*
G02*
X128007500Y-122044000I237500J0D01*
G01*
X128482500Y-122044000D01*
G75*
G02*
X128720000Y-122281500I0J-237500D01*
G01*
X128720000Y-122856500D01*
G75*
G02*
X128482500Y-123094000I-237500J0D01*
G01*
G37*
%TD.AperFunction*%
%TO.P,R1,1*%
%TO.N,VCC*%
%TA.AperFunction,SMDPad,CuDef*%
G36*
G01*
X128482500Y-124844000D02*
X128007500Y-124844000D01*
G75*
G02*
X127770000Y-124606500I0J237500D01*
G01*
X127770000Y-124031500D01*
G75*
G02*
X128007500Y-123794000I237500J0D01*
G01*
X128482500Y-123794000D01*
G75*
G02*
X128720000Y-124031500I0J-237500D01*
G01*
X128720000Y-124606500D01*
G75*
G02*
X128482500Y-124844000I-237500J0D01*
G01*
G37*
%TD.AperFunction*%
%TD*%
D10*
%TO.P,SW21,3*%
%TO.N,Net-(R27-Pad2)*%
X154178000Y-103505000D03*
%TO.P,SW21,2*%
%TO.N,/3(\u002A\u002A)*%
X154178000Y-102235000D03*
D11*
%TO.P,SW21,1*%
%TO.N,Net-(R28-Pad2)*%
X154178000Y-100965000D03*
%TD*%
D10*
%TO.P,SW20,3*%
%TO.N,Net-(R26-Pad2)*%
X154178000Y-93091000D03*
%TO.P,SW20,2*%
%TO.N,Net-(C4-Pad2)*%
X154178000Y-91821000D03*
D11*
%TO.P,SW20,1*%
%TO.N,Net-(R25-Pad1)*%
X154178000Y-90551000D03*
%TD*%
D12*
%TO.P,SW19,2*%
%TO.N,Net-(R11-Pad2)*%
X170688000Y-104980000D03*
%TO.P,SW19,1*%
%TO.N,GND*%
X170688000Y-108380000D03*
%TD*%
%TO.P,SW18,2*%
%TO.N,Net-(R10-Pad2)*%
X163703000Y-104980000D03*
%TO.P,SW18,1*%
%TO.N,GND*%
X163703000Y-108380000D03*
%TD*%
D13*
%TO.P,SW1,1*%
%TO.N,/IN1*%
X163698000Y-90805000D03*
%TO.P,SW1,5*%
%TO.N,VCC*%
X172598000Y-98425000D03*
%TO.P,SW1,2*%
%TO.N,/IN2*%
X163698000Y-93345000D03*
%TO.P,SW1,6*%
%TO.N,VCC*%
X172598000Y-95885000D03*
%TO.P,SW1,3*%
%TO.N,/IN3*%
X163698000Y-95885000D03*
%TO.P,SW1,7*%
%TO.N,VCC*%
X172598000Y-93345000D03*
%TO.P,SW1,4*%
%TO.N,/IN4*%
X163698000Y-98425000D03*
%TO.P,SW1,8*%
%TO.N,VCC*%
X172598000Y-90805000D03*
%TD*%
%TO.P,R28,2*%
%TO.N,Net-(R28-Pad2)*%
%TA.AperFunction,SMDPad,CuDef*%
G36*
G01*
X158908000Y-100727500D02*
X158908000Y-101202500D01*
G75*
G02*
X158670500Y-101440000I-237500J0D01*
G01*
X158095500Y-101440000D01*
G75*
G02*
X157858000Y-101202500I0J237500D01*
G01*
X157858000Y-100727500D01*
G75*
G02*
X158095500Y-100490000I237500J0D01*
G01*
X158670500Y-100490000D01*
G75*
G02*
X158908000Y-100727500I0J-237500D01*
G01*
G37*
%TD.AperFunction*%
%TO.P,R28,1*%
%TO.N,Net-(C4-Pad1)*%
%TA.AperFunction,SMDPad,CuDef*%
G36*
G01*
X160658000Y-100727500D02*
X160658000Y-101202500D01*
G75*
G02*
X160420500Y-101440000I-237500J0D01*
G01*
X159845500Y-101440000D01*
G75*
G02*
X159608000Y-101202500I0J237500D01*
G01*
X159608000Y-100727500D01*
G75*
G02*
X159845500Y-100490000I237500J0D01*
G01*
X160420500Y-100490000D01*
G75*
G02*
X160658000Y-100727500I0J-237500D01*
G01*
G37*
%TD.AperFunction*%
%TD*%
%TO.P,R27,2*%
%TO.N,Net-(R27-Pad2)*%
%TA.AperFunction,SMDPad,CuDef*%
G36*
G01*
X158908000Y-103267500D02*
X158908000Y-103742500D01*
G75*
G02*
X158670500Y-103980000I-237500J0D01*
G01*
X158095500Y-103980000D01*
G75*
G02*
X157858000Y-103742500I0J237500D01*
G01*
X157858000Y-103267500D01*
G75*
G02*
X158095500Y-103030000I237500J0D01*
G01*
X158670500Y-103030000D01*
G75*
G02*
X158908000Y-103267500I0J-237500D01*
G01*
G37*
%TD.AperFunction*%
%TO.P,R27,1*%
%TO.N,Net-(R27-Pad1)*%
%TA.AperFunction,SMDPad,CuDef*%
G36*
G01*
X160658000Y-103267500D02*
X160658000Y-103742500D01*
G75*
G02*
X160420500Y-103980000I-237500J0D01*
G01*
X159845500Y-103980000D01*
G75*
G02*
X159608000Y-103742500I0J237500D01*
G01*
X159608000Y-103267500D01*
G75*
G02*
X159845500Y-103030000I237500J0D01*
G01*
X160420500Y-103030000D01*
G75*
G02*
X160658000Y-103267500I0J-237500D01*
G01*
G37*
%TD.AperFunction*%
%TD*%
%TO.P,R26,2*%
%TO.N,Net-(R26-Pad2)*%
%TA.AperFunction,SMDPad,CuDef*%
G36*
G01*
X145525500Y-91725000D02*
X145050500Y-91725000D01*
G75*
G02*
X144813000Y-91487500I0J237500D01*
G01*
X144813000Y-90912500D01*
G75*
G02*
X145050500Y-90675000I237500J0D01*
G01*
X145525500Y-90675000D01*
G75*
G02*
X145763000Y-90912500I0J-237500D01*
G01*
X145763000Y-91487500D01*
G75*
G02*
X145525500Y-91725000I-237500J0D01*
G01*
G37*
%TD.AperFunction*%
%TO.P,R26,1*%
%TO.N,Net-(R25-Pad2)*%
%TA.AperFunction,SMDPad,CuDef*%
G36*
G01*
X145525500Y-93475000D02*
X145050500Y-93475000D01*
G75*
G02*
X144813000Y-93237500I0J237500D01*
G01*
X144813000Y-92662500D01*
G75*
G02*
X145050500Y-92425000I237500J0D01*
G01*
X145525500Y-92425000D01*
G75*
G02*
X145763000Y-92662500I0J-237500D01*
G01*
X145763000Y-93237500D01*
G75*
G02*
X145525500Y-93475000I-237500J0D01*
G01*
G37*
%TD.AperFunction*%
%TD*%
%TO.P,R25,2*%
%TO.N,Net-(R25-Pad2)*%
%TA.AperFunction,SMDPad,CuDef*%
G36*
G01*
X150130500Y-92425000D02*
X150605500Y-92425000D01*
G75*
G02*
X150843000Y-92662500I0J-237500D01*
G01*
X150843000Y-93237500D01*
G75*
G02*
X150605500Y-93475000I-237500J0D01*
G01*
X150130500Y-93475000D01*
G75*
G02*
X149893000Y-93237500I0J237500D01*
G01*
X149893000Y-92662500D01*
G75*
G02*
X150130500Y-92425000I237500J0D01*
G01*
G37*
%TD.AperFunction*%
%TO.P,R25,1*%
%TO.N,Net-(R25-Pad1)*%
%TA.AperFunction,SMDPad,CuDef*%
G36*
G01*
X150130500Y-90675000D02*
X150605500Y-90675000D01*
G75*
G02*
X150843000Y-90912500I0J-237500D01*
G01*
X150843000Y-91487500D01*
G75*
G02*
X150605500Y-91725000I-237500J0D01*
G01*
X150130500Y-91725000D01*
G75*
G02*
X149893000Y-91487500I0J237500D01*
G01*
X149893000Y-90912500D01*
G75*
G02*
X150130500Y-90675000I237500J0D01*
G01*
G37*
%TD.AperFunction*%
%TD*%
%TO.P,R24,2*%
%TO.N,Net-(R24-Pad2)*%
%TA.AperFunction,SMDPad,CuDef*%
G36*
G01*
X149335500Y-108235000D02*
X148860500Y-108235000D01*
G75*
G02*
X148623000Y-107997500I0J237500D01*
G01*
X148623000Y-107422500D01*
G75*
G02*
X148860500Y-107185000I237500J0D01*
G01*
X149335500Y-107185000D01*
G75*
G02*
X149573000Y-107422500I0J-237500D01*
G01*
X149573000Y-107997500D01*
G75*
G02*
X149335500Y-108235000I-237500J0D01*
G01*
G37*
%TD.AperFunction*%
%TO.P,R24,1*%
%TO.N,Net-(C3-Pad1)*%
%TA.AperFunction,SMDPad,CuDef*%
G36*
G01*
X149335500Y-109985000D02*
X148860500Y-109985000D01*
G75*
G02*
X148623000Y-109747500I0J237500D01*
G01*
X148623000Y-109172500D01*
G75*
G02*
X148860500Y-108935000I237500J0D01*
G01*
X149335500Y-108935000D01*
G75*
G02*
X149573000Y-109172500I0J-237500D01*
G01*
X149573000Y-109747500D01*
G75*
G02*
X149335500Y-109985000I-237500J0D01*
G01*
G37*
%TD.AperFunction*%
%TD*%
%TO.P,R23,2*%
%TO.N,Net-(R23-Pad2)*%
%TA.AperFunction,SMDPad,CuDef*%
G36*
G01*
X147590500Y-92425000D02*
X148065500Y-92425000D01*
G75*
G02*
X148303000Y-92662500I0J-237500D01*
G01*
X148303000Y-93237500D01*
G75*
G02*
X148065500Y-93475000I-237500J0D01*
G01*
X147590500Y-93475000D01*
G75*
G02*
X147353000Y-93237500I0J237500D01*
G01*
X147353000Y-92662500D01*
G75*
G02*
X147590500Y-92425000I237500J0D01*
G01*
G37*
%TD.AperFunction*%
%TO.P,R23,1*%
%TO.N,Net-(C4-Pad2)*%
%TA.AperFunction,SMDPad,CuDef*%
G36*
G01*
X147590500Y-90675000D02*
X148065500Y-90675000D01*
G75*
G02*
X148303000Y-90912500I0J-237500D01*
G01*
X148303000Y-91487500D01*
G75*
G02*
X148065500Y-91725000I-237500J0D01*
G01*
X147590500Y-91725000D01*
G75*
G02*
X147353000Y-91487500I0J237500D01*
G01*
X147353000Y-90912500D01*
G75*
G02*
X147590500Y-90675000I237500J0D01*
G01*
G37*
%TD.AperFunction*%
%TD*%
%TO.P,R22,2*%
%TO.N,Net-(R22-Pad2)*%
%TA.AperFunction,SMDPad,CuDef*%
G36*
G01*
X141715500Y-108235000D02*
X141240500Y-108235000D01*
G75*
G02*
X141003000Y-107997500I0J237500D01*
G01*
X141003000Y-107422500D01*
G75*
G02*
X141240500Y-107185000I237500J0D01*
G01*
X141715500Y-107185000D01*
G75*
G02*
X141953000Y-107422500I0J-237500D01*
G01*
X141953000Y-107997500D01*
G75*
G02*
X141715500Y-108235000I-237500J0D01*
G01*
G37*
%TD.AperFunction*%
%TO.P,R22,1*%
%TO.N,Net-(C2-Pad1)*%
%TA.AperFunction,SMDPad,CuDef*%
G36*
G01*
X141715500Y-109985000D02*
X141240500Y-109985000D01*
G75*
G02*
X141003000Y-109747500I0J237500D01*
G01*
X141003000Y-109172500D01*
G75*
G02*
X141240500Y-108935000I237500J0D01*
G01*
X141715500Y-108935000D01*
G75*
G02*
X141953000Y-109172500I0J-237500D01*
G01*
X141953000Y-109747500D01*
G75*
G02*
X141715500Y-109985000I-237500J0D01*
G01*
G37*
%TD.AperFunction*%
%TD*%
%TO.P,R21,2*%
%TO.N,Net-(C3-Pad1)*%
%TA.AperFunction,SMDPad,CuDef*%
G36*
G01*
X146320500Y-108935000D02*
X146795500Y-108935000D01*
G75*
G02*
X147033000Y-109172500I0J-237500D01*
G01*
X147033000Y-109747500D01*
G75*
G02*
X146795500Y-109985000I-237500J0D01*
G01*
X146320500Y-109985000D01*
G75*
G02*
X146083000Y-109747500I0J237500D01*
G01*
X146083000Y-109172500D01*
G75*
G02*
X146320500Y-108935000I237500J0D01*
G01*
G37*
%TD.AperFunction*%
%TO.P,R21,1*%
%TO.N,Net-(R11-Pad2)*%
%TA.AperFunction,SMDPad,CuDef*%
G36*
G01*
X146320500Y-107185000D02*
X146795500Y-107185000D01*
G75*
G02*
X147033000Y-107422500I0J-237500D01*
G01*
X147033000Y-107997500D01*
G75*
G02*
X146795500Y-108235000I-237500J0D01*
G01*
X146320500Y-108235000D01*
G75*
G02*
X146083000Y-107997500I0J237500D01*
G01*
X146083000Y-107422500D01*
G75*
G02*
X146320500Y-107185000I237500J0D01*
G01*
G37*
%TD.AperFunction*%
%TD*%
%TO.P,R20,2*%
%TO.N,Net-(C2-Pad1)*%
%TA.AperFunction,SMDPad,CuDef*%
G36*
G01*
X140445500Y-91725000D02*
X139970500Y-91725000D01*
G75*
G02*
X139733000Y-91487500I0J237500D01*
G01*
X139733000Y-90912500D01*
G75*
G02*
X139970500Y-90675000I237500J0D01*
G01*
X140445500Y-90675000D01*
G75*
G02*
X140683000Y-90912500I0J-237500D01*
G01*
X140683000Y-91487500D01*
G75*
G02*
X140445500Y-91725000I-237500J0D01*
G01*
G37*
%TD.AperFunction*%
%TO.P,R20,1*%
%TO.N,Net-(R10-Pad2)*%
%TA.AperFunction,SMDPad,CuDef*%
G36*
G01*
X140445500Y-93475000D02*
X139970500Y-93475000D01*
G75*
G02*
X139733000Y-93237500I0J237500D01*
G01*
X139733000Y-92662500D01*
G75*
G02*
X139970500Y-92425000I237500J0D01*
G01*
X140445500Y-92425000D01*
G75*
G02*
X140683000Y-92662500I0J-237500D01*
G01*
X140683000Y-93237500D01*
G75*
G02*
X140445500Y-93475000I-237500J0D01*
G01*
G37*
%TD.AperFunction*%
%TD*%
%TO.P,R5,2*%
%TO.N,Net-(D4-Pad2)*%
%TA.AperFunction,SMDPad,CuDef*%
G36*
G01*
X159495500Y-108235000D02*
X159020500Y-108235000D01*
G75*
G02*
X158783000Y-107997500I0J237500D01*
G01*
X158783000Y-107422500D01*
G75*
G02*
X159020500Y-107185000I237500J0D01*
G01*
X159495500Y-107185000D01*
G75*
G02*
X159733000Y-107422500I0J-237500D01*
G01*
X159733000Y-107997500D01*
G75*
G02*
X159495500Y-108235000I-237500J0D01*
G01*
G37*
%TD.AperFunction*%
%TO.P,R5,1*%
%TO.N,/OUT4*%
%TA.AperFunction,SMDPad,CuDef*%
G36*
G01*
X159495500Y-109985000D02*
X159020500Y-109985000D01*
G75*
G02*
X158783000Y-109747500I0J237500D01*
G01*
X158783000Y-109172500D01*
G75*
G02*
X159020500Y-108935000I237500J0D01*
G01*
X159495500Y-108935000D01*
G75*
G02*
X159733000Y-109172500I0J-237500D01*
G01*
X159733000Y-109747500D01*
G75*
G02*
X159495500Y-109985000I-237500J0D01*
G01*
G37*
%TD.AperFunction*%
%TD*%
%TO.P,R4,2*%
%TO.N,Net-(D3-Pad2)*%
%TA.AperFunction,SMDPad,CuDef*%
G36*
G01*
X156955500Y-108235000D02*
X156480500Y-108235000D01*
G75*
G02*
X156243000Y-107997500I0J237500D01*
G01*
X156243000Y-107422500D01*
G75*
G02*
X156480500Y-107185000I237500J0D01*
G01*
X156955500Y-107185000D01*
G75*
G02*
X157193000Y-107422500I0J-237500D01*
G01*
X157193000Y-107997500D01*
G75*
G02*
X156955500Y-108235000I-237500J0D01*
G01*
G37*
%TD.AperFunction*%
%TO.P,R4,1*%
%TO.N,/OUT3*%
%TA.AperFunction,SMDPad,CuDef*%
G36*
G01*
X156955500Y-109985000D02*
X156480500Y-109985000D01*
G75*
G02*
X156243000Y-109747500I0J237500D01*
G01*
X156243000Y-109172500D01*
G75*
G02*
X156480500Y-108935000I237500J0D01*
G01*
X156955500Y-108935000D01*
G75*
G02*
X157193000Y-109172500I0J-237500D01*
G01*
X157193000Y-109747500D01*
G75*
G02*
X156955500Y-109985000I-237500J0D01*
G01*
G37*
%TD.AperFunction*%
%TD*%
%TO.P,R3,2*%
%TO.N,Net-(D2-Pad2)*%
%TA.AperFunction,SMDPad,CuDef*%
G36*
G01*
X154415500Y-108235000D02*
X153940500Y-108235000D01*
G75*
G02*
X153703000Y-107997500I0J237500D01*
G01*
X153703000Y-107422500D01*
G75*
G02*
X153940500Y-107185000I237500J0D01*
G01*
X154415500Y-107185000D01*
G75*
G02*
X154653000Y-107422500I0J-237500D01*
G01*
X154653000Y-107997500D01*
G75*
G02*
X154415500Y-108235000I-237500J0D01*
G01*
G37*
%TD.AperFunction*%
%TO.P,R3,1*%
%TO.N,/OUT2*%
%TA.AperFunction,SMDPad,CuDef*%
G36*
G01*
X154415500Y-109985000D02*
X153940500Y-109985000D01*
G75*
G02*
X153703000Y-109747500I0J237500D01*
G01*
X153703000Y-109172500D01*
G75*
G02*
X153940500Y-108935000I237500J0D01*
G01*
X154415500Y-108935000D01*
G75*
G02*
X154653000Y-109172500I0J-237500D01*
G01*
X154653000Y-109747500D01*
G75*
G02*
X154415500Y-109985000I-237500J0D01*
G01*
G37*
%TD.AperFunction*%
%TD*%
%TO.P,R2,2*%
%TO.N,Net-(D1-Pad2)*%
%TA.AperFunction,SMDPad,CuDef*%
G36*
G01*
X151875500Y-108235000D02*
X151400500Y-108235000D01*
G75*
G02*
X151163000Y-107997500I0J237500D01*
G01*
X151163000Y-107422500D01*
G75*
G02*
X151400500Y-107185000I237500J0D01*
G01*
X151875500Y-107185000D01*
G75*
G02*
X152113000Y-107422500I0J-237500D01*
G01*
X152113000Y-107997500D01*
G75*
G02*
X151875500Y-108235000I-237500J0D01*
G01*
G37*
%TD.AperFunction*%
%TO.P,R2,1*%
%TO.N,/OUT1*%
%TA.AperFunction,SMDPad,CuDef*%
G36*
G01*
X151875500Y-109985000D02*
X151400500Y-109985000D01*
G75*
G02*
X151163000Y-109747500I0J237500D01*
G01*
X151163000Y-109172500D01*
G75*
G02*
X151400500Y-108935000I237500J0D01*
G01*
X151875500Y-108935000D01*
G75*
G02*
X152113000Y-109172500I0J-237500D01*
G01*
X152113000Y-109747500D01*
G75*
G02*
X151875500Y-109985000I-237500J0D01*
G01*
G37*
%TD.AperFunction*%
%TD*%
%TO.P,R9,2*%
%TO.N,GND*%
%TA.AperFunction,SMDPad,CuDef*%
G36*
G01*
X158908000Y-98187500D02*
X158908000Y-98662500D01*
G75*
G02*
X158670500Y-98900000I-237500J0D01*
G01*
X158095500Y-98900000D01*
G75*
G02*
X157858000Y-98662500I0J237500D01*
G01*
X157858000Y-98187500D01*
G75*
G02*
X158095500Y-97950000I237500J0D01*
G01*
X158670500Y-97950000D01*
G75*
G02*
X158908000Y-98187500I0J-237500D01*
G01*
G37*
%TD.AperFunction*%
%TO.P,R9,1*%
%TO.N,/IN4*%
%TA.AperFunction,SMDPad,CuDef*%
G36*
G01*
X160658000Y-98187500D02*
X160658000Y-98662500D01*
G75*
G02*
X160420500Y-98900000I-237500J0D01*
G01*
X159845500Y-98900000D01*
G75*
G02*
X159608000Y-98662500I0J237500D01*
G01*
X159608000Y-98187500D01*
G75*
G02*
X159845500Y-97950000I237500J0D01*
G01*
X160420500Y-97950000D01*
G75*
G02*
X160658000Y-98187500I0J-237500D01*
G01*
G37*
%TD.AperFunction*%
%TD*%
%TO.P,R8,2*%
%TO.N,GND*%
%TA.AperFunction,SMDPad,CuDef*%
G36*
G01*
X158908000Y-95647500D02*
X158908000Y-96122500D01*
G75*
G02*
X158670500Y-96360000I-237500J0D01*
G01*
X158095500Y-96360000D01*
G75*
G02*
X157858000Y-96122500I0J237500D01*
G01*
X157858000Y-95647500D01*
G75*
G02*
X158095500Y-95410000I237500J0D01*
G01*
X158670500Y-95410000D01*
G75*
G02*
X158908000Y-95647500I0J-237500D01*
G01*
G37*
%TD.AperFunction*%
%TO.P,R8,1*%
%TO.N,/IN3*%
%TA.AperFunction,SMDPad,CuDef*%
G36*
G01*
X160658000Y-95647500D02*
X160658000Y-96122500D01*
G75*
G02*
X160420500Y-96360000I-237500J0D01*
G01*
X159845500Y-96360000D01*
G75*
G02*
X159608000Y-96122500I0J237500D01*
G01*
X159608000Y-95647500D01*
G75*
G02*
X159845500Y-95410000I237500J0D01*
G01*
X160420500Y-95410000D01*
G75*
G02*
X160658000Y-95647500I0J-237500D01*
G01*
G37*
%TD.AperFunction*%
%TD*%
%TO.P,R7,2*%
%TO.N,GND*%
%TA.AperFunction,SMDPad,CuDef*%
G36*
G01*
X158908000Y-93107500D02*
X158908000Y-93582500D01*
G75*
G02*
X158670500Y-93820000I-237500J0D01*
G01*
X158095500Y-93820000D01*
G75*
G02*
X157858000Y-93582500I0J237500D01*
G01*
X157858000Y-93107500D01*
G75*
G02*
X158095500Y-92870000I237500J0D01*
G01*
X158670500Y-92870000D01*
G75*
G02*
X158908000Y-93107500I0J-237500D01*
G01*
G37*
%TD.AperFunction*%
%TO.P,R7,1*%
%TO.N,/IN2*%
%TA.AperFunction,SMDPad,CuDef*%
G36*
G01*
X160658000Y-93107500D02*
X160658000Y-93582500D01*
G75*
G02*
X160420500Y-93820000I-237500J0D01*
G01*
X159845500Y-93820000D01*
G75*
G02*
X159608000Y-93582500I0J237500D01*
G01*
X159608000Y-93107500D01*
G75*
G02*
X159845500Y-92870000I237500J0D01*
G01*
X160420500Y-92870000D01*
G75*
G02*
X160658000Y-93107500I0J-237500D01*
G01*
G37*
%TD.AperFunction*%
%TD*%
%TO.P,R6,2*%
%TO.N,GND*%
%TA.AperFunction,SMDPad,CuDef*%
G36*
G01*
X158908000Y-90567500D02*
X158908000Y-91042500D01*
G75*
G02*
X158670500Y-91280000I-237500J0D01*
G01*
X158095500Y-91280000D01*
G75*
G02*
X157858000Y-91042500I0J237500D01*
G01*
X157858000Y-90567500D01*
G75*
G02*
X158095500Y-90330000I237500J0D01*
G01*
X158670500Y-90330000D01*
G75*
G02*
X158908000Y-90567500I0J-237500D01*
G01*
G37*
%TD.AperFunction*%
%TO.P,R6,1*%
%TO.N,/IN1*%
%TA.AperFunction,SMDPad,CuDef*%
G36*
G01*
X160658000Y-90567500D02*
X160658000Y-91042500D01*
G75*
G02*
X160420500Y-91280000I-237500J0D01*
G01*
X159845500Y-91280000D01*
G75*
G02*
X159608000Y-91042500I0J237500D01*
G01*
X159608000Y-90567500D01*
G75*
G02*
X159845500Y-90330000I237500J0D01*
G01*
X160420500Y-90330000D01*
G75*
G02*
X160658000Y-90567500I0J-237500D01*
G01*
G37*
%TD.AperFunction*%
%TD*%
D10*
%TO.P,JP1,3*%
%TO.N,+3V3*%
X134430000Y-122110000D03*
%TO.P,JP1,2*%
%TO.N,VCC*%
X134430000Y-123380000D03*
D11*
%TO.P,JP1,1*%
%TO.N,+5V*%
X134430000Y-124650000D03*
%TD*%
%TO.P,D4,2*%
%TO.N,Net-(D4-Pad2)*%
%TA.AperFunction,SMDPad,CuDef*%
G36*
G01*
X177181500Y-113126000D02*
X177656500Y-113126000D01*
G75*
G02*
X177894000Y-113363500I0J-237500D01*
G01*
X177894000Y-113938500D01*
G75*
G02*
X177656500Y-114176000I-237500J0D01*
G01*
X177181500Y-114176000D01*
G75*
G02*
X176944000Y-113938500I0J237500D01*
G01*
X176944000Y-113363500D01*
G75*
G02*
X177181500Y-113126000I237500J0D01*
G01*
G37*
%TD.AperFunction*%
%TO.P,D4,1*%
%TO.N,GND*%
%TA.AperFunction,SMDPad,CuDef*%
G36*
G01*
X177181500Y-111376000D02*
X177656500Y-111376000D01*
G75*
G02*
X177894000Y-111613500I0J-237500D01*
G01*
X177894000Y-112188500D01*
G75*
G02*
X177656500Y-112426000I-237500J0D01*
G01*
X177181500Y-112426000D01*
G75*
G02*
X176944000Y-112188500I0J237500D01*
G01*
X176944000Y-111613500D01*
G75*
G02*
X177181500Y-111376000I237500J0D01*
G01*
G37*
%TD.AperFunction*%
%TD*%
%TO.P,D3,2*%
%TO.N,Net-(D3-Pad2)*%
%TA.AperFunction,SMDPad,CuDef*%
G36*
G01*
X177181500Y-107792000D02*
X177656500Y-107792000D01*
G75*
G02*
X177894000Y-108029500I0J-237500D01*
G01*
X177894000Y-108604500D01*
G75*
G02*
X177656500Y-108842000I-237500J0D01*
G01*
X177181500Y-108842000D01*
G75*
G02*
X176944000Y-108604500I0J237500D01*
G01*
X176944000Y-108029500D01*
G75*
G02*
X177181500Y-107792000I237500J0D01*
G01*
G37*
%TD.AperFunction*%
%TO.P,D3,1*%
%TO.N,GND*%
%TA.AperFunction,SMDPad,CuDef*%
G36*
G01*
X177181500Y-106042000D02*
X177656500Y-106042000D01*
G75*
G02*
X177894000Y-106279500I0J-237500D01*
G01*
X177894000Y-106854500D01*
G75*
G02*
X177656500Y-107092000I-237500J0D01*
G01*
X177181500Y-107092000D01*
G75*
G02*
X176944000Y-106854500I0J237500D01*
G01*
X176944000Y-106279500D01*
G75*
G02*
X177181500Y-106042000I237500J0D01*
G01*
G37*
%TD.AperFunction*%
%TD*%
%TO.P,D2,2*%
%TO.N,Net-(D2-Pad2)*%
%TA.AperFunction,SMDPad,CuDef*%
G36*
G01*
X177181500Y-102458000D02*
X177656500Y-102458000D01*
G75*
G02*
X177894000Y-102695500I0J-237500D01*
G01*
X177894000Y-103270500D01*
G75*
G02*
X177656500Y-103508000I-237500J0D01*
G01*
X177181500Y-103508000D01*
G75*
G02*
X176944000Y-103270500I0J237500D01*
G01*
X176944000Y-102695500D01*
G75*
G02*
X177181500Y-102458000I237500J0D01*
G01*
G37*
%TD.AperFunction*%
%TO.P,D2,1*%
%TO.N,GND*%
%TA.AperFunction,SMDPad,CuDef*%
G36*
G01*
X177181500Y-100708000D02*
X177656500Y-100708000D01*
G75*
G02*
X177894000Y-100945500I0J-237500D01*
G01*
X177894000Y-101520500D01*
G75*
G02*
X177656500Y-101758000I-237500J0D01*
G01*
X177181500Y-101758000D01*
G75*
G02*
X176944000Y-101520500I0J237500D01*
G01*
X176944000Y-100945500D01*
G75*
G02*
X177181500Y-100708000I237500J0D01*
G01*
G37*
%TD.AperFunction*%
%TD*%
%TO.P,D1,2*%
%TO.N,Net-(D1-Pad2)*%
%TA.AperFunction,SMDPad,CuDef*%
G36*
G01*
X177181500Y-97124000D02*
X177656500Y-97124000D01*
G75*
G02*
X177894000Y-97361500I0J-237500D01*
G01*
X177894000Y-97936500D01*
G75*
G02*
X177656500Y-98174000I-237500J0D01*
G01*
X177181500Y-98174000D01*
G75*
G02*
X176944000Y-97936500I0J237500D01*
G01*
X176944000Y-97361500D01*
G75*
G02*
X177181500Y-97124000I237500J0D01*
G01*
G37*
%TD.AperFunction*%
%TO.P,D1,1*%
%TO.N,GND*%
%TA.AperFunction,SMDPad,CuDef*%
G36*
G01*
X177181500Y-95374000D02*
X177656500Y-95374000D01*
G75*
G02*
X177894000Y-95611500I0J-237500D01*
G01*
X177894000Y-96186500D01*
G75*
G02*
X177656500Y-96424000I-237500J0D01*
G01*
X177181500Y-96424000D01*
G75*
G02*
X176944000Y-96186500I0J237500D01*
G01*
X176944000Y-95611500D01*
G75*
G02*
X177181500Y-95374000I237500J0D01*
G01*
G37*
%TD.AperFunction*%
%TD*%
%TO.P,CP13,2*%
%TO.N,GND*%
%TA.AperFunction,SMDPad,CuDef*%
G36*
G01*
X139970500Y-98140000D02*
X140445500Y-98140000D01*
G75*
G02*
X140683000Y-98377500I0J-237500D01*
G01*
X140683000Y-98952500D01*
G75*
G02*
X140445500Y-99190000I-237500J0D01*
G01*
X139970500Y-99190000D01*
G75*
G02*
X139733000Y-98952500I0J237500D01*
G01*
X139733000Y-98377500D01*
G75*
G02*
X139970500Y-98140000I237500J0D01*
G01*
G37*
%TD.AperFunction*%
%TO.P,CP13,1*%
%TO.N,VCC*%
%TA.AperFunction,SMDPad,CuDef*%
G36*
G01*
X139970500Y-96390000D02*
X140445500Y-96390000D01*
G75*
G02*
X140683000Y-96627500I0J-237500D01*
G01*
X140683000Y-97202500D01*
G75*
G02*
X140445500Y-97440000I-237500J0D01*
G01*
X139970500Y-97440000D01*
G75*
G02*
X139733000Y-97202500I0J237500D01*
G01*
X139733000Y-96627500D01*
G75*
G02*
X139970500Y-96390000I237500J0D01*
G01*
G37*
%TD.AperFunction*%
%TD*%
%TO.P,CP10,2*%
%TO.N,GND*%
%TA.AperFunction,SMDPad,CuDef*%
G36*
G01*
X159020500Y-81630000D02*
X159495500Y-81630000D01*
G75*
G02*
X159733000Y-81867500I0J-237500D01*
G01*
X159733000Y-82442500D01*
G75*
G02*
X159495500Y-82680000I-237500J0D01*
G01*
X159020500Y-82680000D01*
G75*
G02*
X158783000Y-82442500I0J237500D01*
G01*
X158783000Y-81867500D01*
G75*
G02*
X159020500Y-81630000I237500J0D01*
G01*
G37*
%TD.AperFunction*%
%TO.P,CP10,1*%
%TO.N,VCC*%
%TA.AperFunction,SMDPad,CuDef*%
G36*
G01*
X159020500Y-79880000D02*
X159495500Y-79880000D01*
G75*
G02*
X159733000Y-80117500I0J-237500D01*
G01*
X159733000Y-80692500D01*
G75*
G02*
X159495500Y-80930000I-237500J0D01*
G01*
X159020500Y-80930000D01*
G75*
G02*
X158783000Y-80692500I0J237500D01*
G01*
X158783000Y-80117500D01*
G75*
G02*
X159020500Y-79880000I237500J0D01*
G01*
G37*
%TD.AperFunction*%
%TD*%
%TO.P,CP9,1*%
%TO.N,VCC*%
%TA.AperFunction,SMDPad,CuDef*%
G36*
G01*
X134890500Y-79880000D02*
X135365500Y-79880000D01*
G75*
G02*
X135603000Y-80117500I0J-237500D01*
G01*
X135603000Y-80692500D01*
G75*
G02*
X135365500Y-80930000I-237500J0D01*
G01*
X134890500Y-80930000D01*
G75*
G02*
X134653000Y-80692500I0J237500D01*
G01*
X134653000Y-80117500D01*
G75*
G02*
X134890500Y-79880000I237500J0D01*
G01*
G37*
%TD.AperFunction*%
%TO.P,CP9,2*%
%TO.N,GND*%
%TA.AperFunction,SMDPad,CuDef*%
G36*
G01*
X134890500Y-81630000D02*
X135365500Y-81630000D01*
G75*
G02*
X135603000Y-81867500I0J-237500D01*
G01*
X135603000Y-82442500D01*
G75*
G02*
X135365500Y-82680000I-237500J0D01*
G01*
X134890500Y-82680000D01*
G75*
G02*
X134653000Y-82442500I0J237500D01*
G01*
X134653000Y-81867500D01*
G75*
G02*
X134890500Y-81630000I237500J0D01*
G01*
G37*
%TD.AperFunction*%
%TD*%
%TO.P,CP8,2*%
%TO.N,GND*%
%TA.AperFunction,SMDPad,CuDef*%
G36*
G01*
X147590500Y-81630000D02*
X148065500Y-81630000D01*
G75*
G02*
X148303000Y-81867500I0J-237500D01*
G01*
X148303000Y-82442500D01*
G75*
G02*
X148065500Y-82680000I-237500J0D01*
G01*
X147590500Y-82680000D01*
G75*
G02*
X147353000Y-82442500I0J237500D01*
G01*
X147353000Y-81867500D01*
G75*
G02*
X147590500Y-81630000I237500J0D01*
G01*
G37*
%TD.AperFunction*%
%TO.P,CP8,1*%
%TO.N,VCC*%
%TA.AperFunction,SMDPad,CuDef*%
G36*
G01*
X147590500Y-79880000D02*
X148065500Y-79880000D01*
G75*
G02*
X148303000Y-80117500I0J-237500D01*
G01*
X148303000Y-80692500D01*
G75*
G02*
X148065500Y-80930000I-237500J0D01*
G01*
X147590500Y-80930000D01*
G75*
G02*
X147353000Y-80692500I0J237500D01*
G01*
X147353000Y-80117500D01*
G75*
G02*
X147590500Y-79880000I237500J0D01*
G01*
G37*
%TD.AperFunction*%
%TD*%
%TO.P,CP7,2*%
%TO.N,GND*%
%TA.AperFunction,SMDPad,CuDef*%
G36*
G01*
X123460500Y-92665000D02*
X123935500Y-92665000D01*
G75*
G02*
X124173000Y-92902500I0J-237500D01*
G01*
X124173000Y-93477500D01*
G75*
G02*
X123935500Y-93715000I-237500J0D01*
G01*
X123460500Y-93715000D01*
G75*
G02*
X123223000Y-93477500I0J237500D01*
G01*
X123223000Y-92902500D01*
G75*
G02*
X123460500Y-92665000I237500J0D01*
G01*
G37*
%TD.AperFunction*%
%TO.P,CP7,1*%
%TO.N,VCC*%
%TA.AperFunction,SMDPad,CuDef*%
G36*
G01*
X123460500Y-90915000D02*
X123935500Y-90915000D01*
G75*
G02*
X124173000Y-91152500I0J-237500D01*
G01*
X124173000Y-91727500D01*
G75*
G02*
X123935500Y-91965000I-237500J0D01*
G01*
X123460500Y-91965000D01*
G75*
G02*
X123223000Y-91727500I0J237500D01*
G01*
X123223000Y-91152500D01*
G75*
G02*
X123460500Y-90915000I237500J0D01*
G01*
G37*
%TD.AperFunction*%
%TD*%
%TO.P,CP6,2*%
%TO.N,GND*%
%TA.AperFunction,SMDPad,CuDef*%
G36*
G01*
X123460500Y-103601000D02*
X123935500Y-103601000D01*
G75*
G02*
X124173000Y-103838500I0J-237500D01*
G01*
X124173000Y-104413500D01*
G75*
G02*
X123935500Y-104651000I-237500J0D01*
G01*
X123460500Y-104651000D01*
G75*
G02*
X123223000Y-104413500I0J237500D01*
G01*
X123223000Y-103838500D01*
G75*
G02*
X123460500Y-103601000I237500J0D01*
G01*
G37*
%TD.AperFunction*%
%TO.P,CP6,1*%
%TO.N,VCC*%
%TA.AperFunction,SMDPad,CuDef*%
G36*
G01*
X123460500Y-101851000D02*
X123935500Y-101851000D01*
G75*
G02*
X124173000Y-102088500I0J-237500D01*
G01*
X124173000Y-102663500D01*
G75*
G02*
X123935500Y-102901000I-237500J0D01*
G01*
X123460500Y-102901000D01*
G75*
G02*
X123223000Y-102663500I0J237500D01*
G01*
X123223000Y-102088500D01*
G75*
G02*
X123460500Y-101851000I237500J0D01*
G01*
G37*
%TD.AperFunction*%
%TD*%
%TO.P,CP5,2*%
%TO.N,GND*%
%TA.AperFunction,SMDPad,CuDef*%
G36*
G01*
X161560500Y-114650000D02*
X162035500Y-114650000D01*
G75*
G02*
X162273000Y-114887500I0J-237500D01*
G01*
X162273000Y-115462500D01*
G75*
G02*
X162035500Y-115700000I-237500J0D01*
G01*
X161560500Y-115700000D01*
G75*
G02*
X161323000Y-115462500I0J237500D01*
G01*
X161323000Y-114887500D01*
G75*
G02*
X161560500Y-114650000I237500J0D01*
G01*
G37*
%TD.AperFunction*%
%TO.P,CP5,1*%
%TO.N,VCC*%
%TA.AperFunction,SMDPad,CuDef*%
G36*
G01*
X161560500Y-112900000D02*
X162035500Y-112900000D01*
G75*
G02*
X162273000Y-113137500I0J-237500D01*
G01*
X162273000Y-113712500D01*
G75*
G02*
X162035500Y-113950000I-237500J0D01*
G01*
X161560500Y-113950000D01*
G75*
G02*
X161323000Y-113712500I0J237500D01*
G01*
X161323000Y-113137500D01*
G75*
G02*
X161560500Y-112900000I237500J0D01*
G01*
G37*
%TD.AperFunction*%
%TD*%
%TO.P,CP4,2*%
%TO.N,GND*%
%TA.AperFunction,SMDPad,CuDef*%
G36*
G01*
X148860500Y-114650000D02*
X149335500Y-114650000D01*
G75*
G02*
X149573000Y-114887500I0J-237500D01*
G01*
X149573000Y-115462500D01*
G75*
G02*
X149335500Y-115700000I-237500J0D01*
G01*
X148860500Y-115700000D01*
G75*
G02*
X148623000Y-115462500I0J237500D01*
G01*
X148623000Y-114887500D01*
G75*
G02*
X148860500Y-114650000I237500J0D01*
G01*
G37*
%TD.AperFunction*%
%TO.P,CP4,1*%
%TO.N,VCC*%
%TA.AperFunction,SMDPad,CuDef*%
G36*
G01*
X148860500Y-112900000D02*
X149335500Y-112900000D01*
G75*
G02*
X149573000Y-113137500I0J-237500D01*
G01*
X149573000Y-113712500D01*
G75*
G02*
X149335500Y-113950000I-237500J0D01*
G01*
X148860500Y-113950000D01*
G75*
G02*
X148623000Y-113712500I0J237500D01*
G01*
X148623000Y-113137500D01*
G75*
G02*
X148860500Y-112900000I237500J0D01*
G01*
G37*
%TD.AperFunction*%
%TD*%
%TO.P,CP3,2*%
%TO.N,GND*%
%TA.AperFunction,SMDPad,CuDef*%
G36*
G01*
X136160500Y-114650000D02*
X136635500Y-114650000D01*
G75*
G02*
X136873000Y-114887500I0J-237500D01*
G01*
X136873000Y-115462500D01*
G75*
G02*
X136635500Y-115700000I-237500J0D01*
G01*
X136160500Y-115700000D01*
G75*
G02*
X135923000Y-115462500I0J237500D01*
G01*
X135923000Y-114887500D01*
G75*
G02*
X136160500Y-114650000I237500J0D01*
G01*
G37*
%TD.AperFunction*%
%TO.P,CP3,1*%
%TO.N,VCC*%
%TA.AperFunction,SMDPad,CuDef*%
G36*
G01*
X136160500Y-112900000D02*
X136635500Y-112900000D01*
G75*
G02*
X136873000Y-113137500I0J-237500D01*
G01*
X136873000Y-113712500D01*
G75*
G02*
X136635500Y-113950000I-237500J0D01*
G01*
X136160500Y-113950000D01*
G75*
G02*
X135923000Y-113712500I0J237500D01*
G01*
X135923000Y-113137500D01*
G75*
G02*
X136160500Y-112900000I237500J0D01*
G01*
G37*
%TD.AperFunction*%
%TD*%
%TO.P,CP2,2*%
%TO.N,GND*%
%TA.AperFunction,SMDPad,CuDef*%
G36*
G01*
X123460500Y-114650000D02*
X123935500Y-114650000D01*
G75*
G02*
X124173000Y-114887500I0J-237500D01*
G01*
X124173000Y-115462500D01*
G75*
G02*
X123935500Y-115700000I-237500J0D01*
G01*
X123460500Y-115700000D01*
G75*
G02*
X123223000Y-115462500I0J237500D01*
G01*
X123223000Y-114887500D01*
G75*
G02*
X123460500Y-114650000I237500J0D01*
G01*
G37*
%TD.AperFunction*%
%TO.P,CP2,1*%
%TO.N,VCC*%
%TA.AperFunction,SMDPad,CuDef*%
G36*
G01*
X123460500Y-112900000D02*
X123935500Y-112900000D01*
G75*
G02*
X124173000Y-113137500I0J-237500D01*
G01*
X124173000Y-113712500D01*
G75*
G02*
X123935500Y-113950000I-237500J0D01*
G01*
X123460500Y-113950000D01*
G75*
G02*
X123223000Y-113712500I0J237500D01*
G01*
X123223000Y-113137500D01*
G75*
G02*
X123460500Y-112900000I237500J0D01*
G01*
G37*
%TD.AperFunction*%
%TD*%
%TO.P,CP1,2*%
%TO.N,GND*%
%TA.AperFunction,SMDPad,CuDef*%
G36*
G01*
X123460500Y-81630000D02*
X123935500Y-81630000D01*
G75*
G02*
X124173000Y-81867500I0J-237500D01*
G01*
X124173000Y-82442500D01*
G75*
G02*
X123935500Y-82680000I-237500J0D01*
G01*
X123460500Y-82680000D01*
G75*
G02*
X123223000Y-82442500I0J237500D01*
G01*
X123223000Y-81867500D01*
G75*
G02*
X123460500Y-81630000I237500J0D01*
G01*
G37*
%TD.AperFunction*%
%TO.P,CP1,1*%
%TO.N,VCC*%
%TA.AperFunction,SMDPad,CuDef*%
G36*
G01*
X123460500Y-79880000D02*
X123935500Y-79880000D01*
G75*
G02*
X124173000Y-80117500I0J-237500D01*
G01*
X124173000Y-80692500D01*
G75*
G02*
X123935500Y-80930000I-237500J0D01*
G01*
X123460500Y-80930000D01*
G75*
G02*
X123223000Y-80692500I0J237500D01*
G01*
X123223000Y-80117500D01*
G75*
G02*
X123460500Y-79880000I237500J0D01*
G01*
G37*
%TD.AperFunction*%
%TD*%
%TO.P,C4,2*%
%TO.N,Net-(C4-Pad2)*%
%TA.AperFunction,SMDPad,CuDef*%
G36*
G01*
X154628000Y-97605001D02*
X154628000Y-96704999D01*
G75*
G02*
X154877999Y-96455000I249999J0D01*
G01*
X155528001Y-96455000D01*
G75*
G02*
X155778000Y-96704999I0J-249999D01*
G01*
X155778000Y-97605001D01*
G75*
G02*
X155528001Y-97855000I-249999J0D01*
G01*
X154877999Y-97855000D01*
G75*
G02*
X154628000Y-97605001I0J249999D01*
G01*
G37*
%TD.AperFunction*%
%TO.P,C4,1*%
%TO.N,Net-(C4-Pad1)*%
%TA.AperFunction,SMDPad,CuDef*%
G36*
G01*
X152578000Y-97605001D02*
X152578000Y-96704999D01*
G75*
G02*
X152827999Y-96455000I249999J0D01*
G01*
X153478001Y-96455000D01*
G75*
G02*
X153728000Y-96704999I0J-249999D01*
G01*
X153728000Y-97605001D01*
G75*
G02*
X153478001Y-97855000I-249999J0D01*
G01*
X152827999Y-97855000D01*
G75*
G02*
X152578000Y-97605001I0J249999D01*
G01*
G37*
%TD.AperFunction*%
%TD*%
%TO.P,C3,2*%
%TO.N,GND*%
%TA.AperFunction,SMDPad,CuDef*%
G36*
G01*
X138753001Y-108135000D02*
X137852999Y-108135000D01*
G75*
G02*
X137603000Y-107885001I0J249999D01*
G01*
X137603000Y-107234999D01*
G75*
G02*
X137852999Y-106985000I249999J0D01*
G01*
X138753001Y-106985000D01*
G75*
G02*
X139003000Y-107234999I0J-249999D01*
G01*
X139003000Y-107885001D01*
G75*
G02*
X138753001Y-108135000I-249999J0D01*
G01*
G37*
%TD.AperFunction*%
%TO.P,C3,1*%
%TO.N,Net-(C3-Pad1)*%
%TA.AperFunction,SMDPad,CuDef*%
G36*
G01*
X138753001Y-110185000D02*
X137852999Y-110185000D01*
G75*
G02*
X137603000Y-109935001I0J249999D01*
G01*
X137603000Y-109284999D01*
G75*
G02*
X137852999Y-109035000I249999J0D01*
G01*
X138753001Y-109035000D01*
G75*
G02*
X139003000Y-109284999I0J-249999D01*
G01*
X139003000Y-109935001D01*
G75*
G02*
X138753001Y-110185000I-249999J0D01*
G01*
G37*
%TD.AperFunction*%
%TD*%
%TO.P,C2,2*%
%TO.N,GND*%
%TA.AperFunction,SMDPad,CuDef*%
G36*
G01*
X138753001Y-102420000D02*
X137852999Y-102420000D01*
G75*
G02*
X137603000Y-102170001I0J249999D01*
G01*
X137603000Y-101519999D01*
G75*
G02*
X137852999Y-101270000I249999J0D01*
G01*
X138753001Y-101270000D01*
G75*
G02*
X139003000Y-101519999I0J-249999D01*
G01*
X139003000Y-102170001D01*
G75*
G02*
X138753001Y-102420000I-249999J0D01*
G01*
G37*
%TD.AperFunction*%
%TO.P,C2,1*%
%TO.N,Net-(C2-Pad1)*%
%TA.AperFunction,SMDPad,CuDef*%
G36*
G01*
X138753001Y-104470000D02*
X137852999Y-104470000D01*
G75*
G02*
X137603000Y-104220001I0J249999D01*
G01*
X137603000Y-103569999D01*
G75*
G02*
X137852999Y-103320000I249999J0D01*
G01*
X138753001Y-103320000D01*
G75*
G02*
X139003000Y-103569999I0J-249999D01*
G01*
X139003000Y-104220001D01*
G75*
G02*
X138753001Y-104470000I-249999J0D01*
G01*
G37*
%TD.AperFunction*%
%TD*%
%TO.P,C1,2*%
%TO.N,GND*%
%TA.AperFunction,SMDPad,CuDef*%
G36*
G01*
X131631000Y-122669000D02*
X129481000Y-122669000D01*
G75*
G02*
X129231000Y-122419000I0J250000D01*
G01*
X129231000Y-121494000D01*
G75*
G02*
X129481000Y-121244000I250000J0D01*
G01*
X131631000Y-121244000D01*
G75*
G02*
X131881000Y-121494000I0J-250000D01*
G01*
X131881000Y-122419000D01*
G75*
G02*
X131631000Y-122669000I-250000J0D01*
G01*
G37*
%TD.AperFunction*%
%TO.P,C1,1*%
%TO.N,VCC*%
%TA.AperFunction,SMDPad,CuDef*%
G36*
G01*
X131631000Y-125644000D02*
X129481000Y-125644000D01*
G75*
G02*
X129231000Y-125394000I0J250000D01*
G01*
X129231000Y-124469000D01*
G75*
G02*
X129481000Y-124219000I250000J0D01*
G01*
X131631000Y-124219000D01*
G75*
G02*
X131881000Y-124469000I0J-250000D01*
G01*
X131881000Y-125394000D01*
G75*
G02*
X131631000Y-125644000I-250000J0D01*
G01*
G37*
%TD.AperFunction*%
%TD*%
D14*
%TO.P,P1,1*%
%TO.N,N/C*%
X138938000Y-123825000D03*
%TO.P,P1,2*%
X141478000Y-123825000D03*
%TO.P,P1,3*%
X144018000Y-123825000D03*
%TO.P,P1,4*%
%TO.N,+3V3*%
X146558000Y-123825000D03*
%TO.P,P1,5*%
%TO.N,+5V*%
X149098000Y-123825000D03*
%TO.P,P1,6*%
%TO.N,GND*%
X151638000Y-123825000D03*
%TO.P,P1,7*%
X154178000Y-123825000D03*
%TO.P,P1,8*%
%TO.N,N/C*%
X156718000Y-123825000D03*
%TD*%
%TO.P,P2,1*%
%TO.N,ROM_A0*%
X161798000Y-123825000D03*
%TO.P,P2,2*%
%TO.N,ROM_A1*%
X164338000Y-123825000D03*
%TO.P,P2,3*%
%TO.N,ROM_A2*%
X166878000Y-123825000D03*
%TO.P,P2,4*%
%TO.N,ROM_A3*%
X169418000Y-123825000D03*
%TO.P,P2,5*%
%TO.N,N/C*%
X171958000Y-123825000D03*
%TO.P,P2,6*%
X174498000Y-123825000D03*
%TD*%
%TO.P,P3,1*%
%TO.N,N/C*%
X129794000Y-75565000D03*
%TO.P,P3,2*%
X132334000Y-75565000D03*
%TO.P,P3,3*%
X134874000Y-75565000D03*
%TO.P,P3,4*%
%TO.N,GND*%
X137414000Y-75565000D03*
%TO.P,P3,5*%
%TO.N,N/C*%
X139954000Y-75565000D03*
%TO.P,P3,6*%
X142494000Y-75565000D03*
%TO.P,P3,7*%
%TO.N,ROM_D7*%
X145034000Y-75565000D03*
%TO.P,P3,8*%
%TO.N,ROM_D6*%
X147574000Y-75565000D03*
%TO.P,P3,9*%
%TO.N,ROM_D5*%
X150114000Y-75565000D03*
%TO.P,P3,10*%
%TO.N,ROM_D4*%
X152654000Y-75565000D03*
%TD*%
%TO.P,P4,1*%
%TO.N,ROM_D3*%
X156718000Y-75565000D03*
%TO.P,P4,2*%
%TO.N,ROM_D2*%
X159258000Y-75565000D03*
%TO.P,P4,3*%
%TO.N,ROM_D1*%
X161798000Y-75565000D03*
%TO.P,P4,4*%
%TO.N,ROM_D0*%
X164338000Y-75565000D03*
%TO.P,P4,5*%
%TO.N,/3(\u002A\u002A)*%
X166878000Y-75565000D03*
%TO.P,P4,6*%
%TO.N,/2*%
X169418000Y-75565000D03*
%TO.P,P4,7*%
%TO.N,N/C*%
X171958000Y-75565000D03*
%TO.P,P4,8*%
X174498000Y-75565000D03*
%TD*%
D15*
%TO.P,P5,1*%
%TO.N,N/C*%
X124968000Y-123825000D03*
%TD*%
%TO.P,P6,1*%
%TO.N,N/C*%
X177038000Y-118745000D03*
%TD*%
%TO.P,P7,1*%
%TO.N,N/C*%
X126238000Y-75565000D03*
%TD*%
%TO.P,P8,1*%
%TO.N,N/C*%
X177038000Y-90805000D03*
%TD*%
%TO.P,D5,2*%
%TO.N,Net-(D5-Pad2)*%
%TA.AperFunction,SMDPad,CuDef*%
G36*
G01*
X174641500Y-80995000D02*
X175116500Y-80995000D01*
G75*
G02*
X175354000Y-81232500I0J-237500D01*
G01*
X175354000Y-81807500D01*
G75*
G02*
X175116500Y-82045000I-237500J0D01*
G01*
X174641500Y-82045000D01*
G75*
G02*
X174404000Y-81807500I0J237500D01*
G01*
X174404000Y-81232500D01*
G75*
G02*
X174641500Y-80995000I237500J0D01*
G01*
G37*
%TD.AperFunction*%
%TO.P,D5,1*%
%TO.N,GND*%
%TA.AperFunction,SMDPad,CuDef*%
G36*
G01*
X174641500Y-79245000D02*
X175116500Y-79245000D01*
G75*
G02*
X175354000Y-79482500I0J-237500D01*
G01*
X175354000Y-80057500D01*
G75*
G02*
X175116500Y-80295000I-237500J0D01*
G01*
X174641500Y-80295000D01*
G75*
G02*
X174404000Y-80057500I0J237500D01*
G01*
X174404000Y-79482500D01*
G75*
G02*
X174641500Y-79245000I237500J0D01*
G01*
G37*
%TD.AperFunction*%
%TD*%
%TO.P,D6,1*%
%TO.N,GND*%
%TA.AperFunction,SMDPad,CuDef*%
G36*
G01*
X174641500Y-84452000D02*
X175116500Y-84452000D01*
G75*
G02*
X175354000Y-84689500I0J-237500D01*
G01*
X175354000Y-85264500D01*
G75*
G02*
X175116500Y-85502000I-237500J0D01*
G01*
X174641500Y-85502000D01*
G75*
G02*
X174404000Y-85264500I0J237500D01*
G01*
X174404000Y-84689500D01*
G75*
G02*
X174641500Y-84452000I237500J0D01*
G01*
G37*
%TD.AperFunction*%
%TO.P,D6,2*%
%TO.N,Net-(D6-Pad2)*%
%TA.AperFunction,SMDPad,CuDef*%
G36*
G01*
X174641500Y-86202000D02*
X175116500Y-86202000D01*
G75*
G02*
X175354000Y-86439500I0J-237500D01*
G01*
X175354000Y-87014500D01*
G75*
G02*
X175116500Y-87252000I-237500J0D01*
G01*
X174641500Y-87252000D01*
G75*
G02*
X174404000Y-87014500I0J237500D01*
G01*
X174404000Y-86439500D01*
G75*
G02*
X174641500Y-86202000I237500J0D01*
G01*
G37*
%TD.AperFunction*%
%TD*%
%TO.P,R38,1*%
%TO.N,/2*%
%TA.AperFunction,SMDPad,CuDef*%
G36*
G01*
X171644500Y-79245000D02*
X172119500Y-79245000D01*
G75*
G02*
X172357000Y-79482500I0J-237500D01*
G01*
X172357000Y-80057500D01*
G75*
G02*
X172119500Y-80295000I-237500J0D01*
G01*
X171644500Y-80295000D01*
G75*
G02*
X171407000Y-80057500I0J237500D01*
G01*
X171407000Y-79482500D01*
G75*
G02*
X171644500Y-79245000I237500J0D01*
G01*
G37*
%TD.AperFunction*%
%TO.P,R38,2*%
%TO.N,Net-(D5-Pad2)*%
%TA.AperFunction,SMDPad,CuDef*%
G36*
G01*
X171644500Y-80995000D02*
X172119500Y-80995000D01*
G75*
G02*
X172357000Y-81232500I0J-237500D01*
G01*
X172357000Y-81807500D01*
G75*
G02*
X172119500Y-82045000I-237500J0D01*
G01*
X171644500Y-82045000D01*
G75*
G02*
X171407000Y-81807500I0J237500D01*
G01*
X171407000Y-81232500D01*
G75*
G02*
X171644500Y-80995000I237500J0D01*
G01*
G37*
%TD.AperFunction*%
%TD*%
%TO.P,R39,2*%
%TO.N,Net-(D6-Pad2)*%
%TA.AperFunction,SMDPad,CuDef*%
G36*
G01*
X171644500Y-86202000D02*
X172119500Y-86202000D01*
G75*
G02*
X172357000Y-86439500I0J-237500D01*
G01*
X172357000Y-87014500D01*
G75*
G02*
X172119500Y-87252000I-237500J0D01*
G01*
X171644500Y-87252000D01*
G75*
G02*
X171407000Y-87014500I0J237500D01*
G01*
X171407000Y-86439500D01*
G75*
G02*
X171644500Y-86202000I237500J0D01*
G01*
G37*
%TD.AperFunction*%
%TO.P,R39,1*%
%TO.N,/3(\u002A\u002A)*%
%TA.AperFunction,SMDPad,CuDef*%
G36*
G01*
X171644500Y-84452000D02*
X172119500Y-84452000D01*
G75*
G02*
X172357000Y-84689500I0J-237500D01*
G01*
X172357000Y-85264500D01*
G75*
G02*
X172119500Y-85502000I-237500J0D01*
G01*
X171644500Y-85502000D01*
G75*
G02*
X171407000Y-85264500I0J237500D01*
G01*
X171407000Y-84689500D01*
G75*
G02*
X171644500Y-84452000I237500J0D01*
G01*
G37*
%TD.AperFunction*%
%TD*%
D16*
%TO.P,TP1,1*%
%TO.N,/ALU_S1*%
X140843000Y-88011000D03*
%TD*%
%TO.P,TP2,1*%
%TO.N,/ALU_S2*%
X137033000Y-88011000D03*
%TD*%
%TO.P,TP3,1*%
%TO.N,/ALU_S3*%
X140843000Y-78359000D03*
%TD*%
%TO.P,TP4,1*%
%TO.N,/ALU_S4*%
X144653000Y-78359000D03*
%TD*%
%TO.P,TP5,1*%
%TO.N,/ALU_C*%
X129362000Y-78333600D03*
%TD*%
%TO.P,TP6,1*%
%TO.N,/FLG_C*%
X131902000Y-78333600D03*
%TD*%
%TO.P,TP7,1*%
%TO.N,/~LOAD0*%
X134493000Y-111379000D03*
%TD*%
%TO.P,TP8,1*%
%TO.N,/~LOAD1*%
X147193000Y-111379000D03*
%TD*%
%TO.P,TP9,1*%
%TO.N,/~LOAD2*%
X159893000Y-111379000D03*
%TD*%
%TO.P,TP10,1*%
%TO.N,/~LOAD3*%
X172593000Y-111379000D03*
%TD*%
%TO.P,TP11,1*%
%TO.N,/SEL_A*%
X152273000Y-88011000D03*
%TD*%
%TO.P,TP12,1*%
%TO.N,ROM_D5*%
X150114000Y-78359000D03*
%TD*%
%TO.P,TP13,1*%
%TO.N,/OUT1*%
X149733000Y-111379000D03*
%TD*%
%TO.P,TP14,1*%
%TO.N,/OUT2*%
X152273000Y-111379000D03*
%TD*%
%TO.P,TP15,1*%
%TO.N,/OUT3*%
X154813000Y-111379000D03*
%TD*%
%TO.P,TP16,1*%
%TO.N,/OUT4*%
X157353000Y-111379000D03*
%TD*%
%TO.P,TP17,1*%
%TO.N,GND*%
X151511000Y-104521000D03*
%TD*%
%TO.P,TP18,1*%
%TO.N,GND*%
X138303000Y-98679000D03*
%TD*%
D17*
%TO.P,U1,1*%
%TO.N,GND*%
X125578000Y-85885000D03*
%TO.P,U1,2*%
X126848000Y-85885000D03*
%TO.P,U1,3*%
X128118000Y-85885000D03*
%TO.P,U1,4*%
X129388000Y-85885000D03*
%TO.P,U1,5*%
%TO.N,N/C*%
X130658000Y-85885000D03*
%TO.P,U1,6*%
X131928000Y-85885000D03*
%TO.P,U1,7*%
%TO.N,GND*%
X133198000Y-85885000D03*
%TO.P,U1,8*%
%TO.N,/~FLG_C*%
X133198000Y-80485000D03*
%TO.P,U1,9*%
%TO.N,/FLG_C*%
X131928000Y-80485000D03*
%TO.P,U1,10*%
%TO.N,VCC*%
X130658000Y-80485000D03*
%TO.P,U1,11*%
%TO.N,/ALU_C*%
X129388000Y-80485000D03*
%TO.P,U1,12*%
%TO.N,/3(\u002A\u002A)*%
X128118000Y-80485000D03*
%TO.P,U1,13*%
%TO.N,/2*%
X126848000Y-80485000D03*
%TO.P,U1,14*%
%TO.N,VCC*%
X125578000Y-80485000D03*
%TD*%
%TO.P,U2,16*%
%TO.N,VCC*%
X125603000Y-113505000D03*
%TO.P,U2,15*%
%TO.N,N/C*%
X126873000Y-113505000D03*
%TO.P,U2,14*%
%TO.N,/RA1*%
X128143000Y-113505000D03*
%TO.P,U2,13*%
%TO.N,/RA2*%
X129413000Y-113505000D03*
%TO.P,U2,12*%
%TO.N,/RA3*%
X130683000Y-113505000D03*
%TO.P,U2,11*%
%TO.N,/RA4*%
X131953000Y-113505000D03*
%TO.P,U2,10*%
%TO.N,GND*%
X133223000Y-113505000D03*
%TO.P,U2,9*%
%TO.N,/~LOAD0*%
X134493000Y-113505000D03*
%TO.P,U2,8*%
%TO.N,GND*%
X134493000Y-118905000D03*
%TO.P,U2,7*%
X133223000Y-118905000D03*
%TO.P,U2,6*%
%TO.N,/ALU_S4*%
X131953000Y-118905000D03*
%TO.P,U2,5*%
%TO.N,/ALU_S3*%
X130683000Y-118905000D03*
%TO.P,U2,4*%
%TO.N,/ALU_S2*%
X129413000Y-118905000D03*
%TO.P,U2,3*%
%TO.N,/ALU_S1*%
X128143000Y-118905000D03*
%TO.P,U2,2*%
%TO.N,/3(\u002A\u002A)*%
X126873000Y-118905000D03*
%TO.P,U2,1*%
%TO.N,/2*%
X125603000Y-118905000D03*
%TD*%
%TO.P,U3,1*%
%TO.N,/2*%
X138303000Y-118905000D03*
%TO.P,U3,2*%
%TO.N,/3(\u002A\u002A)*%
X139573000Y-118905000D03*
%TO.P,U3,3*%
%TO.N,/ALU_S1*%
X140843000Y-118905000D03*
%TO.P,U3,4*%
%TO.N,/ALU_S2*%
X142113000Y-118905000D03*
%TO.P,U3,5*%
%TO.N,/ALU_S3*%
X143383000Y-118905000D03*
%TO.P,U3,6*%
%TO.N,/ALU_S4*%
X144653000Y-118905000D03*
%TO.P,U3,7*%
%TO.N,GND*%
X145923000Y-118905000D03*
%TO.P,U3,8*%
X147193000Y-118905000D03*
%TO.P,U3,9*%
%TO.N,/~LOAD1*%
X147193000Y-113505000D03*
%TO.P,U3,10*%
%TO.N,GND*%
X145923000Y-113505000D03*
%TO.P,U3,11*%
%TO.N,/RB4*%
X144653000Y-113505000D03*
%TO.P,U3,12*%
%TO.N,/RB3*%
X143383000Y-113505000D03*
%TO.P,U3,13*%
%TO.N,/RB2*%
X142113000Y-113505000D03*
%TO.P,U3,14*%
%TO.N,/RB1*%
X140843000Y-113505000D03*
%TO.P,U3,15*%
%TO.N,N/C*%
X139573000Y-113505000D03*
%TO.P,U3,16*%
%TO.N,VCC*%
X138303000Y-113505000D03*
%TD*%
%TO.P,U4,16*%
%TO.N,VCC*%
X151003000Y-113505000D03*
%TO.P,U4,15*%
%TO.N,N/C*%
X152273000Y-113505000D03*
%TO.P,U4,14*%
%TO.N,/OUT1*%
X153543000Y-113505000D03*
%TO.P,U4,13*%
%TO.N,/OUT2*%
X154813000Y-113505000D03*
%TO.P,U4,12*%
%TO.N,/OUT3*%
X156083000Y-113505000D03*
%TO.P,U4,11*%
%TO.N,/OUT4*%
X157353000Y-113505000D03*
%TO.P,U4,10*%
%TO.N,GND*%
X158623000Y-113505000D03*
%TO.P,U4,9*%
%TO.N,/~LOAD2*%
X159893000Y-113505000D03*
%TO.P,U4,8*%
%TO.N,GND*%
X159893000Y-118905000D03*
%TO.P,U4,7*%
X158623000Y-118905000D03*
%TO.P,U4,6*%
%TO.N,/ALU_S4*%
X157353000Y-118905000D03*
%TO.P,U4,5*%
%TO.N,/ALU_S3*%
X156083000Y-118905000D03*
%TO.P,U4,4*%
%TO.N,/ALU_S2*%
X154813000Y-118905000D03*
%TO.P,U4,3*%
%TO.N,/ALU_S1*%
X153543000Y-118905000D03*
%TO.P,U4,2*%
%TO.N,/3(\u002A\u002A)*%
X152273000Y-118905000D03*
%TO.P,U4,1*%
%TO.N,/2*%
X151003000Y-118905000D03*
%TD*%
%TO.P,U5,16*%
%TO.N,VCC*%
X163703000Y-113505000D03*
%TO.P,U5,15*%
%TO.N,N/C*%
X164973000Y-113505000D03*
%TO.P,U5,14*%
%TO.N,ROM_A0*%
X166243000Y-113505000D03*
%TO.P,U5,13*%
%TO.N,ROM_A1*%
X167513000Y-113505000D03*
%TO.P,U5,12*%
%TO.N,ROM_A2*%
X168783000Y-113505000D03*
%TO.P,U5,11*%
%TO.N,ROM_A3*%
X170053000Y-113505000D03*
%TO.P,U5,10*%
%TO.N,VCC*%
X171323000Y-113505000D03*
%TO.P,U5,9*%
%TO.N,/~LOAD3*%
X172593000Y-113505000D03*
%TO.P,U5,8*%
%TO.N,GND*%
X172593000Y-118905000D03*
%TO.P,U5,7*%
%TO.N,VCC*%
X171323000Y-118905000D03*
%TO.P,U5,6*%
%TO.N,/ALU_S4*%
X170053000Y-118905000D03*
%TO.P,U5,5*%
%TO.N,/ALU_S3*%
X168783000Y-118905000D03*
%TO.P,U5,4*%
%TO.N,/ALU_S2*%
X167513000Y-118905000D03*
%TO.P,U5,3*%
%TO.N,/ALU_S1*%
X166243000Y-118905000D03*
%TO.P,U5,2*%
%TO.N,/3(\u002A\u002A)*%
X164973000Y-118905000D03*
%TO.P,U5,1*%
%TO.N,/2*%
X163703000Y-118905000D03*
%TD*%
%TO.P,U6,1*%
%TO.N,GND*%
X125603000Y-107856000D03*
%TO.P,U6,2*%
%TO.N,ROM_D5*%
X126873000Y-107856000D03*
%TO.P,U6,3*%
%TO.N,GND*%
X128143000Y-107856000D03*
%TO.P,U6,4*%
%TO.N,/IN1*%
X129413000Y-107856000D03*
%TO.P,U6,5*%
%TO.N,/RB1*%
X130683000Y-107856000D03*
%TO.P,U6,6*%
%TO.N,/RA1*%
X131953000Y-107856000D03*
%TO.P,U6,7*%
%TO.N,Net-(U6-Pad7)*%
X133223000Y-107856000D03*
%TO.P,U6,8*%
%TO.N,GND*%
X134493000Y-107856000D03*
%TO.P,U6,9*%
%TO.N,Net-(U6-Pad9)*%
X134493000Y-102456000D03*
%TO.P,U6,10*%
%TO.N,/RA2*%
X133223000Y-102456000D03*
%TO.P,U6,11*%
%TO.N,/RB2*%
X131953000Y-102456000D03*
%TO.P,U6,12*%
%TO.N,/IN2*%
X130683000Y-102456000D03*
%TO.P,U6,13*%
%TO.N,GND*%
X129413000Y-102456000D03*
%TO.P,U6,14*%
%TO.N,/SEL_A*%
X128143000Y-102456000D03*
%TO.P,U6,15*%
%TO.N,GND*%
X126873000Y-102456000D03*
%TO.P,U6,16*%
%TO.N,VCC*%
X125603000Y-102456000D03*
%TD*%
%TO.P,U7,16*%
%TO.N,VCC*%
X125603000Y-91534000D03*
%TO.P,U7,15*%
%TO.N,GND*%
X126873000Y-91534000D03*
%TO.P,U7,14*%
%TO.N,/SEL_A*%
X128143000Y-91534000D03*
%TO.P,U7,13*%
%TO.N,GND*%
X129413000Y-91534000D03*
%TO.P,U7,12*%
%TO.N,/IN4*%
X130683000Y-91534000D03*
%TO.P,U7,11*%
%TO.N,/RB4*%
X131953000Y-91534000D03*
%TO.P,U7,10*%
%TO.N,/RA4*%
X133223000Y-91534000D03*
%TO.P,U7,9*%
%TO.N,Net-(U7-Pad9)*%
X134493000Y-91534000D03*
%TO.P,U7,8*%
%TO.N,GND*%
X134493000Y-96934000D03*
%TO.P,U7,7*%
%TO.N,Net-(U7-Pad7)*%
X133223000Y-96934000D03*
%TO.P,U7,6*%
%TO.N,/RA3*%
X131953000Y-96934000D03*
%TO.P,U7,5*%
%TO.N,/RB3*%
X130683000Y-96934000D03*
%TO.P,U7,4*%
%TO.N,/IN3*%
X129413000Y-96934000D03*
%TO.P,U7,3*%
%TO.N,GND*%
X128143000Y-96934000D03*
%TO.P,U7,2*%
%TO.N,ROM_D5*%
X126873000Y-96934000D03*
%TO.P,U7,1*%
%TO.N,GND*%
X125603000Y-96934000D03*
%TD*%
%TO.P,U8,14*%
%TO.N,VCC*%
X149733000Y-80485000D03*
%TO.P,U8,13*%
%TO.N,ROM_D7*%
X151003000Y-80485000D03*
%TO.P,U8,12*%
%TO.N,Net-(U10-Pad12)*%
X152273000Y-80485000D03*
%TO.P,U8,11*%
%TO.N,/~LOAD1*%
X153543000Y-80485000D03*
%TO.P,U8,10*%
%TO.N,ROM_D7*%
X154813000Y-80485000D03*
%TO.P,U8,9*%
%TO.N,ROM_D6*%
X156083000Y-80485000D03*
%TO.P,U8,8*%
%TO.N,/~LOAD0*%
X157353000Y-80485000D03*
%TO.P,U8,7*%
%TO.N,GND*%
X157353000Y-85885000D03*
%TO.P,U8,6*%
%TO.N,Net-(U10-Pad11)*%
X156083000Y-85885000D03*
%TO.P,U8,5*%
%TO.N,ROM_D4*%
X154813000Y-85885000D03*
%TO.P,U8,4*%
%TO.N,/~FLG_C*%
X153543000Y-85885000D03*
%TO.P,U8,3*%
%TO.N,/SEL_A*%
X152273000Y-85885000D03*
%TO.P,U8,2*%
%TO.N,ROM_D4*%
X151003000Y-85885000D03*
%TO.P,U8,1*%
%TO.N,ROM_D7*%
X149733000Y-85885000D03*
%TD*%
%TO.P,U9,1*%
%TO.N,/ALU_S2*%
X137033000Y-85885000D03*
%TO.P,U9,2*%
%TO.N,ROM_D1*%
X138303000Y-85885000D03*
%TO.P,U9,3*%
%TO.N,Net-(U6-Pad9)*%
X139573000Y-85885000D03*
%TO.P,U9,4*%
%TO.N,/ALU_S1*%
X140843000Y-85885000D03*
%TO.P,U9,5*%
%TO.N,Net-(U6-Pad7)*%
X142113000Y-85885000D03*
%TO.P,U9,6*%
%TO.N,ROM_D0*%
X143383000Y-85885000D03*
%TO.P,U9,7*%
%TO.N,GND*%
X144653000Y-85885000D03*
%TO.P,U9,8*%
X145923000Y-85885000D03*
%TO.P,U9,9*%
%TO.N,/ALU_C*%
X145923000Y-80485000D03*
%TO.P,U9,10*%
%TO.N,/ALU_S4*%
X144653000Y-80485000D03*
%TO.P,U9,11*%
%TO.N,ROM_D3*%
X143383000Y-80485000D03*
%TO.P,U9,12*%
%TO.N,Net-(U7-Pad9)*%
X142113000Y-80485000D03*
%TO.P,U9,13*%
%TO.N,/ALU_S3*%
X140843000Y-80485000D03*
%TO.P,U9,14*%
%TO.N,Net-(U7-Pad7)*%
X139573000Y-80485000D03*
%TO.P,U9,15*%
%TO.N,ROM_D2*%
X138303000Y-80485000D03*
%TO.P,U9,16*%
%TO.N,VCC*%
X137033000Y-80485000D03*
%TD*%
%TO.P,U10,1*%
%TO.N,VCC*%
X161163000Y-85885000D03*
%TO.P,U10,2*%
X162433000Y-85885000D03*
%TO.P,U10,3*%
X163703000Y-85885000D03*
%TO.P,U10,4*%
%TO.N,Net-(U10-Pad12)*%
X164973000Y-85885000D03*
%TO.P,U10,5*%
%TO.N,ROM_D7*%
X166243000Y-85885000D03*
%TO.P,U10,6*%
%TO.N,/~LOAD2*%
X167513000Y-85885000D03*
%TO.P,U10,7*%
%TO.N,GND*%
X168783000Y-85885000D03*
%TO.P,U10,8*%
%TO.N,/~LOAD3*%
X168783000Y-80485000D03*
%TO.P,U10,9*%
%TO.N,ROM_D6*%
X167513000Y-80485000D03*
%TO.P,U10,10*%
%TO.N,ROM_D7*%
X166243000Y-80485000D03*
%TO.P,U10,11*%
%TO.N,Net-(U10-Pad11)*%
X164973000Y-80485000D03*
%TO.P,U10,12*%
%TO.N,Net-(U10-Pad12)*%
X163703000Y-80485000D03*
%TO.P,U10,13*%
%TO.N,ROM_D6*%
X162433000Y-80485000D03*
%TO.P,U10,14*%
%TO.N,VCC*%
X161163000Y-80485000D03*
%TD*%
%TO.P,U13,14*%
%TO.N,VCC*%
X142113000Y-96995000D03*
%TO.P,U13,13*%
%TO.N,GND*%
X143383000Y-96995000D03*
%TO.P,U13,12*%
%TO.N,N/C*%
X144653000Y-96995000D03*
%TO.P,U13,11*%
%TO.N,Net-(R25-Pad2)*%
X145923000Y-96995000D03*
%TO.P,U13,10*%
%TO.N,Net-(C4-Pad1)*%
X147193000Y-96995000D03*
%TO.P,U13,9*%
%TO.N,Net-(U13-Pad6)*%
X148463000Y-96995000D03*
%TO.P,U13,8*%
%TO.N,/2*%
X149733000Y-96995000D03*
%TO.P,U13,7*%
%TO.N,GND*%
X149733000Y-102395000D03*
%TO.P,U13,6*%
%TO.N,Net-(U13-Pad6)*%
X148463000Y-102395000D03*
%TO.P,U13,5*%
%TO.N,Net-(R24-Pad2)*%
X147193000Y-102395000D03*
%TO.P,U13,4*%
%TO.N,Net-(R25-Pad2)*%
X145923000Y-102395000D03*
%TO.P,U13,3*%
%TO.N,Net-(R23-Pad2)*%
X144653000Y-102395000D03*
%TO.P,U13,2*%
%TO.N,Net-(R27-Pad1)*%
X143383000Y-102395000D03*
%TO.P,U13,1*%
%TO.N,Net-(R22-Pad2)*%
X142113000Y-102395000D03*
%TD*%
D18*
%TO.N,GND*%
X157200600Y-82938900D03*
X150273500Y-115079700D03*
X136031200Y-83088000D03*
X153774300Y-89111400D03*
X137189400Y-100792300D03*
%TO.N,VCC*%
X141354000Y-95849300D03*
X147094100Y-114866500D03*
X126611500Y-112135800D03*
X144018000Y-110609200D03*
X143602900Y-90344200D03*
X160234300Y-86290600D03*
X158147200Y-81675300D03*
X139170100Y-114887200D03*
X150320600Y-82258900D03*
D19*
%TO.N,Net-(C2-Pad1)*%
X139225100Y-91768300D03*
X139399300Y-102958300D03*
%TO.N,ROM_A2*%
X168971000Y-112253200D03*
%TO.N,ROM_A1*%
X167815100Y-112254500D03*
%TO.N,ROM_D7*%
X152603500Y-77518900D03*
%TO.N,ROM_D5*%
X128726800Y-94470300D03*
%TO.N,ROM_D3*%
X145547200Y-81744500D03*
%TO.N,ROM_D2*%
X140202900Y-81657300D03*
%TO.N,ROM_D1*%
X138792300Y-87700000D03*
%TO.N,ROM_D0*%
X144509200Y-87144000D03*
%TO.N,/3(\u002A\u002A)*%
X160705000Y-118015800D03*
%TO.N,/2*%
X151525700Y-120149200D03*
X160698900Y-119776000D03*
X152004500Y-98045300D03*
%TO.N,Net-(R10-Pad2)*%
X156537400Y-106215500D03*
X152742400Y-95551300D03*
%TO.N,Net-(R23-Pad2)*%
X146835300Y-92950000D03*
X144705600Y-101113400D03*
%TO.N,Net-(R25-Pad2)*%
X146472100Y-101147900D03*
X147126800Y-93909500D03*
X146472100Y-98237500D03*
%TO.N,Net-(R28-Pad2)*%
X156500300Y-100965000D03*
%TO.N,/RA2*%
X131056900Y-110911000D03*
X132731800Y-103853800D03*
%TO.N,/RA3*%
X130456600Y-112248000D03*
X132166300Y-98197600D03*
%TO.N,/RA4*%
X131740700Y-112243900D03*
X133333300Y-92795800D03*
%TO.N,/ALU_S4*%
X131732100Y-117633800D03*
%TO.N,/ALU_S3*%
X142748000Y-117782200D03*
X130292200Y-117649900D03*
X159196300Y-120383500D03*
X156443600Y-117653500D03*
%TO.N,/ALU_S2*%
X133258600Y-116446900D03*
X136992200Y-117222500D03*
%TO.N,/ALU_S1*%
X137796200Y-117644500D03*
X133375900Y-115620800D03*
%TO.N,/RB3*%
X129886200Y-98205900D03*
X129886200Y-110129500D03*
%TO.N,/RB4*%
X140689100Y-94071600D03*
X142813700Y-112075000D03*
%TO.N,Net-(U6-Pad9)*%
X134815700Y-101188500D03*
X139408900Y-87154000D03*
%TO.N,Net-(U6-Pad7)*%
X135958000Y-104766400D03*
X138424700Y-91668300D03*
%TO.N,Net-(U7-Pad9)*%
X136063000Y-90483700D03*
X141726200Y-82112800D03*
%TO.N,Net-(U7-Pad7)*%
X133994800Y-95680100D03*
X139561700Y-82148100D03*
%TO.N,Net-(U13-Pad6)*%
X148866700Y-98252500D03*
X148866700Y-101144600D03*
%TO.N,/~LOAD0*%
X158158700Y-80066900D03*
%TO.N,/~LOAD1*%
X153563000Y-82748100D03*
%TO.N,/~LOAD2*%
X167295100Y-87146800D03*
%TO.N,/~LOAD3*%
X168903700Y-82268600D03*
%TO.N,/~FLG_C*%
X134029900Y-80866100D03*
X135449300Y-83779400D03*
%TD*%
D20*
%TO.N,GND*%
X138303000Y-98679000D02*
X137658300Y-98034300D01*
X137658300Y-98034300D02*
X134493000Y-98034300D01*
X140208000Y-98665000D02*
X140194000Y-98679000D01*
X140194000Y-98679000D02*
X138303000Y-98679000D01*
X129413000Y-99304300D02*
X129413000Y-101355700D01*
X128143000Y-98034300D02*
X129413000Y-99304300D01*
X129413000Y-99304300D02*
X129514100Y-99203200D01*
X129514100Y-99203200D02*
X133324100Y-99203200D01*
X133324100Y-99203200D02*
X134493000Y-98034300D01*
X134493000Y-96934000D02*
X134493000Y-98034300D01*
X157200600Y-82938900D02*
X158474100Y-82938900D01*
X158474100Y-82938900D02*
X159258000Y-82155000D01*
X158623000Y-114605300D02*
X159192700Y-115175000D01*
X159192700Y-115175000D02*
X161798000Y-115175000D01*
X158623000Y-114528300D02*
X158623000Y-114605300D01*
X158623000Y-113505000D02*
X158623000Y-114528300D01*
X150273500Y-115079700D02*
X158148600Y-115079700D01*
X158148600Y-115079700D02*
X158623000Y-114605300D01*
X149098000Y-115175000D02*
X149193300Y-115079700D01*
X149193300Y-115079700D02*
X150273500Y-115079700D01*
X136031200Y-83088000D02*
X136241900Y-83298700D01*
X136241900Y-83298700D02*
X146684300Y-83298700D01*
X146684300Y-83298700D02*
X147828000Y-82155000D01*
X126873000Y-90433700D02*
X129413000Y-90433700D01*
X126848000Y-86985300D02*
X126848000Y-90408700D01*
X126848000Y-90408700D02*
X126873000Y-90433700D01*
X129413000Y-91534000D02*
X129413000Y-90433700D01*
X177175600Y-95655600D02*
X177419000Y-95899000D01*
X174647000Y-87624600D02*
X174647000Y-93127000D01*
X174647000Y-93127000D02*
X177175600Y-95655600D01*
X158383000Y-90805000D02*
X159304700Y-89883300D01*
X159304700Y-89883300D02*
X164630500Y-89883300D01*
X164630500Y-89883300D02*
X169666300Y-94919100D01*
X169666300Y-94919100D02*
X169666300Y-97316400D01*
X169666300Y-97316400D02*
X171675300Y-99325400D01*
X171675300Y-99325400D02*
X173505800Y-99325400D01*
X173505800Y-99325400D02*
X177175600Y-95655600D01*
X156689400Y-89111400D02*
X158383000Y-90805000D01*
X177419000Y-95899000D02*
X178256800Y-96736800D01*
X178256800Y-96736800D02*
X178256800Y-100395200D01*
X178256800Y-100395200D02*
X177419000Y-101233000D01*
X177419000Y-101233000D02*
X178265100Y-102079100D01*
X178265100Y-102079100D02*
X178265100Y-105720900D01*
X178265100Y-105720900D02*
X177419000Y-106567000D01*
X153774300Y-89111400D02*
X156689400Y-89111400D01*
X157353000Y-85885000D02*
X157353000Y-88447800D01*
X157353000Y-88447800D02*
X156689400Y-89111400D01*
X145923000Y-86310100D02*
X148724300Y-89111400D01*
X148724300Y-89111400D02*
X153774300Y-89111400D01*
X147193000Y-117804700D02*
X147193000Y-117080000D01*
X147193000Y-117080000D02*
X149098000Y-115175000D01*
X163703000Y-108380000D02*
X164903300Y-108380000D01*
X147193000Y-117804700D02*
X145923000Y-117804700D01*
X144890700Y-115637600D02*
X145923000Y-116669900D01*
X145923000Y-116669900D02*
X145923000Y-117804700D01*
X144890700Y-115637600D02*
X145923000Y-114605300D01*
X136398000Y-115175000D02*
X136860600Y-115637600D01*
X136860600Y-115637600D02*
X144890700Y-115637600D01*
X145923000Y-113505000D02*
X145923000Y-114605300D01*
X134493000Y-115811600D02*
X135761400Y-115811600D01*
X135761400Y-115811600D02*
X136398000Y-115175000D01*
X174647000Y-87624600D02*
X175342600Y-87624600D01*
X175342600Y-87624600D02*
X175705300Y-87261900D01*
X175705300Y-87261900D02*
X175705300Y-85803300D01*
X175705300Y-85803300D02*
X174879000Y-84977000D01*
X168783000Y-86985300D02*
X169422300Y-87624600D01*
X169422300Y-87624600D02*
X174647000Y-87624600D01*
X168783000Y-85885000D02*
X168783000Y-86985300D01*
X123982800Y-115175000D02*
X123982800Y-118892900D01*
X123982800Y-118892900D02*
X127658900Y-122569000D01*
X127658900Y-122569000D02*
X128245000Y-122569000D01*
X133223000Y-114605300D02*
X133223000Y-114605400D01*
X133223000Y-114605400D02*
X124552400Y-114605400D01*
X124552400Y-114605400D02*
X123982800Y-115175000D01*
X123982800Y-115175000D02*
X123698000Y-115175000D01*
X134493000Y-115811600D02*
X133286700Y-114605300D01*
X133286700Y-114605300D02*
X133223000Y-114605300D01*
X134493000Y-117804700D02*
X134493000Y-115811600D01*
X126155800Y-108956300D02*
X128143000Y-108956300D01*
X125603000Y-108403500D02*
X126155800Y-108956300D01*
X126155800Y-108956300D02*
X122830100Y-112282000D01*
X122830100Y-112282000D02*
X122830100Y-114307100D01*
X122830100Y-114307100D02*
X123698000Y-115175000D01*
X133223000Y-113505000D02*
X133223000Y-114605300D01*
X130556000Y-121956500D02*
X129943500Y-122569000D01*
X129943500Y-122569000D02*
X128245000Y-122569000D01*
X125603000Y-93269300D02*
X123777300Y-93269300D01*
X123777300Y-93269300D02*
X123698000Y-93190000D01*
X126873000Y-92634300D02*
X126238000Y-93269300D01*
X126238000Y-93269300D02*
X125603000Y-93269300D01*
X125603000Y-93269300D02*
X125603000Y-96934000D01*
X126873000Y-102456000D02*
X126873000Y-103556300D01*
X125603000Y-104126000D02*
X123698000Y-104126000D01*
X126873000Y-103556300D02*
X126172700Y-103556300D01*
X126172700Y-103556300D02*
X125603000Y-104126000D01*
X125603000Y-106755700D02*
X125603000Y-104126000D01*
X128143000Y-107856000D02*
X128143000Y-108956300D01*
X126873000Y-102456000D02*
X126873000Y-101355700D01*
X126873000Y-101355700D02*
X125603000Y-100085700D01*
X125603000Y-100085700D02*
X125603000Y-96934000D01*
X125603000Y-107856000D02*
X125603000Y-106755700D01*
X125603000Y-107865900D02*
X125603000Y-107856000D01*
X125603000Y-107865900D02*
X125603000Y-108403500D01*
X125578000Y-86160000D02*
X123698000Y-84280000D01*
X123698000Y-84280000D02*
X123698000Y-82155000D01*
X125578000Y-86160000D02*
X125578000Y-86435100D01*
X125578000Y-85885000D02*
X125578000Y-86160000D01*
X128143000Y-107856000D02*
X128143000Y-106755700D01*
X128143000Y-106755700D02*
X129413000Y-105485700D01*
X129413000Y-105485700D02*
X129413000Y-102456000D01*
X128143000Y-96934000D02*
X128143000Y-98034300D01*
X135356700Y-82626000D02*
X135818700Y-83088000D01*
X135818700Y-83088000D02*
X136031200Y-83088000D01*
X128118000Y-86985300D02*
X126848000Y-86985300D01*
X129388000Y-86985300D02*
X128118000Y-86985300D01*
X128118000Y-86160000D02*
X128118000Y-86985300D01*
X126873000Y-91534000D02*
X126873000Y-90433700D01*
X125578000Y-86435100D02*
X126128200Y-86985300D01*
X126128200Y-86985300D02*
X126848000Y-86985300D01*
X126848000Y-85885000D02*
X126848000Y-86985300D01*
X133198000Y-84784700D02*
X129388000Y-84784700D01*
X135356700Y-82626000D02*
X133198000Y-84784700D01*
X129388000Y-85885000D02*
X129388000Y-84784700D01*
X129388000Y-85885000D02*
X129388000Y-86985300D01*
X128118000Y-85885000D02*
X128118000Y-86160000D01*
X135356700Y-82626000D02*
X135128000Y-82397300D01*
X135128000Y-82397300D02*
X135128000Y-82155000D01*
X126873000Y-91534000D02*
X126873000Y-92634300D01*
X158623000Y-118905000D02*
X158623000Y-120005300D01*
X154178000Y-123825000D02*
X155391900Y-123825000D01*
X155391900Y-123825000D02*
X155391900Y-123236400D01*
X155391900Y-123236400D02*
X158623000Y-120005300D01*
X177419000Y-109222100D02*
X171130000Y-109222100D01*
X171130000Y-109222100D02*
X170688000Y-108780100D01*
X177419000Y-106567000D02*
X178268100Y-107416100D01*
X178268100Y-107416100D02*
X178268100Y-108903700D01*
X178268100Y-108903700D02*
X177949700Y-109222100D01*
X177949700Y-109222100D02*
X177419000Y-109222100D01*
X177419000Y-109222100D02*
X177419000Y-111901000D01*
X177419000Y-111901000D02*
X178251500Y-112733500D01*
X178251500Y-112733500D02*
X178251500Y-114186000D01*
X178251500Y-114186000D02*
X176925400Y-115512100D01*
X176925400Y-115512100D02*
X174885600Y-115512100D01*
X174885600Y-115512100D02*
X172593000Y-117804700D01*
X172593000Y-118905000D02*
X172593000Y-117804700D01*
X147193000Y-118905000D02*
X147193000Y-117804700D01*
X145923000Y-118905000D02*
X145923000Y-117804700D01*
X134493000Y-118905000D02*
X134493000Y-117804700D01*
X133223000Y-118354800D02*
X133773100Y-117804700D01*
X133773100Y-117804700D02*
X134493000Y-117804700D01*
X133223000Y-118905000D02*
X133223000Y-118354800D01*
X174879000Y-79770000D02*
X175722100Y-80613100D01*
X175722100Y-80613100D02*
X175722100Y-84133900D01*
X175722100Y-84133900D02*
X174879000Y-84977000D01*
X145923000Y-86310100D02*
X145078100Y-86310100D01*
X145078100Y-86310100D02*
X144653000Y-85885000D01*
X145923000Y-85885000D02*
X145923000Y-86310100D01*
X170688000Y-108780100D02*
X165303400Y-108780100D01*
X165303400Y-108780100D02*
X164903300Y-108380000D01*
X170688000Y-108380000D02*
X170688000Y-108780100D01*
X158383000Y-90805000D02*
X158383000Y-93345000D01*
X158623000Y-118905000D02*
X159893000Y-118905000D01*
X134493000Y-107856000D02*
X134493000Y-106755700D01*
X137246600Y-106503600D02*
X138303000Y-107560000D01*
X138303000Y-101845000D02*
X137246600Y-102901400D01*
X137246600Y-102901400D02*
X137246600Y-106503600D01*
X134493000Y-106755700D02*
X136994500Y-106755700D01*
X136994500Y-106755700D02*
X137246600Y-106503600D01*
X137189400Y-100792300D02*
X137250300Y-100792300D01*
X137250300Y-100792300D02*
X138303000Y-101845000D01*
X133198000Y-85885000D02*
X133198000Y-84784700D01*
X129413000Y-102456000D02*
X129413000Y-101355700D01*
X140208000Y-98665000D02*
X142813300Y-98665000D01*
X142813300Y-98665000D02*
X143383000Y-98095300D01*
X143383000Y-96995000D02*
X143383000Y-98095300D01*
X158383000Y-95885000D02*
X158383000Y-98425000D01*
X149733000Y-102395000D02*
X149733000Y-103495300D01*
X149733000Y-103495300D02*
X150485300Y-103495300D01*
X150485300Y-103495300D02*
X151511000Y-104521000D01*
X158383000Y-93345000D02*
X158383000Y-95885000D01*
%TO.N,VCC*%
X141354000Y-95894700D02*
X141228300Y-95894700D01*
X141228300Y-95894700D02*
X140208000Y-96915000D01*
X142113000Y-95894700D02*
X141354000Y-95894700D01*
X141354000Y-95894700D02*
X141354000Y-95849300D01*
X142113000Y-96995000D02*
X142113000Y-95894700D01*
X124813500Y-101260500D02*
X124908600Y-101355700D01*
X124908600Y-101355700D02*
X125603000Y-101355700D01*
X123698000Y-91440000D02*
X122830100Y-92307900D01*
X122830100Y-92307900D02*
X122830100Y-99277200D01*
X122830100Y-99277200D02*
X124813500Y-101260500D01*
X123698000Y-102376000D02*
X124813500Y-101260500D01*
X125603000Y-113149100D02*
X125603000Y-113144300D01*
X125603000Y-113144300D02*
X126611500Y-112135800D01*
X137033000Y-81585300D02*
X138246100Y-82798400D01*
X138246100Y-82798400D02*
X145434600Y-82798400D01*
X145434600Y-82798400D02*
X147828000Y-80405000D01*
X130556000Y-124931500D02*
X128857500Y-124931500D01*
X128857500Y-124931500D02*
X128245000Y-124319000D01*
X133546700Y-124931500D02*
X130556000Y-124931500D01*
X163703000Y-86435100D02*
X162433000Y-86435100D01*
X163703000Y-86160000D02*
X163703000Y-86435100D01*
X171734500Y-90805000D02*
X168072900Y-90805000D01*
X168072900Y-90805000D02*
X163703000Y-86435100D01*
X171734500Y-90805000D02*
X171734500Y-91581200D01*
X171734500Y-91581200D02*
X172598000Y-92444700D01*
X163703000Y-85885000D02*
X163703000Y-86160000D01*
X149098000Y-113425000D02*
X147656500Y-114866500D01*
X147656500Y-114866500D02*
X147094100Y-114866500D01*
X138303000Y-114605300D02*
X138584900Y-114887200D01*
X138584900Y-114887200D02*
X139170100Y-114887200D01*
X151003000Y-113505000D02*
X149178000Y-113505000D01*
X149178000Y-113505000D02*
X149098000Y-113425000D01*
X123870000Y-80576900D02*
X123698000Y-80405000D01*
X125578000Y-80746000D02*
X124039000Y-80746000D01*
X124039000Y-80746000D02*
X123870000Y-80576900D01*
X123698000Y-91440000D02*
X122830100Y-90572100D01*
X122830100Y-90572100D02*
X122830100Y-81616800D01*
X122830100Y-81616800D02*
X123870000Y-80576900D01*
X125578000Y-80746000D02*
X125578000Y-81007000D01*
X125578000Y-80485000D02*
X125578000Y-80746000D01*
X125603000Y-102456000D02*
X125603000Y-101355700D01*
X125603000Y-92049000D02*
X124307000Y-92049000D01*
X124307000Y-92049000D02*
X123698000Y-91440000D01*
X125603000Y-113149100D02*
X123973900Y-113149100D01*
X123973900Y-113149100D02*
X123698000Y-113425000D01*
X125603000Y-113505000D02*
X125603000Y-113149100D01*
X138303000Y-113930100D02*
X136903100Y-113930100D01*
X136903100Y-113930100D02*
X136398000Y-113425000D01*
X138303000Y-113930100D02*
X138303000Y-114605300D01*
X138303000Y-113505000D02*
X138303000Y-113930100D01*
X125603000Y-91534000D02*
X125603000Y-92049000D01*
X144018000Y-110609200D02*
X144018000Y-109460000D01*
X149733000Y-81585300D02*
X150320600Y-82172900D01*
X150320600Y-82172900D02*
X150320600Y-82258900D01*
X137033000Y-80494900D02*
X136943100Y-80405000D01*
X136943100Y-80405000D02*
X135128000Y-80405000D01*
X137033000Y-80494900D02*
X137033000Y-81585300D01*
X137033000Y-80485000D02*
X137033000Y-80494900D01*
X149733000Y-81007000D02*
X148430000Y-81007000D01*
X148430000Y-81007000D02*
X147828000Y-80405000D01*
X142748000Y-91200000D02*
X142748000Y-91199100D01*
X142748000Y-91199100D02*
X143602900Y-90344200D01*
X134430000Y-123380000D02*
X133579700Y-123380000D01*
X133546700Y-124931500D02*
X133546700Y-125269500D01*
X133546700Y-125269500D02*
X133996200Y-125719000D01*
X133996200Y-125719000D02*
X166889500Y-125719000D01*
X166889500Y-125719000D02*
X168148000Y-124460500D01*
X168148000Y-124460500D02*
X168148000Y-123198000D01*
X168148000Y-123198000D02*
X171323000Y-120023000D01*
X171323000Y-120023000D02*
X171323000Y-118905000D01*
X133579700Y-123380000D02*
X133579700Y-124898500D01*
X133579700Y-124898500D02*
X133546700Y-124931500D01*
X162433000Y-86087800D02*
X162433000Y-86435100D01*
X162433000Y-85885000D02*
X162433000Y-86087800D01*
X161163000Y-86087800D02*
X161163000Y-86290600D01*
X161163000Y-85885000D02*
X161163000Y-86087800D01*
X161163000Y-86087800D02*
X162433000Y-86087800D01*
X160234300Y-86290600D02*
X161163000Y-86290600D01*
X130658000Y-81585300D02*
X134278300Y-81585300D01*
X134278300Y-81585300D02*
X135128000Y-80735600D01*
X135128000Y-80735600D02*
X135128000Y-80405000D01*
X159258000Y-80485000D02*
X159258000Y-80564500D01*
X159258000Y-80564500D02*
X158147200Y-81675300D01*
X159258000Y-80485000D02*
X159258000Y-80405000D01*
X159258000Y-80485000D02*
X161163000Y-80485000D01*
X125578000Y-81007000D02*
X126156300Y-81585300D01*
X126156300Y-81585300D02*
X130658000Y-81585300D01*
X171323000Y-114605300D02*
X164453900Y-114605300D01*
X164453900Y-114605300D02*
X163703000Y-113854400D01*
X163703000Y-113854400D02*
X163703000Y-113778100D01*
X163703000Y-113778100D02*
X162151100Y-113778100D01*
X162151100Y-113778100D02*
X161798000Y-113425000D01*
X171323000Y-114605300D02*
X171323000Y-118905000D01*
X163703000Y-113505000D02*
X163703000Y-113778100D01*
X130658000Y-80485000D02*
X130658000Y-81585300D01*
X172598000Y-93345000D02*
X172598000Y-92444700D01*
X172598000Y-90805000D02*
X171734500Y-90805000D01*
X149733000Y-81007000D02*
X149733000Y-81585300D01*
X149733000Y-80485000D02*
X149733000Y-81007000D01*
X171323000Y-113505000D02*
X171323000Y-114605300D01*
X172598000Y-98425000D02*
X172598000Y-96785300D01*
X172598000Y-95885000D02*
X172598000Y-96785300D01*
X172598000Y-93345000D02*
X172598000Y-95885000D01*
D21*
%TO.N,Net-(C2-Pad1)*%
X138303000Y-103895000D02*
X139239700Y-102958300D01*
X139239700Y-102958300D02*
X139399300Y-102958300D01*
X139225100Y-91768300D02*
X139793400Y-91200000D01*
X139793400Y-91200000D02*
X140208000Y-91200000D01*
X138303000Y-103895000D02*
X140554300Y-106146300D01*
X140554300Y-106146300D02*
X140554300Y-108536300D01*
X140554300Y-108536300D02*
X141478000Y-109460000D01*
%TO.N,Net-(C3-Pad1)*%
X149098000Y-109460000D02*
X146558000Y-109460000D01*
X138303000Y-109610000D02*
X139021000Y-110328000D01*
X139021000Y-110328000D02*
X141910700Y-110328000D01*
X141910700Y-110328000D02*
X142504200Y-109734500D01*
X142504200Y-109734500D02*
X142504200Y-109649600D01*
X142504200Y-109649600D02*
X143532000Y-108621800D01*
X143532000Y-108621800D02*
X145719800Y-108621800D01*
X145719800Y-108621800D02*
X146558000Y-109460000D01*
%TO.N,Net-(C4-Pad2)*%
X155203000Y-97155000D02*
X155203000Y-92846000D01*
X155203000Y-92846000D02*
X154178000Y-91821000D01*
X154178000Y-91821000D02*
X153377700Y-91821000D01*
X153377700Y-91821000D02*
X153172400Y-92026300D01*
X153172400Y-92026300D02*
X148654300Y-92026300D01*
X148654300Y-92026300D02*
X147828000Y-91200000D01*
%TO.N,Net-(C4-Pad1)*%
X147193000Y-95944700D02*
X151396400Y-95944700D01*
X151396400Y-95944700D02*
X152606700Y-97155000D01*
X152606700Y-97155000D02*
X153153000Y-97155000D01*
X147193000Y-96995000D02*
X147193000Y-95944700D01*
X153153000Y-97155000D02*
X153153000Y-97225800D01*
X153153000Y-97225800D02*
X155912000Y-99984800D01*
X155912000Y-99984800D02*
X159152800Y-99984800D01*
X159152800Y-99984800D02*
X160133000Y-100965000D01*
%TO.N,Net-(D1-Pad2)*%
X177419000Y-97649000D02*
X173968600Y-101099400D01*
X173968600Y-101099400D02*
X164449400Y-101099400D01*
X164449400Y-101099400D02*
X160439100Y-105109700D01*
X160439100Y-105109700D02*
X154971800Y-105109700D01*
X154971800Y-105109700D02*
X152371500Y-107710000D01*
X152371500Y-107710000D02*
X151638000Y-107710000D01*
%TO.N,Net-(D2-Pad2)*%
X177419000Y-102983000D02*
X163486800Y-102983000D01*
X163486800Y-102983000D02*
X160860300Y-105609500D01*
X160860300Y-105609500D02*
X156278500Y-105609500D01*
X156278500Y-105609500D02*
X154178000Y-107710000D01*
%TO.N,Net-(D3-Pad2)*%
X156718000Y-107710000D02*
X157552800Y-106875200D01*
X157552800Y-106875200D02*
X161434800Y-106875200D01*
X161434800Y-106875200D02*
X162189200Y-107629600D01*
X162189200Y-107629600D02*
X176731600Y-107629600D01*
X176731600Y-107629600D02*
X177419000Y-108317000D01*
%TO.N,Net-(D4-Pad2)*%
X177419000Y-113651000D02*
X173533400Y-109765400D01*
X173533400Y-109765400D02*
X161313400Y-109765400D01*
X161313400Y-109765400D02*
X159258000Y-107710000D01*
D20*
%TO.N,+3V3*%
X146558000Y-123825000D02*
X145344100Y-123825000D01*
X145344100Y-123825000D02*
X145344100Y-123218100D01*
X145344100Y-123218100D02*
X144236000Y-122110000D01*
X144236000Y-122110000D02*
X134430000Y-122110000D01*
%TO.N,+5V*%
X134430000Y-124650000D02*
X135280300Y-124650000D01*
X149098000Y-123825000D02*
X147884100Y-123825000D01*
X147884100Y-123825000D02*
X147884100Y-124431900D01*
X147884100Y-124431900D02*
X147103500Y-125212500D01*
X147103500Y-125212500D02*
X135842800Y-125212500D01*
X135842800Y-125212500D02*
X135280300Y-124650000D01*
D21*
%TO.N,ROM_A2*%
X168783000Y-112454700D02*
X168971000Y-112266700D01*
X168971000Y-112266700D02*
X168971000Y-112253200D01*
X168783000Y-113505000D02*
X168783000Y-112454700D01*
%TO.N,ROM_A3*%
X169418000Y-123825000D02*
X170581900Y-123825000D01*
X170053000Y-113505000D02*
X170053000Y-112454700D01*
X170053000Y-112454700D02*
X171779800Y-112454700D01*
X171779800Y-112454700D02*
X171923400Y-112598300D01*
X171923400Y-112598300D02*
X171923400Y-121319600D01*
X171923400Y-121319600D02*
X170581900Y-122661100D01*
X170581900Y-122661100D02*
X170581900Y-123825000D01*
%TO.N,ROM_A1*%
X167513000Y-112454700D02*
X167614900Y-112454700D01*
X167614900Y-112454700D02*
X167815100Y-112254500D01*
X167513000Y-113505000D02*
X167513000Y-112454700D01*
%TO.N,ROM_A0*%
X161798000Y-123825000D02*
X162961900Y-123825000D01*
X166243000Y-113505000D02*
X166243000Y-112454700D01*
X166243000Y-112454700D02*
X161429600Y-112454700D01*
X161429600Y-112454700D02*
X161002100Y-112882200D01*
X161002100Y-112882200D02*
X161002100Y-113962400D01*
X161002100Y-113962400D02*
X161291000Y-114251300D01*
X161291000Y-114251300D02*
X162185000Y-114251300D01*
X162185000Y-114251300D02*
X163206100Y-115272400D01*
X163206100Y-115272400D02*
X168063600Y-115272400D01*
X168063600Y-115272400D02*
X170653400Y-117862200D01*
X170653400Y-117862200D02*
X170653400Y-119830400D01*
X170653400Y-119830400D02*
X168979300Y-121504500D01*
X168979300Y-121504500D02*
X164806400Y-121504500D01*
X164806400Y-121504500D02*
X162961900Y-123349000D01*
X162961900Y-123349000D02*
X162961900Y-123825000D01*
%TO.N,ROM_D7*%
X154813000Y-81535300D02*
X154813000Y-81541600D01*
X154813000Y-81541600D02*
X156910600Y-83639200D01*
X156910600Y-83639200D02*
X160769600Y-83639200D01*
X160769600Y-83639200D02*
X163068000Y-81340800D01*
X163068000Y-81340800D02*
X163068000Y-79432100D01*
X163068000Y-79432100D02*
X163508400Y-78991700D01*
X163508400Y-78991700D02*
X165800000Y-78991700D01*
X165800000Y-78991700D02*
X166243000Y-79434700D01*
X154813000Y-80485000D02*
X154813000Y-79434700D01*
X152603500Y-77518900D02*
X154519300Y-79434700D01*
X154519300Y-79434700D02*
X154813000Y-79434700D01*
X145034000Y-75565000D02*
X146197900Y-75565000D01*
X149733000Y-84834700D02*
X151020900Y-83546800D01*
X151020900Y-83546800D02*
X151020900Y-81553200D01*
X151020900Y-81553200D02*
X151003000Y-81535300D01*
X151003000Y-80485000D02*
X151003000Y-81535300D01*
X149733000Y-85885000D02*
X149733000Y-84834700D01*
X166243000Y-80485000D02*
X166243000Y-79434700D01*
X154813000Y-80485000D02*
X154813000Y-81535300D01*
X151003000Y-79959800D02*
X151003000Y-79434700D01*
X151003000Y-80485000D02*
X151003000Y-80018200D01*
X151003000Y-79959800D02*
X151003000Y-80018200D01*
X166243000Y-85885000D02*
X166243000Y-80485000D01*
X151003000Y-79434700D02*
X149644000Y-79434700D01*
X149644000Y-79434700D02*
X146197900Y-75988600D01*
X146197900Y-75988600D02*
X146197900Y-75565000D01*
%TO.N,ROM_D6*%
X156094500Y-79423200D02*
X162421500Y-79423200D01*
X162421500Y-79423200D02*
X162433000Y-79434700D01*
X156083000Y-79434700D02*
X156094500Y-79423200D01*
X156094500Y-79423200D02*
X156094500Y-77206100D01*
X156094500Y-77206100D02*
X153121400Y-74233000D01*
X153121400Y-74233000D02*
X149593900Y-74233000D01*
X149593900Y-74233000D02*
X148737900Y-75089000D01*
X148737900Y-75089000D02*
X148737900Y-75565000D01*
X147574000Y-75565000D02*
X148737900Y-75565000D01*
X162433000Y-79434700D02*
X163291200Y-78576500D01*
X163291200Y-78576500D02*
X166654800Y-78576500D01*
X166654800Y-78576500D02*
X167513000Y-79434700D01*
X167513000Y-80485000D02*
X167513000Y-79434700D01*
X162433000Y-80485000D02*
X162433000Y-79434700D01*
X156083000Y-80485000D02*
X156083000Y-79434700D01*
%TO.N,ROM_D5*%
X126873000Y-95883700D02*
X127313400Y-95883700D01*
X127313400Y-95883700D02*
X128726800Y-94470300D01*
X126873000Y-96934000D02*
X126873000Y-95883700D01*
X126873000Y-106805700D02*
X128753000Y-104925700D01*
X128753000Y-104925700D02*
X128753000Y-100043200D01*
X128753000Y-100043200D02*
X126873000Y-98163200D01*
X126873000Y-98163200D02*
X126873000Y-96934000D01*
X126873000Y-107856000D02*
X126873000Y-106805700D01*
%TO.N,ROM_D4*%
X152654000Y-75565000D02*
X151490100Y-75565000D01*
X151490100Y-75565000D02*
X151490100Y-76199500D01*
X151490100Y-76199500D02*
X151652700Y-76362100D01*
X151652700Y-76362100D02*
X151652700Y-84405300D01*
X151652700Y-84405300D02*
X154383600Y-84405300D01*
X154383600Y-84405300D02*
X154813000Y-84834700D01*
X151003000Y-84834700D02*
X151432400Y-84405300D01*
X151432400Y-84405300D02*
X151652700Y-84405300D01*
X154813000Y-85885000D02*
X154813000Y-84834700D01*
X151003000Y-85885000D02*
X151003000Y-84834700D01*
%TO.N,ROM_D3*%
X143383000Y-81535300D02*
X145338000Y-81535300D01*
X145338000Y-81535300D02*
X145547200Y-81744500D01*
X143383000Y-80485000D02*
X143383000Y-81535300D01*
%TO.N,ROM_D2*%
X138303000Y-79434700D02*
X140013800Y-79434700D01*
X140013800Y-79434700D02*
X140202800Y-79623700D01*
X140202800Y-79623700D02*
X140202800Y-81657300D01*
X140202800Y-81657300D02*
X140202900Y-81657300D01*
X138303000Y-80485000D02*
X138303000Y-79434700D01*
%TO.N,ROM_D1*%
X138303000Y-85885000D02*
X138303000Y-86935300D01*
X138303000Y-86935300D02*
X138792300Y-87424600D01*
X138792300Y-87424600D02*
X138792300Y-87700000D01*
%TO.N,ROM_D0*%
X143383000Y-86935300D02*
X144300500Y-86935300D01*
X144300500Y-86935300D02*
X144509200Y-87144000D01*
X143383000Y-85885000D02*
X143383000Y-86935300D01*
%TO.N,/3(\u002A\u002A)*%
X139573000Y-119955300D02*
X138772400Y-120755900D01*
X138772400Y-120755900D02*
X127673600Y-120755900D01*
X127673600Y-120755900D02*
X126873000Y-119955300D01*
X126873000Y-118905000D02*
X126873000Y-119955300D01*
X139573000Y-119955300D02*
X141174600Y-121556900D01*
X141174600Y-121556900D02*
X150967000Y-121556900D01*
X150967000Y-121556900D02*
X152324800Y-120199100D01*
X152324800Y-120199100D02*
X152324800Y-120007100D01*
X152324800Y-120007100D02*
X152273000Y-119955300D01*
X160705000Y-117854600D02*
X158141400Y-117854600D01*
X158141400Y-117854600D02*
X158022600Y-117973400D01*
X158022600Y-117973400D02*
X158022600Y-119779400D01*
X158022600Y-119779400D02*
X157432100Y-120369900D01*
X157432100Y-120369900D02*
X152495600Y-120369900D01*
X152495600Y-120369900D02*
X152324800Y-120199100D01*
X139573000Y-118905000D02*
X139573000Y-119955300D01*
X152273000Y-118905000D02*
X152273000Y-119955300D01*
X164973000Y-118905000D02*
X164973000Y-118669800D01*
X164973000Y-118669800D02*
X164157800Y-117854600D01*
X164157800Y-117854600D02*
X160705000Y-117854600D01*
X160705000Y-117854600D02*
X160705000Y-118015800D01*
X166878000Y-75565000D02*
X165714100Y-75565000D01*
X165714100Y-75565000D02*
X165714100Y-75128500D01*
X165714100Y-75128500D02*
X164418200Y-73832600D01*
X164418200Y-73832600D02*
X132260800Y-73832600D01*
X132260800Y-73832600D02*
X130978400Y-75115000D01*
X130978400Y-75115000D02*
X130978400Y-76221800D01*
X130978400Y-76221800D02*
X130181300Y-77018900D01*
X130181300Y-77018900D02*
X129140300Y-77018900D01*
X129140300Y-77018900D02*
X128118000Y-78041200D01*
X128118000Y-78041200D02*
X128118000Y-80485000D01*
X171882000Y-84977000D02*
X169553300Y-82648300D01*
X169553300Y-82648300D02*
X169553300Y-78240300D01*
X169553300Y-78240300D02*
X166878000Y-75565000D01*
%TO.N,/2*%
X125603000Y-118905000D02*
X125603000Y-117854700D01*
X138303000Y-118810500D02*
X136757900Y-120355600D01*
X136757900Y-120355600D02*
X128090100Y-120355600D01*
X128090100Y-120355600D02*
X127542600Y-119808100D01*
X127542600Y-119808100D02*
X127542600Y-118059300D01*
X127542600Y-118059300D02*
X127338000Y-117854700D01*
X127338000Y-117854700D02*
X125603000Y-117854700D01*
X138303000Y-118810500D02*
X138303000Y-118527200D01*
X138303000Y-118905000D02*
X138303000Y-118810500D01*
X138303000Y-118527200D02*
X138975600Y-117854600D01*
X138975600Y-117854600D02*
X140023700Y-117854600D01*
X140023700Y-117854600D02*
X140208000Y-118038900D01*
X140208000Y-118038900D02*
X140208000Y-119955800D01*
X140208000Y-119955800D02*
X141408800Y-121156600D01*
X141408800Y-121156600D02*
X149801700Y-121156600D01*
X149801700Y-121156600D02*
X151003000Y-119955300D01*
X151003000Y-118905000D02*
X151003000Y-119955300D01*
X151525700Y-120149200D02*
X151331800Y-119955300D01*
X151331800Y-119955300D02*
X151003000Y-119955300D01*
X163703000Y-119955300D02*
X160878200Y-119955300D01*
X160878200Y-119955300D02*
X160698900Y-119776000D01*
X163703000Y-118905000D02*
X163703000Y-119955300D01*
X149733000Y-98045300D02*
X152004500Y-98045300D01*
X149733000Y-96995000D02*
X149733000Y-98045300D01*
X168254100Y-75565000D02*
X168254100Y-75128500D01*
X168254100Y-75128500D02*
X166557900Y-73432300D01*
X166557900Y-73432300D02*
X130117000Y-73432300D01*
X130117000Y-73432300D02*
X128630000Y-74919300D01*
X128630000Y-74919300D02*
X128630000Y-76785000D01*
X128630000Y-76785000D02*
X126848000Y-78567000D01*
X126848000Y-78567000D02*
X126848000Y-80485000D01*
X169418000Y-75565000D02*
X168254100Y-75565000D01*
X169418000Y-75565000D02*
X169418000Y-77306000D01*
X169418000Y-77306000D02*
X171882000Y-79770000D01*
%TO.N,/OUT1*%
X150572300Y-111379000D02*
X150572300Y-110525700D01*
X150572300Y-110525700D02*
X151638000Y-109460000D01*
X153543000Y-114555300D02*
X151807800Y-114555300D01*
X151807800Y-114555300D02*
X151672600Y-114420100D01*
X151672600Y-114420100D02*
X151672600Y-112479300D01*
X151672600Y-112479300D02*
X150572300Y-111379000D01*
X150572300Y-111379000D02*
X149733000Y-111379000D01*
X153543000Y-113505000D02*
X153543000Y-114555300D01*
%TO.N,/OUT2*%
X154813000Y-113505000D02*
X154813000Y-112454700D01*
X154813000Y-112454700D02*
X153348700Y-112454700D01*
X153348700Y-112454700D02*
X152273000Y-111379000D01*
X152273000Y-111379000D02*
X154178000Y-109474000D01*
X154178000Y-109474000D02*
X154178000Y-109460000D01*
%TO.N,/OUT3*%
X156083000Y-113505000D02*
X156083000Y-112454700D01*
X156083000Y-112454700D02*
X155888700Y-112454700D01*
X155888700Y-112454700D02*
X154813000Y-111379000D01*
X154813000Y-111379000D02*
X156718000Y-109474000D01*
X156718000Y-109474000D02*
X156718000Y-109460000D01*
%TO.N,/OUT4*%
X157353000Y-111379000D02*
X159258000Y-109474000D01*
X159258000Y-109474000D02*
X159258000Y-109460000D01*
X157353000Y-113505000D02*
X157353000Y-111379000D01*
%TO.N,/IN1*%
X163698000Y-91655300D02*
X163804300Y-91655300D01*
X163804300Y-91655300D02*
X165553400Y-93404400D01*
X165553400Y-93404400D02*
X165553400Y-99497900D01*
X165553400Y-99497900D02*
X164352200Y-100699100D01*
X164352200Y-100699100D02*
X164235100Y-100699100D01*
X164235100Y-100699100D02*
X160224900Y-104709300D01*
X160224900Y-104709300D02*
X154806100Y-104709300D01*
X154806100Y-104709300D02*
X153901300Y-105614100D01*
X153901300Y-105614100D02*
X150202000Y-105614100D01*
X150202000Y-105614100D02*
X147793400Y-103205500D01*
X147793400Y-103205500D02*
X147793400Y-101441000D01*
X147793400Y-101441000D02*
X146865400Y-100513000D01*
X146865400Y-100513000D02*
X146143400Y-100513000D01*
X146143400Y-100513000D02*
X145309300Y-101347100D01*
X145309300Y-101347100D02*
X145309300Y-103213400D01*
X145309300Y-103213400D02*
X145077300Y-103445400D01*
X145077300Y-103445400D02*
X142901400Y-103445400D01*
X142901400Y-103445400D02*
X142782600Y-103326600D01*
X142782600Y-103326600D02*
X142782600Y-101544900D01*
X142782600Y-101544900D02*
X142137100Y-100899400D01*
X142137100Y-100899400D02*
X138287100Y-100899400D01*
X138287100Y-100899400D02*
X137441600Y-100053900D01*
X137441600Y-100053900D02*
X132823500Y-100053900D01*
X132823500Y-100053900D02*
X131283300Y-101594100D01*
X131283300Y-101594100D02*
X131283300Y-104935400D01*
X131283300Y-104935400D02*
X129413000Y-106805700D01*
X163698000Y-90805000D02*
X163698000Y-91655300D01*
X129413000Y-107856000D02*
X129413000Y-106805700D01*
X163698000Y-90805000D02*
X162647700Y-90805000D01*
X160133000Y-90805000D02*
X162647700Y-90805000D01*
%TO.N,/IN2*%
X130683000Y-101405700D02*
X132435100Y-99653600D01*
X132435100Y-99653600D02*
X137636000Y-99653600D01*
X137636000Y-99653600D02*
X137766400Y-99784000D01*
X137766400Y-99784000D02*
X143811500Y-99784000D01*
X143811500Y-99784000D02*
X143901400Y-99694100D01*
X143901400Y-99694100D02*
X154359400Y-99694100D01*
X154359400Y-99694100D02*
X155082400Y-100417100D01*
X155082400Y-100417100D02*
X155082400Y-100983200D01*
X155082400Y-100983200D02*
X156245500Y-102146300D01*
X156245500Y-102146300D02*
X161493000Y-102146300D01*
X161493000Y-102146300D02*
X163340500Y-100298800D01*
X163340500Y-100298800D02*
X164186400Y-100298800D01*
X164186400Y-100298800D02*
X165153100Y-99332100D01*
X165153100Y-99332100D02*
X165153100Y-95544100D01*
X165153100Y-95544100D02*
X163804300Y-94195300D01*
X163804300Y-94195300D02*
X163698000Y-94195300D01*
X163698000Y-93345000D02*
X163698000Y-94195300D01*
X130683000Y-102456000D02*
X130683000Y-101405700D01*
X163172900Y-93345000D02*
X163698000Y-93345000D01*
X163172900Y-93345000D02*
X162647700Y-93345000D01*
X160133000Y-93345000D02*
X162647700Y-93345000D01*
%TO.N,/IN3*%
X160133000Y-95885000D02*
X163698000Y-95885000D01*
X163698000Y-95885000D02*
X163698000Y-96735300D01*
X129413000Y-95883700D02*
X130224400Y-95072300D01*
X130224400Y-95072300D02*
X142267800Y-95072300D01*
X142267800Y-95072300D02*
X143006300Y-95810800D01*
X143006300Y-95810800D02*
X145012800Y-95810800D01*
X145012800Y-95810800D02*
X145322600Y-96120600D01*
X145322600Y-96120600D02*
X145322600Y-98061200D01*
X145322600Y-98061200D02*
X146505900Y-99244500D01*
X146505900Y-99244500D02*
X154476200Y-99244500D01*
X154476200Y-99244500D02*
X155624400Y-100392700D01*
X155624400Y-100392700D02*
X155624400Y-100959100D01*
X155624400Y-100959100D02*
X156411300Y-101746000D01*
X156411300Y-101746000D02*
X161127300Y-101746000D01*
X161127300Y-101746000D02*
X163116500Y-99756800D01*
X163116500Y-99756800D02*
X164091500Y-99756800D01*
X164091500Y-99756800D02*
X164752800Y-99095500D01*
X164752800Y-99095500D02*
X164752800Y-97683800D01*
X164752800Y-97683800D02*
X163804300Y-96735300D01*
X163804300Y-96735300D02*
X163698000Y-96735300D01*
X129413000Y-96934000D02*
X129413000Y-95883700D01*
%TO.N,/IN4*%
X130683000Y-92584300D02*
X132770700Y-94672000D01*
X132770700Y-94672000D02*
X143337800Y-94672000D01*
X143337800Y-94672000D02*
X144076300Y-95410500D01*
X144076300Y-95410500D02*
X151428300Y-95410500D01*
X151428300Y-95410500D02*
X152169400Y-96151600D01*
X152169400Y-96151600D02*
X153731200Y-96151600D01*
X153731200Y-96151600D02*
X154177900Y-96598300D01*
X154177900Y-96598300D02*
X154177900Y-97684600D01*
X154177900Y-97684600D02*
X155701300Y-99208000D01*
X155701300Y-99208000D02*
X159350000Y-99208000D01*
X159350000Y-99208000D02*
X160133000Y-98425000D01*
X130683000Y-91534000D02*
X130683000Y-92584300D01*
X160133000Y-98425000D02*
X162647700Y-98425000D01*
X163698000Y-98425000D02*
X162647700Y-98425000D01*
%TO.N,Net-(R10-Pad2)*%
X142748000Y-92950000D02*
X144748700Y-94950700D01*
X144748700Y-94950700D02*
X152141800Y-94950700D01*
X152141800Y-94950700D02*
X152742400Y-95551300D01*
X140208000Y-92950000D02*
X142748000Y-92950000D01*
X156537400Y-106215500D02*
X156686900Y-106066000D01*
X156686900Y-106066000D02*
X161134600Y-106066000D01*
X161134600Y-106066000D02*
X162220600Y-104980000D01*
X162220600Y-104980000D02*
X163703000Y-104980000D01*
%TO.N,Net-(R11-Pad2)*%
X146558000Y-107710000D02*
X147433000Y-108585000D01*
X147433000Y-108585000D02*
X154632200Y-108585000D01*
X154632200Y-108585000D02*
X155714300Y-107502900D01*
X155714300Y-107502900D02*
X155714300Y-107425400D01*
X155714300Y-107425400D02*
X156301300Y-106838400D01*
X156301300Y-106838400D02*
X156933600Y-106838400D01*
X156933600Y-106838400D02*
X157305600Y-106466400D01*
X157305600Y-106466400D02*
X161865500Y-106466400D01*
X161865500Y-106466400D02*
X162601600Y-105730300D01*
X162601600Y-105730300D02*
X170688000Y-105730300D01*
X144018000Y-107710000D02*
X146558000Y-107710000D01*
X170688000Y-104980000D02*
X170688000Y-105730300D01*
%TO.N,Net-(R22-Pad2)*%
X142113000Y-103445300D02*
X141478000Y-104080300D01*
X141478000Y-104080300D02*
X141478000Y-107710000D01*
X142113000Y-102395000D02*
X142113000Y-103445300D01*
%TO.N,Net-(R23-Pad2)*%
X147828000Y-92950000D02*
X146835300Y-92950000D01*
X144653000Y-101344700D02*
X144705600Y-101292100D01*
X144705600Y-101292100D02*
X144705600Y-101113400D01*
X144653000Y-102395000D02*
X144653000Y-101344700D01*
%TO.N,Net-(R24-Pad2)*%
X147193000Y-103445300D02*
X147193000Y-105805000D01*
X147193000Y-105805000D02*
X149098000Y-107710000D01*
X147193000Y-102395000D02*
X147193000Y-103445300D01*
%TO.N,Net-(R25-Pad2)*%
X147126800Y-93909500D02*
X146247500Y-93909500D01*
X146247500Y-93909500D02*
X145288000Y-92950000D01*
X150368000Y-92950000D02*
X149408500Y-93909500D01*
X149408500Y-93909500D02*
X147126800Y-93909500D01*
X145923000Y-101344700D02*
X146275300Y-101344700D01*
X146275300Y-101344700D02*
X146472100Y-101147900D01*
X145923000Y-102395000D02*
X145923000Y-101344700D01*
X145923000Y-96995000D02*
X145923000Y-98045300D01*
X146472100Y-98237500D02*
X146279900Y-98045300D01*
X146279900Y-98045300D02*
X145923000Y-98045300D01*
%TO.N,Net-(R25-Pad1)*%
X154178000Y-90551000D02*
X153377700Y-90551000D01*
X150368000Y-91200000D02*
X152728700Y-91200000D01*
X152728700Y-91200000D02*
X153377700Y-90551000D01*
%TO.N,Net-(R26-Pad2)*%
X154178000Y-93091000D02*
X153377700Y-93091000D01*
X145288000Y-91200000D02*
X144505000Y-91983000D01*
X144505000Y-91983000D02*
X144505000Y-93458500D01*
X144505000Y-93458500D02*
X145596800Y-94550300D01*
X145596800Y-94550300D02*
X151918400Y-94550300D01*
X151918400Y-94550300D02*
X153377700Y-93091000D01*
%TO.N,Net-(R27-Pad2)*%
X158383000Y-103505000D02*
X154178000Y-103505000D01*
%TO.N,Net-(R27-Pad1)*%
X160133000Y-103505000D02*
X159329400Y-104308600D01*
X159329400Y-104308600D02*
X153837300Y-104308600D01*
X153837300Y-104308600D02*
X149623100Y-100094400D01*
X149623100Y-100094400D02*
X144633300Y-100094400D01*
X144633300Y-100094400D02*
X143383000Y-101344700D01*
X143383000Y-102395000D02*
X143383000Y-101344700D01*
%TO.N,Net-(R28-Pad2)*%
X158383000Y-100965000D02*
X156500300Y-100965000D01*
%TO.N,/RA1*%
X131953000Y-107856000D02*
X131953000Y-106805700D01*
X128143000Y-113505000D02*
X128143000Y-110983500D01*
X128143000Y-110983500D02*
X130073200Y-109053300D01*
X130073200Y-109053300D02*
X130073200Y-106956800D01*
X130073200Y-106956800D02*
X130224300Y-106805700D01*
X130224300Y-106805700D02*
X131953000Y-106805700D01*
%TO.N,/RA2*%
X133223000Y-103506300D02*
X133079300Y-103506300D01*
X133079300Y-103506300D02*
X132731800Y-103853800D01*
X133223000Y-102456000D02*
X133223000Y-103506300D01*
X131056900Y-110911000D02*
X130919400Y-110911000D01*
X130919400Y-110911000D02*
X129413000Y-112417400D01*
X129413000Y-112417400D02*
X129413000Y-113505000D01*
%TO.N,/RA3*%
X130683000Y-112454700D02*
X130476300Y-112248000D01*
X130476300Y-112248000D02*
X130456600Y-112248000D01*
X131953000Y-97984300D02*
X132166300Y-98197600D01*
X131953000Y-96934000D02*
X131953000Y-97984300D01*
X130683000Y-113505000D02*
X130683000Y-112454700D01*
%TO.N,/RA4*%
X133223000Y-91534000D02*
X133223000Y-92584300D01*
X133223000Y-92584300D02*
X133333300Y-92694600D01*
X133333300Y-92694600D02*
X133333300Y-92795800D01*
X131953000Y-112454700D02*
X131951500Y-112454700D01*
X131951500Y-112454700D02*
X131740700Y-112243900D01*
X131953000Y-113505000D02*
X131953000Y-112454700D01*
%TO.N,/ALU_S4*%
X144653000Y-117854700D02*
X143399400Y-116601100D01*
X143399400Y-116601100D02*
X136764700Y-116601100D01*
X136764700Y-116601100D02*
X135429500Y-117936300D01*
X135429500Y-117936300D02*
X135429500Y-119454700D01*
X135429500Y-119454700D02*
X134928900Y-119955300D01*
X134928900Y-119955300D02*
X131953000Y-119955300D01*
X131953000Y-117854700D02*
X131732100Y-117633800D01*
X131953000Y-118905000D02*
X131953000Y-117854700D01*
X168148000Y-117923600D02*
X166397300Y-116172900D01*
X166397300Y-116172900D02*
X151073000Y-116172900D01*
X151073000Y-116172900D02*
X149161300Y-118084600D01*
X149161300Y-118084600D02*
X149161300Y-118431300D01*
X149161300Y-118431300D02*
X147637300Y-119955300D01*
X147637300Y-119955300D02*
X144653000Y-119955300D01*
X131953000Y-118905000D02*
X131953000Y-119955300D01*
X144653000Y-118905000D02*
X144653000Y-117854700D01*
X144653000Y-118914900D02*
X144653000Y-118905000D01*
X144653000Y-118914900D02*
X144653000Y-119955300D01*
X157353000Y-118905000D02*
X157353000Y-117854700D01*
X168148000Y-117923600D02*
X168148000Y-119828300D01*
X168148000Y-119828300D02*
X168021000Y-119955300D01*
X168021000Y-119955300D02*
X165817400Y-119955300D01*
X165817400Y-119955300D02*
X165573400Y-119711300D01*
X165573400Y-119711300D02*
X165573400Y-117998400D01*
X165573400Y-117998400D02*
X164972600Y-117397600D01*
X164972600Y-117397600D02*
X157810100Y-117397600D01*
X157810100Y-117397600D02*
X157353000Y-117854700D01*
X170053000Y-117854700D02*
X168216900Y-117854700D01*
X168216900Y-117854700D02*
X168148000Y-117923600D01*
X170053000Y-118905000D02*
X170053000Y-117854700D01*
X144653000Y-80485000D02*
X144653000Y-78359000D01*
%TO.N,/ALU_S3*%
X143383000Y-117854700D02*
X142820500Y-117854700D01*
X142820500Y-117854700D02*
X142748000Y-117782200D01*
X143383000Y-118905000D02*
X143383000Y-117854700D01*
X130683000Y-117854700D02*
X130497000Y-117854700D01*
X130497000Y-117854700D02*
X130292200Y-117649900D01*
X130683000Y-118905000D02*
X130683000Y-117854700D01*
X168783000Y-119955300D02*
X168354800Y-120383500D01*
X168354800Y-120383500D02*
X159196300Y-120383500D01*
X168783000Y-118905000D02*
X168783000Y-119955300D01*
X156083000Y-117854700D02*
X156284200Y-117653500D01*
X156284200Y-117653500D02*
X156443600Y-117653500D01*
X156083000Y-118905000D02*
X156083000Y-117854700D01*
X140843000Y-78359000D02*
X140843000Y-80485000D01*
%TO.N,/ALU_S2*%
X129413000Y-118905000D02*
X129413000Y-117665600D01*
X129413000Y-117665600D02*
X130631700Y-116446900D01*
X130631700Y-116446900D02*
X133258600Y-116446900D01*
X142113000Y-117854700D02*
X141302200Y-117043900D01*
X141302200Y-117043900D02*
X137170800Y-117043900D01*
X137170800Y-117043900D02*
X136992200Y-117222500D01*
X142113000Y-118905000D02*
X142113000Y-117854700D01*
X142113000Y-118905000D02*
X142113000Y-119955300D01*
X154813000Y-117531500D02*
X154813000Y-117854700D01*
X167513000Y-117854700D02*
X166231600Y-116573300D01*
X166231600Y-116573300D02*
X155771200Y-116573300D01*
X155771200Y-116573300D02*
X154813000Y-117531500D01*
X142113000Y-119955300D02*
X142513300Y-120355600D01*
X142513300Y-120355600D02*
X147808100Y-120355600D01*
X147808100Y-120355600D02*
X149561700Y-118602000D01*
X149561700Y-118602000D02*
X149561700Y-118250500D01*
X149561700Y-118250500D02*
X150407700Y-117404500D01*
X150407700Y-117404500D02*
X154686000Y-117404500D01*
X154686000Y-117404500D02*
X154813000Y-117531500D01*
X167513000Y-118905000D02*
X167513000Y-117854700D01*
X154813000Y-118905000D02*
X154813000Y-117854700D01*
X137033000Y-85885000D02*
X137033000Y-88011000D01*
%TO.N,/ALU_S1*%
X137796200Y-117644500D02*
X137996500Y-117444200D01*
X137996500Y-117444200D02*
X140432500Y-117444200D01*
X140432500Y-117444200D02*
X140843000Y-117854700D01*
X128143000Y-117854700D02*
X130376900Y-115620800D01*
X130376900Y-115620800D02*
X133375900Y-115620800D01*
X140843000Y-119955300D02*
X141643600Y-120755900D01*
X141643600Y-120755900D02*
X148029600Y-120755900D01*
X148029600Y-120755900D02*
X150218900Y-118566600D01*
X150218900Y-118566600D02*
X150218900Y-118208400D01*
X150218900Y-118208400D02*
X150572600Y-117854700D01*
X150572600Y-117854700D02*
X153543000Y-117854700D01*
X140843000Y-118905000D02*
X140843000Y-117854700D01*
X140843000Y-118905000D02*
X140843000Y-119955300D01*
X166243000Y-117854700D02*
X165371600Y-116983300D01*
X165371600Y-116983300D02*
X156237000Y-116983300D01*
X156237000Y-116983300D02*
X155448000Y-117772300D01*
X155448000Y-117772300D02*
X155448000Y-119814300D01*
X155448000Y-119814300D02*
X155307000Y-119955300D01*
X155307000Y-119955300D02*
X153543000Y-119955300D01*
X153543000Y-118905000D02*
X153543000Y-117854700D01*
X153543000Y-118905000D02*
X153543000Y-119955300D01*
X166243000Y-118905000D02*
X166243000Y-117854700D01*
X128143000Y-118905000D02*
X128143000Y-117854700D01*
X140843000Y-85885000D02*
X140843000Y-88011000D01*
%TO.N,/RB1*%
X140843000Y-113505000D02*
X140843000Y-112454700D01*
X130683000Y-107856000D02*
X130683000Y-108906300D01*
X130683000Y-108906300D02*
X131152900Y-109376200D01*
X131152900Y-109376200D02*
X135216800Y-109376200D01*
X135216800Y-109376200D02*
X136972600Y-111132000D01*
X136972600Y-111132000D02*
X139520300Y-111132000D01*
X139520300Y-111132000D02*
X140843000Y-112454700D01*
%TO.N,/RB2*%
X131953000Y-103506300D02*
X131953000Y-104317400D01*
X131953000Y-104317400D02*
X132553300Y-104917700D01*
X132553300Y-104917700D02*
X132553300Y-108679000D01*
X132553300Y-108679000D02*
X132780600Y-108906300D01*
X132780600Y-108906300D02*
X135953300Y-108906300D01*
X135953300Y-108906300D02*
X137775400Y-110728400D01*
X137775400Y-110728400D02*
X140386700Y-110728400D01*
X140386700Y-110728400D02*
X142113000Y-112454700D01*
X142113000Y-113505000D02*
X142113000Y-112454700D01*
X131953000Y-102456000D02*
X131953000Y-103506300D01*
%TO.N,/RB3*%
X130683000Y-97984300D02*
X130107800Y-97984300D01*
X130107800Y-97984300D02*
X129886200Y-98205900D01*
X143383000Y-114555300D02*
X140359100Y-114555300D01*
X140359100Y-114555300D02*
X140208000Y-114404200D01*
X140208000Y-114404200D02*
X140208000Y-112578400D01*
X140208000Y-112578400D02*
X139448600Y-111819000D01*
X139448600Y-111819000D02*
X136853700Y-111819000D01*
X136853700Y-111819000D02*
X135164200Y-110129500D01*
X135164200Y-110129500D02*
X129886200Y-110129500D01*
X143383000Y-113505000D02*
X143383000Y-114555300D01*
X130683000Y-96934000D02*
X130683000Y-97984300D01*
%TO.N,/RB4*%
X140689100Y-94071600D02*
X133440300Y-94071600D01*
X133440300Y-94071600D02*
X131953000Y-92584300D01*
X131953000Y-91534000D02*
X131953000Y-92584300D01*
X144653000Y-113505000D02*
X144653000Y-112454700D01*
X144653000Y-112454700D02*
X143193400Y-112454700D01*
X143193400Y-112454700D02*
X142813700Y-112075000D01*
%TO.N,/SEL_A*%
X152273000Y-87343800D02*
X152273000Y-88011000D01*
X152273000Y-86935300D02*
X152273000Y-87343800D01*
X152273000Y-87343800D02*
X149150800Y-87343800D01*
X149150800Y-87343800D02*
X146641600Y-84834600D01*
X146641600Y-84834600D02*
X135907700Y-84834600D01*
X135907700Y-84834600D02*
X130082600Y-90659700D01*
X130082600Y-90659700D02*
X130082600Y-92352100D01*
X130082600Y-92352100D02*
X129850400Y-92584300D01*
X129850400Y-92584300D02*
X128143000Y-92584300D01*
X128143000Y-91534000D02*
X128143000Y-92584300D01*
X128143000Y-92584300D02*
X126272600Y-94454700D01*
X126272600Y-94454700D02*
X126272600Y-98694300D01*
X126272600Y-98694300D02*
X128143000Y-100564700D01*
X128143000Y-100564700D02*
X128143000Y-102456000D01*
X152273000Y-85885000D02*
X152273000Y-86935300D01*
%TO.N,Net-(U6-Pad9)*%
X134493000Y-101405700D02*
X134710200Y-101188500D01*
X134710200Y-101188500D02*
X134815700Y-101188500D01*
X139573000Y-86935300D02*
X139573000Y-86989900D01*
X139573000Y-86989900D02*
X139408900Y-87154000D01*
X134493000Y-102456000D02*
X134493000Y-101405700D01*
X139573000Y-85885000D02*
X139573000Y-86935300D01*
%TO.N,Net-(U6-Pad7)*%
X142113000Y-85885000D02*
X142113000Y-88246000D01*
X142113000Y-88246000D02*
X140083400Y-90275600D01*
X140083400Y-90275600D02*
X139817400Y-90275600D01*
X139817400Y-90275600D02*
X138424700Y-91668300D01*
X133223000Y-106805700D02*
X135262300Y-104766400D01*
X135262300Y-104766400D02*
X135958000Y-104766400D01*
X133223000Y-107856000D02*
X133223000Y-106805700D01*
%TO.N,Net-(U7-Pad9)*%
X142113000Y-81535300D02*
X141726200Y-81922100D01*
X141726200Y-81922100D02*
X141726200Y-82112800D01*
X142113000Y-80485000D02*
X142113000Y-81535300D01*
X134493000Y-90483700D02*
X136063000Y-90483700D01*
X134493000Y-91534000D02*
X134493000Y-90483700D01*
%TO.N,Net-(U7-Pad7)*%
X139573000Y-81535300D02*
X139561700Y-81546600D01*
X139561700Y-81546600D02*
X139561700Y-82148100D01*
X133994800Y-95680100D02*
X133791200Y-95883700D01*
X133791200Y-95883700D02*
X133223000Y-95883700D01*
X139573000Y-80485000D02*
X139573000Y-81535300D01*
X133223000Y-96934000D02*
X133223000Y-95883700D01*
%TO.N,Net-(U10-Pad12)*%
X152273000Y-81535300D02*
X152273000Y-82307000D01*
X152273000Y-82307000D02*
X153836100Y-83870100D01*
X153836100Y-83870100D02*
X156575400Y-83870100D01*
X156575400Y-83870100D02*
X156744800Y-84039500D01*
X156744800Y-84039500D02*
X161198800Y-84039500D01*
X161198800Y-84039500D02*
X163703000Y-81535300D01*
X152273000Y-80485000D02*
X152273000Y-81535300D01*
X163703000Y-80485000D02*
X163703000Y-81535300D01*
X164973000Y-85885000D02*
X164973000Y-84834700D01*
X163703000Y-80485000D02*
X163703000Y-79434700D01*
X163703000Y-79434700D02*
X165488100Y-79434700D01*
X165488100Y-79434700D02*
X165573300Y-79519900D01*
X165573300Y-79519900D02*
X165573300Y-84234400D01*
X165573300Y-84234400D02*
X164973000Y-84834700D01*
%TO.N,Net-(U10-Pad11)*%
X164973000Y-80485000D02*
X164973000Y-81535300D01*
X156083000Y-85885000D02*
X156083000Y-84834700D01*
X156083000Y-84834700D02*
X161673600Y-84834700D01*
X161673600Y-84834700D02*
X164973000Y-81535300D01*
%TO.N,Net-(U13-Pad6)*%
X148463000Y-101344700D02*
X148663100Y-101144600D01*
X148663100Y-101144600D02*
X148866700Y-101144600D01*
X148463000Y-98045300D02*
X148670200Y-98252500D01*
X148670200Y-98252500D02*
X148866700Y-98252500D01*
X148463000Y-96995000D02*
X148463000Y-98045300D01*
X148463000Y-102395000D02*
X148463000Y-101344700D01*
%TO.N,/ALU_C*%
X145923000Y-80485000D02*
X145923000Y-78123100D01*
X145923000Y-78123100D02*
X145069000Y-77269100D01*
X145069000Y-77269100D02*
X131001800Y-77269100D01*
X131001800Y-77269100D02*
X129937300Y-78333600D01*
X129937300Y-78333600D02*
X129362000Y-78333600D01*
X129388000Y-80485000D02*
X129388000Y-79434700D01*
X129388000Y-79434700D02*
X129362000Y-79408700D01*
X129362000Y-79408700D02*
X129362000Y-78333600D01*
%TO.N,Net-(D5-Pad2)*%
X174879000Y-81520000D02*
X171882000Y-81520000D01*
%TO.N,Net-(D6-Pad2)*%
X174879000Y-86727000D02*
X171882000Y-86727000D01*
%TO.N,/~LOAD0*%
X157353000Y-80485000D02*
X157740600Y-80485000D01*
X157740600Y-80485000D02*
X158158700Y-80066900D01*
X134493000Y-111379000D02*
X134493000Y-113505000D01*
%TO.N,/~LOAD1*%
X153543000Y-80485000D02*
X153543000Y-81535300D01*
X153543000Y-81535300D02*
X153563000Y-81555300D01*
X153563000Y-81555300D02*
X153563000Y-82748100D01*
X147193000Y-111379000D02*
X147193000Y-113505000D01*
%TO.N,/~LOAD2*%
X167295100Y-87146800D02*
X167506600Y-86935300D01*
X167506600Y-86935300D02*
X167513000Y-86935300D01*
X167513000Y-85885000D02*
X167513000Y-86935300D01*
X159893000Y-113505000D02*
X159893000Y-111379000D01*
%TO.N,/~LOAD3*%
X168903700Y-82268600D02*
X168783000Y-82147900D01*
X168783000Y-82147900D02*
X168783000Y-80485000D01*
X172593000Y-113505000D02*
X172593000Y-111379000D01*
%TO.N,/FLG_C*%
X131928000Y-80485000D02*
X131928000Y-79434700D01*
X131928000Y-79434700D02*
X131902000Y-79408700D01*
X131902000Y-79408700D02*
X131902000Y-78333600D01*
%TO.N,/~FLG_C*%
X134029900Y-80866100D02*
X133579100Y-80866100D01*
X133579100Y-80866100D02*
X133198000Y-80485000D01*
X153543000Y-84834700D02*
X151807800Y-84834700D01*
X151807800Y-84834700D02*
X151638000Y-85004500D01*
X151638000Y-85004500D02*
X151638000Y-86814600D01*
X151638000Y-86814600D02*
X151517300Y-86935300D01*
X151517300Y-86935300D02*
X149308600Y-86935300D01*
X149308600Y-86935300D02*
X146228500Y-83855200D01*
X146228500Y-83855200D02*
X135525100Y-83855200D01*
X135525100Y-83855200D02*
X135449300Y-83779400D01*
X153543000Y-85885000D02*
X153543000Y-84834700D01*
%TD*%
M02*
