%TF.GenerationSoftware,KiCad,Pcbnew,(5.1.6)-1*%
%TF.CreationDate,2020-09-08T16:49:51+09:00*%
%TF.ProjectId,td4-shield,7464342d-7368-4696-956c-642e6b696361,rev?*%
%TF.SameCoordinates,Original*%
%TF.FileFunction,Soldermask,Bot*%
%TF.FilePolarity,Negative*%
%FSLAX46Y46*%
G04 Gerber Fmt 4.6, Leading zero omitted, Abs format (unit mm)*
G04 Created by KiCad (PCBNEW (5.1.6)-1) date 2020-09-08 16:49:51*
%MOMM*%
%LPD*%
G01*
G04 APERTURE LIST*
%ADD10O,1.000000X1.000000*%
%ADD11R,1.000000X1.000000*%
%ADD12C,0.800000*%
%ADD13O,1.727200X2.032000*%
%ADD14C,4.064000*%
%ADD15C,1.500000*%
G04 APERTURE END LIST*
D10*
%TO.C,SW21*%
X154178000Y-103505000D03*
X154178000Y-102235000D03*
D11*
X154178000Y-100965000D03*
%TD*%
D10*
%TO.C,SW20*%
X154178000Y-93091000D03*
X154178000Y-91821000D03*
D11*
X154178000Y-90551000D03*
%TD*%
D12*
%TO.C,SW19*%
X170688000Y-106680000D03*
%TD*%
%TO.C,SW18*%
X163703000Y-106680000D03*
%TD*%
D10*
%TO.C,JP1*%
X134430000Y-122110000D03*
X134430000Y-123380000D03*
D11*
X134430000Y-124650000D03*
%TD*%
D13*
%TO.C,P1*%
X138938000Y-123825000D03*
X141478000Y-123825000D03*
X144018000Y-123825000D03*
X146558000Y-123825000D03*
X149098000Y-123825000D03*
X151638000Y-123825000D03*
X154178000Y-123825000D03*
X156718000Y-123825000D03*
%TD*%
%TO.C,P2*%
X161798000Y-123825000D03*
X164338000Y-123825000D03*
X166878000Y-123825000D03*
X169418000Y-123825000D03*
X171958000Y-123825000D03*
X174498000Y-123825000D03*
%TD*%
%TO.C,P3*%
X129794000Y-75565000D03*
X132334000Y-75565000D03*
X134874000Y-75565000D03*
X137414000Y-75565000D03*
X139954000Y-75565000D03*
X142494000Y-75565000D03*
X145034000Y-75565000D03*
X147574000Y-75565000D03*
X150114000Y-75565000D03*
X152654000Y-75565000D03*
%TD*%
%TO.C,P4*%
X156718000Y-75565000D03*
X159258000Y-75565000D03*
X161798000Y-75565000D03*
X164338000Y-75565000D03*
X166878000Y-75565000D03*
X169418000Y-75565000D03*
X171958000Y-75565000D03*
X174498000Y-75565000D03*
%TD*%
D14*
%TO.C,P5*%
X124968000Y-123825000D03*
%TD*%
%TO.C,P6*%
X177038000Y-118745000D03*
%TD*%
%TO.C,P7*%
X126238000Y-75565000D03*
%TD*%
%TO.C,P8*%
X177038000Y-90805000D03*
%TD*%
D15*
%TO.C,TP1*%
X140843000Y-88011000D03*
%TD*%
%TO.C,TP2*%
X137033000Y-88011000D03*
%TD*%
%TO.C,TP3*%
X140843000Y-78359000D03*
%TD*%
%TO.C,TP4*%
X144653000Y-78359000D03*
%TD*%
%TO.C,TP5*%
X129362000Y-78333600D03*
%TD*%
%TO.C,TP6*%
X131902000Y-78333600D03*
%TD*%
%TO.C,TP7*%
X134493000Y-111379000D03*
%TD*%
%TO.C,TP8*%
X147193000Y-111379000D03*
%TD*%
%TO.C,TP9*%
X159893000Y-111379000D03*
%TD*%
%TO.C,TP10*%
X172593000Y-111379000D03*
%TD*%
%TO.C,TP11*%
X152273000Y-88011000D03*
%TD*%
%TO.C,TP12*%
X150114000Y-78359000D03*
%TD*%
%TO.C,TP13*%
X149733000Y-111379000D03*
%TD*%
%TO.C,TP14*%
X152273000Y-111379000D03*
%TD*%
%TO.C,TP15*%
X154813000Y-111379000D03*
%TD*%
%TO.C,TP16*%
X157353000Y-111379000D03*
%TD*%
%TO.C,TP17*%
X151511000Y-104521000D03*
%TD*%
%TO.C,TP18*%
X138303000Y-98679000D03*
%TD*%
M02*
