%TF.GenerationSoftware,KiCad,Pcbnew,(5.1.6)-1*%
%TF.CreationDate,2020-08-20T12:39:34+09:00*%
%TF.ProjectId,td4-shield,7464342d-7368-4696-956c-642e6b696361,rev?*%
%TF.SameCoordinates,Original*%
%TF.FileFunction,Legend,Top*%
%TF.FilePolarity,Positive*%
%FSLAX46Y46*%
G04 Gerber Fmt 4.6, Leading zero omitted, Abs format (unit mm)*
G04 Created by KiCad (PCBNEW (5.1.6)-1) date 2020-08-20 12:39:34*
%MOMM*%
%LPD*%
G01*
G04 APERTURE LIST*
%ADD10C,0.100000*%
%ADD11C,0.150000*%
%ADD12C,0.120000*%
G04 APERTURE END LIST*
D10*
X136789389Y-98046636D02*
X136718678Y-98070206D01*
X136647967Y-98140917D01*
X136600827Y-98235198D01*
X136600827Y-98329478D01*
X136624397Y-98400189D01*
X136695108Y-98518040D01*
X136765818Y-98588751D01*
X136883669Y-98659462D01*
X136954380Y-98683032D01*
X137048661Y-98683032D01*
X137142942Y-98635891D01*
X137190082Y-98588751D01*
X137237223Y-98494470D01*
X137237223Y-98447330D01*
X137072231Y-98282338D01*
X136977950Y-98376619D01*
X137496495Y-98282338D02*
X137001521Y-97787363D01*
X137779338Y-97999495D01*
X137284363Y-97504521D01*
X138015040Y-97763793D02*
X137520066Y-97268818D01*
X137637917Y-97150967D01*
X137732198Y-97103827D01*
X137826478Y-97103827D01*
X137897189Y-97127397D01*
X138015040Y-97198108D01*
X138085751Y-97268818D01*
X138156462Y-97386669D01*
X138180032Y-97457380D01*
X138180032Y-97551661D01*
X138132891Y-97645942D01*
X138015040Y-97763793D01*
X153517666Y-125507000D02*
X153451000Y-125473666D01*
X153351000Y-125473666D01*
X153251000Y-125507000D01*
X153184333Y-125573666D01*
X153151000Y-125640333D01*
X153117666Y-125773666D01*
X153117666Y-125873666D01*
X153151000Y-126007000D01*
X153184333Y-126073666D01*
X153251000Y-126140333D01*
X153351000Y-126173666D01*
X153417666Y-126173666D01*
X153517666Y-126140333D01*
X153551000Y-126107000D01*
X153551000Y-125873666D01*
X153417666Y-125873666D01*
X153851000Y-126173666D02*
X153851000Y-125473666D01*
X154251000Y-126173666D01*
X154251000Y-125473666D01*
X154584333Y-126173666D02*
X154584333Y-125473666D01*
X154751000Y-125473666D01*
X154851000Y-125507000D01*
X154917666Y-125573666D01*
X154951000Y-125640333D01*
X154984333Y-125773666D01*
X154984333Y-125873666D01*
X154951000Y-126007000D01*
X154917666Y-126073666D01*
X154851000Y-126140333D01*
X154751000Y-126173666D01*
X154584333Y-126173666D01*
X150977666Y-125507000D02*
X150911000Y-125473666D01*
X150811000Y-125473666D01*
X150711000Y-125507000D01*
X150644333Y-125573666D01*
X150611000Y-125640333D01*
X150577666Y-125773666D01*
X150577666Y-125873666D01*
X150611000Y-126007000D01*
X150644333Y-126073666D01*
X150711000Y-126140333D01*
X150811000Y-126173666D01*
X150877666Y-126173666D01*
X150977666Y-126140333D01*
X151011000Y-126107000D01*
X151011000Y-125873666D01*
X150877666Y-125873666D01*
X151311000Y-126173666D02*
X151311000Y-125473666D01*
X151711000Y-126173666D01*
X151711000Y-125473666D01*
X152044333Y-126173666D02*
X152044333Y-125473666D01*
X152211000Y-125473666D01*
X152311000Y-125507000D01*
X152377666Y-125573666D01*
X152411000Y-125640333D01*
X152444333Y-125773666D01*
X152444333Y-125873666D01*
X152411000Y-126007000D01*
X152377666Y-126073666D01*
X152311000Y-126140333D01*
X152211000Y-126173666D01*
X152044333Y-126173666D01*
X148837666Y-125473666D02*
X148504333Y-125473666D01*
X148471000Y-125807000D01*
X148504333Y-125773666D01*
X148571000Y-125740333D01*
X148737666Y-125740333D01*
X148804333Y-125773666D01*
X148837666Y-125807000D01*
X148871000Y-125873666D01*
X148871000Y-126040333D01*
X148837666Y-126107000D01*
X148804333Y-126140333D01*
X148737666Y-126173666D01*
X148571000Y-126173666D01*
X148504333Y-126140333D01*
X148471000Y-126107000D01*
X149071000Y-125473666D02*
X149304333Y-126173666D01*
X149537666Y-125473666D01*
X145564333Y-125473666D02*
X145997666Y-125473666D01*
X145764333Y-125740333D01*
X145864333Y-125740333D01*
X145931000Y-125773666D01*
X145964333Y-125807000D01*
X145997666Y-125873666D01*
X145997666Y-126040333D01*
X145964333Y-126107000D01*
X145931000Y-126140333D01*
X145864333Y-126173666D01*
X145664333Y-126173666D01*
X145597666Y-126140333D01*
X145564333Y-126107000D01*
X146197666Y-125473666D02*
X146431000Y-126173666D01*
X146664333Y-125473666D01*
X146831000Y-125473666D02*
X147264333Y-125473666D01*
X147031000Y-125740333D01*
X147131000Y-125740333D01*
X147197666Y-125773666D01*
X147231000Y-125807000D01*
X147264333Y-125873666D01*
X147264333Y-126040333D01*
X147231000Y-126107000D01*
X147197666Y-126140333D01*
X147131000Y-126173666D01*
X146931000Y-126173666D01*
X146864333Y-126140333D01*
X146831000Y-126107000D01*
X163838000Y-125973666D02*
X164171333Y-125973666D01*
X163771333Y-126173666D02*
X164004666Y-125473666D01*
X164238000Y-126173666D01*
X164838000Y-126173666D02*
X164438000Y-126173666D01*
X164638000Y-126173666D02*
X164638000Y-125473666D01*
X164571333Y-125573666D01*
X164504666Y-125640333D01*
X164438000Y-125673666D01*
X166378000Y-125973666D02*
X166711333Y-125973666D01*
X166311333Y-126173666D02*
X166544666Y-125473666D01*
X166778000Y-126173666D01*
X166978000Y-125540333D02*
X167011333Y-125507000D01*
X167078000Y-125473666D01*
X167244666Y-125473666D01*
X167311333Y-125507000D01*
X167344666Y-125540333D01*
X167378000Y-125607000D01*
X167378000Y-125673666D01*
X167344666Y-125773666D01*
X166944666Y-126173666D01*
X167378000Y-126173666D01*
X168918000Y-125973666D02*
X169251333Y-125973666D01*
X168851333Y-126173666D02*
X169084666Y-125473666D01*
X169318000Y-126173666D01*
X169484666Y-125473666D02*
X169918000Y-125473666D01*
X169684666Y-125740333D01*
X169784666Y-125740333D01*
X169851333Y-125773666D01*
X169884666Y-125807000D01*
X169918000Y-125873666D01*
X169918000Y-126040333D01*
X169884666Y-126107000D01*
X169851333Y-126140333D01*
X169784666Y-126173666D01*
X169584666Y-126173666D01*
X169518000Y-126140333D01*
X169484666Y-126107000D01*
X161298000Y-125973666D02*
X161631333Y-125973666D01*
X161231333Y-126173666D02*
X161464666Y-125473666D01*
X161698000Y-126173666D01*
X162064666Y-125473666D02*
X162131333Y-125473666D01*
X162198000Y-125507000D01*
X162231333Y-125540333D01*
X162264666Y-125607000D01*
X162298000Y-125740333D01*
X162298000Y-125907000D01*
X162264666Y-126040333D01*
X162231333Y-126107000D01*
X162198000Y-126140333D01*
X162131333Y-126173666D01*
X162064666Y-126173666D01*
X161998000Y-126140333D01*
X161964666Y-126107000D01*
X161931333Y-126040333D01*
X161898000Y-125907000D01*
X161898000Y-125740333D01*
X161931333Y-125607000D01*
X161964666Y-125540333D01*
X161998000Y-125507000D01*
X162064666Y-125473666D01*
X144517333Y-74103666D02*
X144517333Y-73403666D01*
X144684000Y-73403666D01*
X144784000Y-73437000D01*
X144850666Y-73503666D01*
X144884000Y-73570333D01*
X144917333Y-73703666D01*
X144917333Y-73803666D01*
X144884000Y-73937000D01*
X144850666Y-74003666D01*
X144784000Y-74070333D01*
X144684000Y-74103666D01*
X144517333Y-74103666D01*
X145150666Y-73403666D02*
X145617333Y-73403666D01*
X145317333Y-74103666D01*
X147057333Y-74103666D02*
X147057333Y-73403666D01*
X147224000Y-73403666D01*
X147324000Y-73437000D01*
X147390666Y-73503666D01*
X147424000Y-73570333D01*
X147457333Y-73703666D01*
X147457333Y-73803666D01*
X147424000Y-73937000D01*
X147390666Y-74003666D01*
X147324000Y-74070333D01*
X147224000Y-74103666D01*
X147057333Y-74103666D01*
X148057333Y-73403666D02*
X147924000Y-73403666D01*
X147857333Y-73437000D01*
X147824000Y-73470333D01*
X147757333Y-73570333D01*
X147724000Y-73703666D01*
X147724000Y-73970333D01*
X147757333Y-74037000D01*
X147790666Y-74070333D01*
X147857333Y-74103666D01*
X147990666Y-74103666D01*
X148057333Y-74070333D01*
X148090666Y-74037000D01*
X148124000Y-73970333D01*
X148124000Y-73803666D01*
X148090666Y-73737000D01*
X148057333Y-73703666D01*
X147990666Y-73670333D01*
X147857333Y-73670333D01*
X147790666Y-73703666D01*
X147757333Y-73737000D01*
X147724000Y-73803666D01*
X149597333Y-74103666D02*
X149597333Y-73403666D01*
X149764000Y-73403666D01*
X149864000Y-73437000D01*
X149930666Y-73503666D01*
X149964000Y-73570333D01*
X149997333Y-73703666D01*
X149997333Y-73803666D01*
X149964000Y-73937000D01*
X149930666Y-74003666D01*
X149864000Y-74070333D01*
X149764000Y-74103666D01*
X149597333Y-74103666D01*
X150630666Y-73403666D02*
X150297333Y-73403666D01*
X150264000Y-73737000D01*
X150297333Y-73703666D01*
X150364000Y-73670333D01*
X150530666Y-73670333D01*
X150597333Y-73703666D01*
X150630666Y-73737000D01*
X150664000Y-73803666D01*
X150664000Y-73970333D01*
X150630666Y-74037000D01*
X150597333Y-74070333D01*
X150530666Y-74103666D01*
X150364000Y-74103666D01*
X150297333Y-74070333D01*
X150264000Y-74037000D01*
X152137333Y-74103666D02*
X152137333Y-73403666D01*
X152304000Y-73403666D01*
X152404000Y-73437000D01*
X152470666Y-73503666D01*
X152504000Y-73570333D01*
X152537333Y-73703666D01*
X152537333Y-73803666D01*
X152504000Y-73937000D01*
X152470666Y-74003666D01*
X152404000Y-74070333D01*
X152304000Y-74103666D01*
X152137333Y-74103666D01*
X153137333Y-73637000D02*
X153137333Y-74103666D01*
X152970666Y-73370333D02*
X152804000Y-73870333D01*
X153237333Y-73870333D01*
X156201333Y-74103666D02*
X156201333Y-73403666D01*
X156368000Y-73403666D01*
X156468000Y-73437000D01*
X156534666Y-73503666D01*
X156568000Y-73570333D01*
X156601333Y-73703666D01*
X156601333Y-73803666D01*
X156568000Y-73937000D01*
X156534666Y-74003666D01*
X156468000Y-74070333D01*
X156368000Y-74103666D01*
X156201333Y-74103666D01*
X156834666Y-73403666D02*
X157268000Y-73403666D01*
X157034666Y-73670333D01*
X157134666Y-73670333D01*
X157201333Y-73703666D01*
X157234666Y-73737000D01*
X157268000Y-73803666D01*
X157268000Y-73970333D01*
X157234666Y-74037000D01*
X157201333Y-74070333D01*
X157134666Y-74103666D01*
X156934666Y-74103666D01*
X156868000Y-74070333D01*
X156834666Y-74037000D01*
X158741333Y-74103666D02*
X158741333Y-73403666D01*
X158908000Y-73403666D01*
X159008000Y-73437000D01*
X159074666Y-73503666D01*
X159108000Y-73570333D01*
X159141333Y-73703666D01*
X159141333Y-73803666D01*
X159108000Y-73937000D01*
X159074666Y-74003666D01*
X159008000Y-74070333D01*
X158908000Y-74103666D01*
X158741333Y-74103666D01*
X159408000Y-73470333D02*
X159441333Y-73437000D01*
X159508000Y-73403666D01*
X159674666Y-73403666D01*
X159741333Y-73437000D01*
X159774666Y-73470333D01*
X159808000Y-73537000D01*
X159808000Y-73603666D01*
X159774666Y-73703666D01*
X159374666Y-74103666D01*
X159808000Y-74103666D01*
D11*
X173375580Y-108132380D02*
X172899390Y-108465714D01*
X173375580Y-108703809D02*
X172375580Y-108703809D01*
X172375580Y-108322857D01*
X172423200Y-108227619D01*
X172470819Y-108180000D01*
X172566057Y-108132380D01*
X172708914Y-108132380D01*
X172804152Y-108180000D01*
X172851771Y-108227619D01*
X172899390Y-108322857D01*
X172899390Y-108703809D01*
X172851771Y-107703809D02*
X172851771Y-107370476D01*
X173375580Y-107227619D02*
X173375580Y-107703809D01*
X172375580Y-107703809D01*
X172375580Y-107227619D01*
X173327961Y-106846666D02*
X173375580Y-106703809D01*
X173375580Y-106465714D01*
X173327961Y-106370476D01*
X173280342Y-106322857D01*
X173185104Y-106275238D01*
X173089866Y-106275238D01*
X172994628Y-106322857D01*
X172947009Y-106370476D01*
X172899390Y-106465714D01*
X172851771Y-106656190D01*
X172804152Y-106751428D01*
X172756533Y-106799047D01*
X172661295Y-106846666D01*
X172566057Y-106846666D01*
X172470819Y-106799047D01*
X172423200Y-106751428D01*
X172375580Y-106656190D01*
X172375580Y-106418095D01*
X172423200Y-106275238D01*
X172851771Y-105846666D02*
X172851771Y-105513333D01*
X173375580Y-105370476D02*
X173375580Y-105846666D01*
X172375580Y-105846666D01*
X172375580Y-105370476D01*
X172375580Y-105084761D02*
X172375580Y-104513333D01*
X173375580Y-104799047D02*
X172375580Y-104799047D01*
X166390580Y-110132380D02*
X165390580Y-110132380D01*
X166104866Y-109799047D01*
X165390580Y-109465714D01*
X166390580Y-109465714D01*
X166104866Y-109037142D02*
X166104866Y-108560952D01*
X166390580Y-109132380D02*
X165390580Y-108799047D01*
X166390580Y-108465714D01*
X166390580Y-108132380D02*
X165390580Y-108132380D01*
X166390580Y-107560952D01*
X165390580Y-107560952D01*
X165390580Y-107084761D02*
X166200104Y-107084761D01*
X166295342Y-107037142D01*
X166342961Y-106989523D01*
X166390580Y-106894285D01*
X166390580Y-106703809D01*
X166342961Y-106608571D01*
X166295342Y-106560952D01*
X166200104Y-106513333D01*
X165390580Y-106513333D01*
X166295342Y-106037142D02*
X166342961Y-105989523D01*
X166390580Y-106037142D01*
X166342961Y-106084761D01*
X166295342Y-106037142D01*
X166390580Y-106037142D01*
X166295342Y-104989523D02*
X166342961Y-105037142D01*
X166390580Y-105180000D01*
X166390580Y-105275238D01*
X166342961Y-105418095D01*
X166247723Y-105513333D01*
X166152485Y-105560952D01*
X165962009Y-105608571D01*
X165819152Y-105608571D01*
X165628676Y-105560952D01*
X165533438Y-105513333D01*
X165438200Y-105418095D01*
X165390580Y-105275238D01*
X165390580Y-105180000D01*
X165438200Y-105037142D01*
X165485819Y-104989523D01*
X166390580Y-104084761D02*
X166390580Y-104560952D01*
X165390580Y-104560952D01*
X166390580Y-103751428D02*
X165390580Y-103751428D01*
X166390580Y-103180000D02*
X165819152Y-103608571D01*
X165390580Y-103180000D02*
X165962009Y-103751428D01*
X173839142Y-86447238D02*
X173886761Y-86494857D01*
X173934380Y-86637714D01*
X173934380Y-86732952D01*
X173886761Y-86875809D01*
X173791523Y-86971047D01*
X173696285Y-87018666D01*
X173505809Y-87066285D01*
X173362952Y-87066285D01*
X173172476Y-87018666D01*
X173077238Y-86971047D01*
X172982000Y-86875809D01*
X172934380Y-86732952D01*
X172934380Y-86637714D01*
X172982000Y-86494857D01*
X173029619Y-86447238D01*
X173934380Y-85542476D02*
X173934380Y-86018666D01*
X172934380Y-86018666D01*
X173934380Y-85209142D02*
X172934380Y-85209142D01*
X173934380Y-84637714D02*
X173362952Y-85066285D01*
X172934380Y-84637714D02*
X173505809Y-85209142D01*
X172567000Y-82002142D02*
X172567000Y-81002142D01*
X173934380Y-81192619D02*
X173458190Y-81525952D01*
X173934380Y-81764047D02*
X172934380Y-81764047D01*
X172934380Y-81383095D01*
X172982000Y-81287857D01*
X173029619Y-81240238D01*
X173124857Y-81192619D01*
X173267714Y-81192619D01*
X173362952Y-81240238D01*
X173410571Y-81287857D01*
X173458190Y-81383095D01*
X173458190Y-81764047D01*
X172567000Y-81002142D02*
X172567000Y-80049761D01*
X173886761Y-80811666D02*
X173934380Y-80668809D01*
X173934380Y-80430714D01*
X173886761Y-80335476D01*
X173839142Y-80287857D01*
X173743904Y-80240238D01*
X173648666Y-80240238D01*
X173553428Y-80287857D01*
X173505809Y-80335476D01*
X173458190Y-80430714D01*
X173410571Y-80621190D01*
X173362952Y-80716428D01*
X173315333Y-80764047D01*
X173220095Y-80811666D01*
X173124857Y-80811666D01*
X173029619Y-80764047D01*
X172982000Y-80716428D01*
X172934380Y-80621190D01*
X172934380Y-80383095D01*
X172982000Y-80240238D01*
X172567000Y-80049761D02*
X172567000Y-79287857D01*
X172934380Y-79954523D02*
X172934380Y-79383095D01*
X173934380Y-79668809D02*
X172934380Y-79668809D01*
D10*
X166461333Y-74037000D02*
X166428000Y-74070333D01*
X166328000Y-74103666D01*
X166261333Y-74103666D01*
X166161333Y-74070333D01*
X166094666Y-74003666D01*
X166061333Y-73937000D01*
X166028000Y-73803666D01*
X166028000Y-73703666D01*
X166061333Y-73570333D01*
X166094666Y-73503666D01*
X166161333Y-73437000D01*
X166261333Y-73403666D01*
X166328000Y-73403666D01*
X166428000Y-73437000D01*
X166461333Y-73470333D01*
X167094666Y-74103666D02*
X166761333Y-74103666D01*
X166761333Y-73403666D01*
X167328000Y-74103666D02*
X167328000Y-73403666D01*
X167728000Y-74103666D02*
X167428000Y-73703666D01*
X167728000Y-73403666D02*
X167328000Y-73803666D01*
X168468000Y-73153000D02*
X169168000Y-73153000D01*
X169034666Y-74103666D02*
X168801333Y-73770333D01*
X168634666Y-74103666D02*
X168634666Y-73403666D01*
X168901333Y-73403666D01*
X168968000Y-73437000D01*
X169001333Y-73470333D01*
X169034666Y-73537000D01*
X169034666Y-73637000D01*
X169001333Y-73703666D01*
X168968000Y-73737000D01*
X168901333Y-73770333D01*
X168634666Y-73770333D01*
X169168000Y-73153000D02*
X169834666Y-73153000D01*
X169301333Y-74070333D02*
X169401333Y-74103666D01*
X169568000Y-74103666D01*
X169634666Y-74070333D01*
X169668000Y-74037000D01*
X169701333Y-73970333D01*
X169701333Y-73903666D01*
X169668000Y-73837000D01*
X169634666Y-73803666D01*
X169568000Y-73770333D01*
X169434666Y-73737000D01*
X169368000Y-73703666D01*
X169334666Y-73670333D01*
X169301333Y-73603666D01*
X169301333Y-73537000D01*
X169334666Y-73470333D01*
X169368000Y-73437000D01*
X169434666Y-73403666D01*
X169601333Y-73403666D01*
X169701333Y-73437000D01*
X169834666Y-73153000D02*
X170368000Y-73153000D01*
X169901333Y-73403666D02*
X170301333Y-73403666D01*
X170101333Y-74103666D02*
X170101333Y-73403666D01*
X161281333Y-74103666D02*
X161281333Y-73403666D01*
X161448000Y-73403666D01*
X161548000Y-73437000D01*
X161614666Y-73503666D01*
X161648000Y-73570333D01*
X161681333Y-73703666D01*
X161681333Y-73803666D01*
X161648000Y-73937000D01*
X161614666Y-74003666D01*
X161548000Y-74070333D01*
X161448000Y-74103666D01*
X161281333Y-74103666D01*
X162348000Y-74103666D02*
X161948000Y-74103666D01*
X162148000Y-74103666D02*
X162148000Y-73403666D01*
X162081333Y-73503666D01*
X162014666Y-73570333D01*
X161948000Y-73603666D01*
X163821333Y-74103666D02*
X163821333Y-73403666D01*
X163988000Y-73403666D01*
X164088000Y-73437000D01*
X164154666Y-73503666D01*
X164188000Y-73570333D01*
X164221333Y-73703666D01*
X164221333Y-73803666D01*
X164188000Y-73937000D01*
X164154666Y-74003666D01*
X164088000Y-74070333D01*
X163988000Y-74103666D01*
X163821333Y-74103666D01*
X164654666Y-73403666D02*
X164721333Y-73403666D01*
X164788000Y-73437000D01*
X164821333Y-73470333D01*
X164854666Y-73537000D01*
X164888000Y-73670333D01*
X164888000Y-73837000D01*
X164854666Y-73970333D01*
X164821333Y-74037000D01*
X164788000Y-74070333D01*
X164721333Y-74103666D01*
X164654666Y-74103666D01*
X164588000Y-74070333D01*
X164554666Y-74037000D01*
X164521333Y-73970333D01*
X164488000Y-73837000D01*
X164488000Y-73670333D01*
X164521333Y-73537000D01*
X164554666Y-73470333D01*
X164588000Y-73437000D01*
X164654666Y-73403666D01*
D11*
X175474380Y-97345428D02*
X175474380Y-97154952D01*
X175522000Y-97059714D01*
X175617238Y-96964476D01*
X175807714Y-96916857D01*
X176141047Y-96916857D01*
X176331523Y-96964476D01*
X176426761Y-97059714D01*
X176474380Y-97154952D01*
X176474380Y-97345428D01*
X176426761Y-97440666D01*
X176331523Y-97535904D01*
X176141047Y-97583523D01*
X175807714Y-97583523D01*
X175617238Y-97535904D01*
X175522000Y-97440666D01*
X175474380Y-97345428D01*
X176474380Y-95964476D02*
X176474380Y-96535904D01*
X176474380Y-96250190D02*
X175474380Y-96250190D01*
X175617238Y-96345428D01*
X175712476Y-96440666D01*
X175760095Y-96535904D01*
X175474380Y-102679428D02*
X175474380Y-102488952D01*
X175522000Y-102393714D01*
X175617238Y-102298476D01*
X175807714Y-102250857D01*
X176141047Y-102250857D01*
X176331523Y-102298476D01*
X176426761Y-102393714D01*
X176474380Y-102488952D01*
X176474380Y-102679428D01*
X176426761Y-102774666D01*
X176331523Y-102869904D01*
X176141047Y-102917523D01*
X175807714Y-102917523D01*
X175617238Y-102869904D01*
X175522000Y-102774666D01*
X175474380Y-102679428D01*
X175569619Y-101869904D02*
X175522000Y-101822285D01*
X175474380Y-101727047D01*
X175474380Y-101488952D01*
X175522000Y-101393714D01*
X175569619Y-101346095D01*
X175664857Y-101298476D01*
X175760095Y-101298476D01*
X175902952Y-101346095D01*
X176474380Y-101917523D01*
X176474380Y-101298476D01*
X175474380Y-108013428D02*
X175474380Y-107822952D01*
X175522000Y-107727714D01*
X175617238Y-107632476D01*
X175807714Y-107584857D01*
X176141047Y-107584857D01*
X176331523Y-107632476D01*
X176426761Y-107727714D01*
X176474380Y-107822952D01*
X176474380Y-108013428D01*
X176426761Y-108108666D01*
X176331523Y-108203904D01*
X176141047Y-108251523D01*
X175807714Y-108251523D01*
X175617238Y-108203904D01*
X175522000Y-108108666D01*
X175474380Y-108013428D01*
X175474380Y-107251523D02*
X175474380Y-106632476D01*
X175855333Y-106965809D01*
X175855333Y-106822952D01*
X175902952Y-106727714D01*
X175950571Y-106680095D01*
X176045809Y-106632476D01*
X176283904Y-106632476D01*
X176379142Y-106680095D01*
X176426761Y-106727714D01*
X176474380Y-106822952D01*
X176474380Y-107108666D01*
X176426761Y-107203904D01*
X176379142Y-107251523D01*
X175474380Y-113347428D02*
X175474380Y-113156952D01*
X175522000Y-113061714D01*
X175617238Y-112966476D01*
X175807714Y-112918857D01*
X176141047Y-112918857D01*
X176331523Y-112966476D01*
X176426761Y-113061714D01*
X176474380Y-113156952D01*
X176474380Y-113347428D01*
X176426761Y-113442666D01*
X176331523Y-113537904D01*
X176141047Y-113585523D01*
X175807714Y-113585523D01*
X175617238Y-113537904D01*
X175522000Y-113442666D01*
X175474380Y-113347428D01*
X175807714Y-112061714D02*
X176474380Y-112061714D01*
X175426761Y-112299809D02*
X176141047Y-112537904D01*
X176141047Y-111918857D01*
X163211095Y-82637380D02*
X163877761Y-82637380D01*
X163449190Y-83637380D01*
X164687285Y-82970714D02*
X164687285Y-83637380D01*
X164449190Y-82589761D02*
X164211095Y-83304047D01*
X164830142Y-83304047D01*
X165734904Y-83637380D02*
X165163476Y-83637380D01*
X165449190Y-83637380D02*
X165449190Y-82637380D01*
X165353952Y-82780238D01*
X165258714Y-82875476D01*
X165163476Y-82923095D01*
X166353952Y-82637380D02*
X166449190Y-82637380D01*
X166544428Y-82685000D01*
X166592047Y-82732619D01*
X166639666Y-82827857D01*
X166687285Y-83018333D01*
X166687285Y-83256428D01*
X166639666Y-83446904D01*
X166592047Y-83542142D01*
X166544428Y-83589761D01*
X166449190Y-83637380D01*
X166353952Y-83637380D01*
X166258714Y-83589761D01*
X166211095Y-83542142D01*
X166163476Y-83446904D01*
X166115857Y-83256428D01*
X166115857Y-83018333D01*
X166163476Y-82827857D01*
X166211095Y-82732619D01*
X166258714Y-82685000D01*
X166353952Y-82637380D01*
X151781095Y-82637380D02*
X152447761Y-82637380D01*
X152019190Y-83637380D01*
X153257285Y-82970714D02*
X153257285Y-83637380D01*
X153019190Y-82589761D02*
X152781095Y-83304047D01*
X153400142Y-83304047D01*
X153685857Y-82637380D02*
X154304904Y-82637380D01*
X153971571Y-83018333D01*
X154114428Y-83018333D01*
X154209666Y-83065952D01*
X154257285Y-83113571D01*
X154304904Y-83208809D01*
X154304904Y-83446904D01*
X154257285Y-83542142D01*
X154209666Y-83589761D01*
X154114428Y-83637380D01*
X153828714Y-83637380D01*
X153733476Y-83589761D01*
X153685857Y-83542142D01*
X154685857Y-82732619D02*
X154733476Y-82685000D01*
X154828714Y-82637380D01*
X155066809Y-82637380D01*
X155162047Y-82685000D01*
X155209666Y-82732619D01*
X155257285Y-82827857D01*
X155257285Y-82923095D01*
X155209666Y-83065952D01*
X154638238Y-83637380D01*
X155257285Y-83637380D01*
X139239904Y-82637380D02*
X139906571Y-82637380D01*
X139478000Y-83637380D01*
X140716095Y-82970714D02*
X140716095Y-83637380D01*
X140478000Y-82589761D02*
X140239904Y-83304047D01*
X140858952Y-83304047D01*
X141192285Y-82732619D02*
X141239904Y-82685000D01*
X141335142Y-82637380D01*
X141573238Y-82637380D01*
X141668476Y-82685000D01*
X141716095Y-82732619D01*
X141763714Y-82827857D01*
X141763714Y-82923095D01*
X141716095Y-83065952D01*
X141144666Y-83637380D01*
X141763714Y-83637380D01*
X142335142Y-83065952D02*
X142239904Y-83018333D01*
X142192285Y-82970714D01*
X142144666Y-82875476D01*
X142144666Y-82827857D01*
X142192285Y-82732619D01*
X142239904Y-82685000D01*
X142335142Y-82637380D01*
X142525619Y-82637380D01*
X142620857Y-82685000D01*
X142668476Y-82732619D01*
X142716095Y-82827857D01*
X142716095Y-82875476D01*
X142668476Y-82970714D01*
X142620857Y-83018333D01*
X142525619Y-83065952D01*
X142335142Y-83065952D01*
X142239904Y-83113571D01*
X142192285Y-83161190D01*
X142144666Y-83256428D01*
X142144666Y-83446904D01*
X142192285Y-83542142D01*
X142239904Y-83589761D01*
X142335142Y-83637380D01*
X142525619Y-83637380D01*
X142620857Y-83589761D01*
X142668476Y-83542142D01*
X142716095Y-83446904D01*
X142716095Y-83256428D01*
X142668476Y-83161190D01*
X142620857Y-83113571D01*
X142525619Y-83065952D01*
X143049428Y-82637380D02*
X143668476Y-82637380D01*
X143335142Y-83018333D01*
X143478000Y-83018333D01*
X143573238Y-83065952D01*
X143620857Y-83113571D01*
X143668476Y-83208809D01*
X143668476Y-83446904D01*
X143620857Y-83542142D01*
X143573238Y-83589761D01*
X143478000Y-83637380D01*
X143192285Y-83637380D01*
X143097047Y-83589761D01*
X143049428Y-83542142D01*
X127752695Y-82637380D02*
X128419361Y-82637380D01*
X127990790Y-83637380D01*
X129228885Y-82970714D02*
X129228885Y-83637380D01*
X128990790Y-82589761D02*
X128752695Y-83304047D01*
X129371742Y-83304047D01*
X129657457Y-82637380D02*
X130324123Y-82637380D01*
X129895552Y-83637380D01*
X131133647Y-82970714D02*
X131133647Y-83637380D01*
X130895552Y-82589761D02*
X130657457Y-83304047D01*
X131276504Y-83304047D01*
X144186495Y-99096580D02*
X144853161Y-99096580D01*
X144424590Y-100096580D01*
X145662685Y-99429914D02*
X145662685Y-100096580D01*
X145424590Y-99048961D02*
X145186495Y-99763247D01*
X145805542Y-99763247D01*
X146710304Y-100096580D02*
X146138876Y-100096580D01*
X146424590Y-100096580D02*
X146424590Y-99096580D01*
X146329352Y-99239438D01*
X146234114Y-99334676D01*
X146138876Y-99382295D01*
X147567447Y-99429914D02*
X147567447Y-100096580D01*
X147329352Y-99048961D02*
X147091257Y-99763247D01*
X147710304Y-99763247D01*
X127809904Y-93660980D02*
X128476571Y-93660980D01*
X128048000Y-94660980D01*
X129286095Y-93994314D02*
X129286095Y-94660980D01*
X129048000Y-93613361D02*
X128809904Y-94327647D01*
X129428952Y-94327647D01*
X130333714Y-94660980D02*
X129762285Y-94660980D01*
X130048000Y-94660980D02*
X130048000Y-93660980D01*
X129952761Y-93803838D01*
X129857523Y-93899076D01*
X129762285Y-93946695D01*
X131238476Y-93660980D02*
X130762285Y-93660980D01*
X130714666Y-94137171D01*
X130762285Y-94089552D01*
X130857523Y-94041933D01*
X131095619Y-94041933D01*
X131190857Y-94089552D01*
X131238476Y-94137171D01*
X131286095Y-94232409D01*
X131286095Y-94470504D01*
X131238476Y-94565742D01*
X131190857Y-94613361D01*
X131095619Y-94660980D01*
X130857523Y-94660980D01*
X130762285Y-94613361D01*
X130714666Y-94565742D01*
X131619428Y-93660980D02*
X132238476Y-93660980D01*
X131905142Y-94041933D01*
X132048000Y-94041933D01*
X132143238Y-94089552D01*
X132190857Y-94137171D01*
X132238476Y-94232409D01*
X132238476Y-94470504D01*
X132190857Y-94565742D01*
X132143238Y-94613361D01*
X132048000Y-94660980D01*
X131762285Y-94660980D01*
X131667047Y-94613361D01*
X131619428Y-94565742D01*
X127809904Y-104608380D02*
X128476571Y-104608380D01*
X128048000Y-105608380D01*
X129286095Y-104941714D02*
X129286095Y-105608380D01*
X129048000Y-104560761D02*
X128809904Y-105275047D01*
X129428952Y-105275047D01*
X130333714Y-105608380D02*
X129762285Y-105608380D01*
X130048000Y-105608380D02*
X130048000Y-104608380D01*
X129952761Y-104751238D01*
X129857523Y-104846476D01*
X129762285Y-104894095D01*
X131238476Y-104608380D02*
X130762285Y-104608380D01*
X130714666Y-105084571D01*
X130762285Y-105036952D01*
X130857523Y-104989333D01*
X131095619Y-104989333D01*
X131190857Y-105036952D01*
X131238476Y-105084571D01*
X131286095Y-105179809D01*
X131286095Y-105417904D01*
X131238476Y-105513142D01*
X131190857Y-105560761D01*
X131095619Y-105608380D01*
X130857523Y-105608380D01*
X130762285Y-105560761D01*
X130714666Y-105513142D01*
X131619428Y-104608380D02*
X132238476Y-104608380D01*
X131905142Y-104989333D01*
X132048000Y-104989333D01*
X132143238Y-105036952D01*
X132190857Y-105084571D01*
X132238476Y-105179809D01*
X132238476Y-105417904D01*
X132190857Y-105513142D01*
X132143238Y-105560761D01*
X132048000Y-105608380D01*
X131762285Y-105608380D01*
X131667047Y-105560761D01*
X131619428Y-105513142D01*
X165909904Y-115657380D02*
X166576571Y-115657380D01*
X166148000Y-116657380D01*
X167386095Y-115990714D02*
X167386095Y-116657380D01*
X167148000Y-115609761D02*
X166909904Y-116324047D01*
X167528952Y-116324047D01*
X168433714Y-116657380D02*
X167862285Y-116657380D01*
X168148000Y-116657380D02*
X168148000Y-115657380D01*
X168052761Y-115800238D01*
X167957523Y-115895476D01*
X167862285Y-115943095D01*
X169290857Y-115657380D02*
X169100380Y-115657380D01*
X169005142Y-115705000D01*
X168957523Y-115752619D01*
X168862285Y-115895476D01*
X168814666Y-116085952D01*
X168814666Y-116466904D01*
X168862285Y-116562142D01*
X168909904Y-116609761D01*
X169005142Y-116657380D01*
X169195619Y-116657380D01*
X169290857Y-116609761D01*
X169338476Y-116562142D01*
X169386095Y-116466904D01*
X169386095Y-116228809D01*
X169338476Y-116133571D01*
X169290857Y-116085952D01*
X169195619Y-116038333D01*
X169005142Y-116038333D01*
X168909904Y-116085952D01*
X168862285Y-116133571D01*
X168814666Y-116228809D01*
X170338476Y-116657380D02*
X169767047Y-116657380D01*
X170052761Y-116657380D02*
X170052761Y-115657380D01*
X169957523Y-115800238D01*
X169862285Y-115895476D01*
X169767047Y-115943095D01*
X153209904Y-115657380D02*
X153876571Y-115657380D01*
X153448000Y-116657380D01*
X154686095Y-115990714D02*
X154686095Y-116657380D01*
X154448000Y-115609761D02*
X154209904Y-116324047D01*
X154828952Y-116324047D01*
X155733714Y-116657380D02*
X155162285Y-116657380D01*
X155448000Y-116657380D02*
X155448000Y-115657380D01*
X155352761Y-115800238D01*
X155257523Y-115895476D01*
X155162285Y-115943095D01*
X156590857Y-115657380D02*
X156400380Y-115657380D01*
X156305142Y-115705000D01*
X156257523Y-115752619D01*
X156162285Y-115895476D01*
X156114666Y-116085952D01*
X156114666Y-116466904D01*
X156162285Y-116562142D01*
X156209904Y-116609761D01*
X156305142Y-116657380D01*
X156495619Y-116657380D01*
X156590857Y-116609761D01*
X156638476Y-116562142D01*
X156686095Y-116466904D01*
X156686095Y-116228809D01*
X156638476Y-116133571D01*
X156590857Y-116085952D01*
X156495619Y-116038333D01*
X156305142Y-116038333D01*
X156209904Y-116085952D01*
X156162285Y-116133571D01*
X156114666Y-116228809D01*
X157638476Y-116657380D02*
X157067047Y-116657380D01*
X157352761Y-116657380D02*
X157352761Y-115657380D01*
X157257523Y-115800238D01*
X157162285Y-115895476D01*
X157067047Y-115943095D01*
X140509904Y-115657380D02*
X141176571Y-115657380D01*
X140748000Y-116657380D01*
X141986095Y-115990714D02*
X141986095Y-116657380D01*
X141748000Y-115609761D02*
X141509904Y-116324047D01*
X142128952Y-116324047D01*
X143033714Y-116657380D02*
X142462285Y-116657380D01*
X142748000Y-116657380D02*
X142748000Y-115657380D01*
X142652761Y-115800238D01*
X142557523Y-115895476D01*
X142462285Y-115943095D01*
X143890857Y-115657380D02*
X143700380Y-115657380D01*
X143605142Y-115705000D01*
X143557523Y-115752619D01*
X143462285Y-115895476D01*
X143414666Y-116085952D01*
X143414666Y-116466904D01*
X143462285Y-116562142D01*
X143509904Y-116609761D01*
X143605142Y-116657380D01*
X143795619Y-116657380D01*
X143890857Y-116609761D01*
X143938476Y-116562142D01*
X143986095Y-116466904D01*
X143986095Y-116228809D01*
X143938476Y-116133571D01*
X143890857Y-116085952D01*
X143795619Y-116038333D01*
X143605142Y-116038333D01*
X143509904Y-116085952D01*
X143462285Y-116133571D01*
X143414666Y-116228809D01*
X144938476Y-116657380D02*
X144367047Y-116657380D01*
X144652761Y-116657380D02*
X144652761Y-115657380D01*
X144557523Y-115800238D01*
X144462285Y-115895476D01*
X144367047Y-115943095D01*
X127809904Y-115657380D02*
X128476571Y-115657380D01*
X128048000Y-116657380D01*
X129286095Y-115990714D02*
X129286095Y-116657380D01*
X129048000Y-115609761D02*
X128809904Y-116324047D01*
X129428952Y-116324047D01*
X130333714Y-116657380D02*
X129762285Y-116657380D01*
X130048000Y-116657380D02*
X130048000Y-115657380D01*
X129952761Y-115800238D01*
X129857523Y-115895476D01*
X129762285Y-115943095D01*
X131190857Y-115657380D02*
X131000380Y-115657380D01*
X130905142Y-115705000D01*
X130857523Y-115752619D01*
X130762285Y-115895476D01*
X130714666Y-116085952D01*
X130714666Y-116466904D01*
X130762285Y-116562142D01*
X130809904Y-116609761D01*
X130905142Y-116657380D01*
X131095619Y-116657380D01*
X131190857Y-116609761D01*
X131238476Y-116562142D01*
X131286095Y-116466904D01*
X131286095Y-116228809D01*
X131238476Y-116133571D01*
X131190857Y-116085952D01*
X131095619Y-116038333D01*
X130905142Y-116038333D01*
X130809904Y-116085952D01*
X130762285Y-116133571D01*
X130714666Y-116228809D01*
X132238476Y-116657380D02*
X131667047Y-116657380D01*
X131952761Y-116657380D02*
X131952761Y-115657380D01*
X131857523Y-115800238D01*
X131762285Y-115895476D01*
X131667047Y-115943095D01*
X156636980Y-106581057D02*
X155636980Y-106581057D01*
X156351266Y-106247723D01*
X155636980Y-105914390D01*
X156636980Y-105914390D01*
X156351266Y-105485819D02*
X156351266Y-105009628D01*
X156636980Y-105581057D02*
X155636980Y-105247723D01*
X156636980Y-104914390D01*
X156636980Y-104581057D02*
X155636980Y-104581057D01*
X156636980Y-104009628D01*
X155636980Y-104009628D01*
X155636980Y-103533438D02*
X156446504Y-103533438D01*
X156541742Y-103485819D01*
X156589361Y-103438200D01*
X156636980Y-103342961D01*
X156636980Y-103152485D01*
X156589361Y-103057247D01*
X156541742Y-103009628D01*
X156446504Y-102962009D01*
X155636980Y-102962009D01*
X156970314Y-102247723D02*
X155541742Y-102247723D01*
X156351266Y-101581057D02*
X156351266Y-101104866D01*
X156636980Y-101676295D02*
X155636980Y-101342961D01*
X156636980Y-101009628D01*
X155636980Y-100676295D02*
X156446504Y-100676295D01*
X156541742Y-100628676D01*
X156589361Y-100581057D01*
X156636980Y-100485819D01*
X156636980Y-100295342D01*
X156589361Y-100200104D01*
X156541742Y-100152485D01*
X156446504Y-100104866D01*
X155636980Y-100104866D01*
X155636980Y-99771533D02*
X155636980Y-99200104D01*
X156636980Y-99485819D02*
X155636980Y-99485819D01*
X155636980Y-98676295D02*
X155636980Y-98485819D01*
X155684600Y-98390580D01*
X155779838Y-98295342D01*
X155970314Y-98247723D01*
X156303647Y-98247723D01*
X156494123Y-98295342D01*
X156589361Y-98390580D01*
X156636980Y-98485819D01*
X156636980Y-98676295D01*
X156589361Y-98771533D01*
X156494123Y-98866771D01*
X156303647Y-98914390D01*
X155970314Y-98914390D01*
X155779838Y-98866771D01*
X155684600Y-98771533D01*
X155636980Y-98676295D01*
X156662380Y-94338400D02*
X156662380Y-94909828D01*
X156662380Y-94624114D02*
X155662380Y-94624114D01*
X155805238Y-94719352D01*
X155900476Y-94814590D01*
X155948095Y-94909828D01*
X156662380Y-93909828D02*
X155662380Y-93909828D01*
X156138571Y-93909828D02*
X156138571Y-93338400D01*
X156662380Y-93338400D02*
X155662380Y-93338400D01*
X155995714Y-92957447D02*
X155995714Y-92433638D01*
X156662380Y-92957447D01*
X156662380Y-92433638D01*
X156995714Y-91814590D02*
X155567142Y-91814590D01*
X156662380Y-90576495D02*
X156662380Y-91147923D01*
X156662380Y-90862209D02*
X155662380Y-90862209D01*
X155805238Y-90957447D01*
X155900476Y-91052685D01*
X155948095Y-91147923D01*
X155662380Y-89957447D02*
X155662380Y-89862209D01*
X155710000Y-89766971D01*
X155757619Y-89719352D01*
X155852857Y-89671733D01*
X156043333Y-89624114D01*
X156281428Y-89624114D01*
X156471904Y-89671733D01*
X156567142Y-89719352D01*
X156614761Y-89766971D01*
X156662380Y-89862209D01*
X156662380Y-89957447D01*
X156614761Y-90052685D01*
X156567142Y-90100304D01*
X156471904Y-90147923D01*
X156281428Y-90195542D01*
X156043333Y-90195542D01*
X155852857Y-90147923D01*
X155757619Y-90100304D01*
X155710000Y-90052685D01*
X155662380Y-89957447D01*
X156662380Y-89195542D02*
X155662380Y-89195542D01*
X156138571Y-89195542D02*
X156138571Y-88624114D01*
X156662380Y-88624114D02*
X155662380Y-88624114D01*
X155995714Y-88243161D02*
X155995714Y-87719352D01*
X156662380Y-88243161D01*
X156662380Y-87719352D01*
X135786880Y-125009019D02*
X135786880Y-125485209D01*
X136263071Y-125532828D01*
X136215452Y-125485209D01*
X136167833Y-125389971D01*
X136167833Y-125151876D01*
X136215452Y-125056638D01*
X136263071Y-125009019D01*
X136358309Y-124961400D01*
X136596404Y-124961400D01*
X136691642Y-125009019D01*
X136739261Y-125056638D01*
X136786880Y-125151876D01*
X136786880Y-125389971D01*
X136739261Y-125485209D01*
X136691642Y-125532828D01*
X135786880Y-124675685D02*
X136786880Y-124342352D01*
X135786880Y-124009019D01*
X137120214Y-123437590D02*
X135691642Y-123437590D01*
X135786880Y-122818542D02*
X135786880Y-122199495D01*
X136167833Y-122532828D01*
X136167833Y-122389971D01*
X136215452Y-122294733D01*
X136263071Y-122247114D01*
X136358309Y-122199495D01*
X136596404Y-122199495D01*
X136691642Y-122247114D01*
X136739261Y-122294733D01*
X136786880Y-122389971D01*
X136786880Y-122675685D01*
X136739261Y-122770923D01*
X136691642Y-122818542D01*
X135786880Y-121913780D02*
X136786880Y-121580447D01*
X135786880Y-121247114D01*
X135786880Y-121009019D02*
X135786880Y-120389971D01*
X136167833Y-120723304D01*
X136167833Y-120580447D01*
X136215452Y-120485209D01*
X136263071Y-120437590D01*
X136358309Y-120389971D01*
X136596404Y-120389971D01*
X136691642Y-120437590D01*
X136739261Y-120485209D01*
X136786880Y-120580447D01*
X136786880Y-120866161D01*
X136739261Y-120961400D01*
X136691642Y-121009019D01*
X162504380Y-98901190D02*
X161504380Y-98901190D01*
X161837714Y-97996428D02*
X162504380Y-97996428D01*
X161456761Y-98234523D02*
X162171047Y-98472619D01*
X162171047Y-97853571D01*
X162504380Y-96361190D02*
X161504380Y-96361190D01*
X161504380Y-95980238D02*
X161504380Y-95361190D01*
X161885333Y-95694523D01*
X161885333Y-95551666D01*
X161932952Y-95456428D01*
X161980571Y-95408809D01*
X162075809Y-95361190D01*
X162313904Y-95361190D01*
X162409142Y-95408809D01*
X162456761Y-95456428D01*
X162504380Y-95551666D01*
X162504380Y-95837380D01*
X162456761Y-95932619D01*
X162409142Y-95980238D01*
X162504380Y-93821190D02*
X161504380Y-93821190D01*
X161599619Y-93392619D02*
X161552000Y-93345000D01*
X161504380Y-93249761D01*
X161504380Y-93011666D01*
X161552000Y-92916428D01*
X161599619Y-92868809D01*
X161694857Y-92821190D01*
X161790095Y-92821190D01*
X161932952Y-92868809D01*
X162504380Y-93440238D01*
X162504380Y-92821190D01*
X162504380Y-91281190D02*
X161504380Y-91281190D01*
X162504380Y-90281190D02*
X162504380Y-90852619D01*
X162504380Y-90566904D02*
X161504380Y-90566904D01*
X161647238Y-90662142D01*
X161742476Y-90757380D01*
X161790095Y-90852619D01*
D10*
X149997389Y-103761636D02*
X149926678Y-103785206D01*
X149855967Y-103855917D01*
X149808827Y-103950198D01*
X149808827Y-104044478D01*
X149832397Y-104115189D01*
X149903108Y-104233040D01*
X149973818Y-104303751D01*
X150091669Y-104374462D01*
X150162380Y-104398032D01*
X150256661Y-104398032D01*
X150350942Y-104350891D01*
X150398082Y-104303751D01*
X150445223Y-104209470D01*
X150445223Y-104162330D01*
X150280231Y-103997338D01*
X150185950Y-104091619D01*
X150704495Y-103997338D02*
X150209521Y-103502363D01*
X150987338Y-103714495D01*
X150492363Y-103219521D01*
X151223040Y-103478793D02*
X150728066Y-102983818D01*
X150845917Y-102865967D01*
X150940198Y-102818827D01*
X151034478Y-102818827D01*
X151105189Y-102842397D01*
X151223040Y-102913108D01*
X151293751Y-102983818D01*
X151364462Y-103101669D01*
X151388032Y-103172380D01*
X151388032Y-103266661D01*
X151340891Y-103360942D01*
X151223040Y-103478793D01*
X150779299Y-110730385D02*
X150873580Y-110636104D01*
X150944291Y-110612533D01*
X151038572Y-110612533D01*
X151156423Y-110683244D01*
X151321414Y-110848236D01*
X151392125Y-110966087D01*
X151392125Y-111060368D01*
X151368555Y-111131078D01*
X151274274Y-111225359D01*
X151203563Y-111248930D01*
X151109282Y-111248930D01*
X150991431Y-111178219D01*
X150826440Y-111013227D01*
X150755729Y-110895376D01*
X150755729Y-110801095D01*
X150779299Y-110730385D01*
X151227133Y-110376831D02*
X151227133Y-110329691D01*
X151250704Y-110258980D01*
X151368555Y-110141129D01*
X151439266Y-110117559D01*
X151486406Y-110117559D01*
X151557117Y-110141129D01*
X151604257Y-110188269D01*
X151651398Y-110282550D01*
X151651398Y-110848236D01*
X151957810Y-110541823D01*
X148239299Y-110730385D02*
X148333580Y-110636104D01*
X148404291Y-110612533D01*
X148498572Y-110612533D01*
X148616423Y-110683244D01*
X148781414Y-110848236D01*
X148852125Y-110966087D01*
X148852125Y-111060368D01*
X148828555Y-111131078D01*
X148734274Y-111225359D01*
X148663563Y-111248930D01*
X148569282Y-111248930D01*
X148451431Y-111178219D01*
X148286440Y-111013227D01*
X148215729Y-110895376D01*
X148215729Y-110801095D01*
X148239299Y-110730385D01*
X149417810Y-110541823D02*
X149134968Y-110824666D01*
X149276389Y-110683244D02*
X148781414Y-110188269D01*
X148804985Y-110306121D01*
X148804985Y-110400401D01*
X148781414Y-110471112D01*
X155859299Y-110730385D02*
X155953580Y-110636104D01*
X156024291Y-110612533D01*
X156118572Y-110612533D01*
X156236423Y-110683244D01*
X156401414Y-110848236D01*
X156472125Y-110966087D01*
X156472125Y-111060368D01*
X156448555Y-111131078D01*
X156354274Y-111225359D01*
X156283563Y-111248930D01*
X156189282Y-111248930D01*
X156071431Y-111178219D01*
X155906440Y-111013227D01*
X155835729Y-110895376D01*
X155835729Y-110801095D01*
X155859299Y-110730385D01*
X156660687Y-110258980D02*
X156990670Y-110588963D01*
X156354274Y-110188269D02*
X156589976Y-110659674D01*
X156896389Y-110353261D01*
X153319299Y-110730385D02*
X153413580Y-110636104D01*
X153484291Y-110612533D01*
X153578572Y-110612533D01*
X153696423Y-110683244D01*
X153861414Y-110848236D01*
X153932125Y-110966087D01*
X153932125Y-111060368D01*
X153908555Y-111131078D01*
X153814274Y-111225359D01*
X153743563Y-111248930D01*
X153649282Y-111248930D01*
X153531431Y-111178219D01*
X153366440Y-111013227D01*
X153295729Y-110895376D01*
X153295729Y-110801095D01*
X153319299Y-110730385D01*
X153696423Y-110353261D02*
X154002836Y-110046848D01*
X154026406Y-110400401D01*
X154097117Y-110329691D01*
X154167827Y-110306121D01*
X154214968Y-110306121D01*
X154285678Y-110329691D01*
X154403530Y-110447542D01*
X154427100Y-110518253D01*
X154427100Y-110565393D01*
X154403530Y-110636104D01*
X154262108Y-110777525D01*
X154191398Y-110801095D01*
X154144257Y-110801095D01*
X148836091Y-78386602D02*
X148930372Y-78339462D01*
X149048223Y-78221610D01*
X149071793Y-78150900D01*
X149071793Y-78103759D01*
X149048223Y-78033049D01*
X149001082Y-77985908D01*
X148930372Y-77962338D01*
X148883231Y-77962338D01*
X148812521Y-77985908D01*
X148694669Y-78056619D01*
X148623959Y-78080189D01*
X148576818Y-78080189D01*
X148506108Y-78056619D01*
X148458967Y-78009478D01*
X148435397Y-77938768D01*
X148435397Y-77891627D01*
X148458967Y-77820917D01*
X148576818Y-77703066D01*
X148671099Y-77655925D01*
X149590338Y-77679495D02*
X149354636Y-77915198D01*
X148859661Y-77420223D01*
X149661049Y-77090240D02*
X149755330Y-77043099D01*
X149802470Y-77043099D01*
X149873181Y-77066669D01*
X149943891Y-77137380D01*
X149967462Y-77208091D01*
X149967462Y-77255231D01*
X149943891Y-77325942D01*
X149755330Y-77514504D01*
X149260355Y-77019529D01*
X149425346Y-76854537D01*
X149496057Y-76830967D01*
X149543198Y-76830967D01*
X149613908Y-76854537D01*
X149661049Y-76901678D01*
X149684619Y-76972389D01*
X149684619Y-77019529D01*
X149661049Y-77090240D01*
X149496057Y-77255231D01*
X151030446Y-88003247D02*
X151124727Y-87956106D01*
X151242578Y-87838255D01*
X151266148Y-87767544D01*
X151266148Y-87720404D01*
X151242578Y-87649693D01*
X151195438Y-87602553D01*
X151124727Y-87578983D01*
X151077587Y-87578983D01*
X151006876Y-87602553D01*
X150889025Y-87673264D01*
X150818314Y-87696834D01*
X150771174Y-87696834D01*
X150700463Y-87673264D01*
X150653322Y-87626123D01*
X150629752Y-87555412D01*
X150629752Y-87508272D01*
X150653322Y-87437561D01*
X150771174Y-87319710D01*
X150865455Y-87272570D01*
X151784693Y-87296140D02*
X151548991Y-87531842D01*
X151054016Y-87036867D01*
X151784693Y-87013297D02*
X152020396Y-86777595D01*
X151878974Y-87201859D02*
X151548991Y-86541893D01*
X152208957Y-86871876D01*
X132192757Y-111080830D02*
X132593451Y-110680137D01*
X133218533Y-111399500D02*
X132982831Y-111635202D01*
X132487856Y-111140227D01*
X132593451Y-110680137D02*
X133088426Y-110185162D01*
X133383525Y-111234508D02*
X132888550Y-110739533D01*
X133006401Y-110621682D01*
X133100682Y-110574542D01*
X133194963Y-110574542D01*
X133265674Y-110598112D01*
X133383525Y-110668823D01*
X133454236Y-110739533D01*
X133524946Y-110857385D01*
X133548517Y-110928095D01*
X133548517Y-111022376D01*
X133501376Y-111116657D01*
X133383525Y-111234508D01*
X133088426Y-110185162D02*
X133559830Y-109713757D01*
X133477806Y-110150278D02*
X133524946Y-110103137D01*
X133595657Y-110079567D01*
X133642798Y-110079567D01*
X133713508Y-110103137D01*
X133831359Y-110173848D01*
X133949210Y-110291699D01*
X134019921Y-110409550D01*
X134043491Y-110480261D01*
X134043491Y-110527401D01*
X134019921Y-110598112D01*
X133972781Y-110645253D01*
X133902070Y-110668823D01*
X133854930Y-110668823D01*
X133784219Y-110645253D01*
X133666368Y-110574542D01*
X133548517Y-110456691D01*
X133477806Y-110338840D01*
X133454236Y-110268129D01*
X133454236Y-110220989D01*
X133477806Y-110150278D01*
X144892757Y-111080830D02*
X145293451Y-110680137D01*
X145918533Y-111399500D02*
X145682831Y-111635202D01*
X145187856Y-111140227D01*
X145293451Y-110680137D02*
X145788426Y-110185162D01*
X146083525Y-111234508D02*
X145588550Y-110739533D01*
X145706401Y-110621682D01*
X145800682Y-110574542D01*
X145894963Y-110574542D01*
X145965674Y-110598112D01*
X146083525Y-110668823D01*
X146154236Y-110739533D01*
X146224946Y-110857385D01*
X146248517Y-110928095D01*
X146248517Y-111022376D01*
X146201376Y-111116657D01*
X146083525Y-111234508D01*
X145788426Y-110185162D02*
X146259830Y-109713757D01*
X146837772Y-110480261D02*
X146554930Y-110763104D01*
X146696351Y-110621682D02*
X146201376Y-110126708D01*
X146224946Y-110244559D01*
X146224946Y-110338840D01*
X146201376Y-110409550D01*
X157592757Y-111080830D02*
X157993451Y-110680137D01*
X158618533Y-111399500D02*
X158382831Y-111635202D01*
X157887856Y-111140227D01*
X157993451Y-110680137D02*
X158488426Y-110185162D01*
X158783525Y-111234508D02*
X158288550Y-110739533D01*
X158406401Y-110621682D01*
X158500682Y-110574542D01*
X158594963Y-110574542D01*
X158665674Y-110598112D01*
X158783525Y-110668823D01*
X158854236Y-110739533D01*
X158924946Y-110857385D01*
X158948517Y-110928095D01*
X158948517Y-111022376D01*
X158901376Y-111116657D01*
X158783525Y-111234508D01*
X158488426Y-110185162D02*
X158959830Y-109713757D01*
X158807095Y-110315269D02*
X158807095Y-110268129D01*
X158830666Y-110197418D01*
X158948517Y-110079567D01*
X159019227Y-110055997D01*
X159066368Y-110055997D01*
X159137078Y-110079567D01*
X159184219Y-110126708D01*
X159231359Y-110220989D01*
X159231359Y-110786674D01*
X159537772Y-110480261D01*
X170292757Y-111080830D02*
X170693451Y-110680137D01*
X171318533Y-111399500D02*
X171082831Y-111635202D01*
X170587856Y-111140227D01*
X170693451Y-110680137D02*
X171188426Y-110185162D01*
X171483525Y-111234508D02*
X170988550Y-110739533D01*
X171106401Y-110621682D01*
X171200682Y-110574542D01*
X171294963Y-110574542D01*
X171365674Y-110598112D01*
X171483525Y-110668823D01*
X171554236Y-110739533D01*
X171624946Y-110857385D01*
X171648517Y-110928095D01*
X171648517Y-111022376D01*
X171601376Y-111116657D01*
X171483525Y-111234508D01*
X171188426Y-110185162D02*
X171659830Y-109713757D01*
X171436385Y-110291699D02*
X171742798Y-109985286D01*
X171766368Y-110338840D01*
X171837078Y-110268129D01*
X171907789Y-110244559D01*
X171954930Y-110244559D01*
X172025640Y-110268129D01*
X172143491Y-110385980D01*
X172167062Y-110456691D01*
X172167062Y-110503831D01*
X172143491Y-110574542D01*
X172002070Y-110715963D01*
X171931359Y-110739533D01*
X171884219Y-110739533D01*
X128276295Y-78172857D02*
X128276295Y-78219998D01*
X128229155Y-78314278D01*
X128182014Y-78361419D01*
X128087733Y-78408559D01*
X127993453Y-78408559D01*
X127922742Y-78384989D01*
X127804891Y-78314278D01*
X127734180Y-78243568D01*
X127663469Y-78125717D01*
X127639899Y-78055006D01*
X127639899Y-77960725D01*
X127687040Y-77866444D01*
X127734180Y-77819304D01*
X127828461Y-77772163D01*
X127875601Y-77772163D01*
X128818410Y-77725023D02*
X128417717Y-77654312D01*
X128535568Y-78007866D02*
X128040593Y-77512891D01*
X128229155Y-77324329D01*
X128299866Y-77300759D01*
X128347006Y-77300759D01*
X128417717Y-77324329D01*
X128488427Y-77395040D01*
X128511998Y-77465750D01*
X128511998Y-77512891D01*
X128488427Y-77583601D01*
X128299866Y-77772163D01*
X130902451Y-78137502D02*
X130902451Y-78184642D01*
X130855310Y-78278923D01*
X130808170Y-78326064D01*
X130713889Y-78373204D01*
X130619608Y-78373204D01*
X130548897Y-78349634D01*
X130431046Y-78278923D01*
X130360335Y-78208212D01*
X130289625Y-78090361D01*
X130266055Y-78019651D01*
X130266055Y-77925370D01*
X130313195Y-77831089D01*
X130360335Y-77783948D01*
X130454616Y-77736808D01*
X130501757Y-77736808D01*
X131067442Y-77548246D02*
X130902451Y-77713238D01*
X131161723Y-77972510D02*
X130666748Y-77477535D01*
X130902451Y-77241833D01*
X143587223Y-78174470D02*
X143681504Y-78127330D01*
X143799355Y-78009478D01*
X143822925Y-77938768D01*
X143822925Y-77891627D01*
X143799355Y-77820917D01*
X143752214Y-77773776D01*
X143681504Y-77750206D01*
X143634363Y-77750206D01*
X143563653Y-77773776D01*
X143445801Y-77844487D01*
X143375091Y-77868057D01*
X143327950Y-77868057D01*
X143257240Y-77844487D01*
X143210099Y-77797346D01*
X143186529Y-77726636D01*
X143186529Y-77679495D01*
X143210099Y-77608785D01*
X143327950Y-77490933D01*
X143422231Y-77443793D01*
X143987917Y-77160950D02*
X144317900Y-77490933D01*
X143681504Y-77090240D02*
X143917206Y-77561644D01*
X144223619Y-77255231D01*
X139777223Y-78174470D02*
X139871504Y-78127330D01*
X139989355Y-78009478D01*
X140012925Y-77938768D01*
X140012925Y-77891627D01*
X139989355Y-77820917D01*
X139942214Y-77773776D01*
X139871504Y-77750206D01*
X139824363Y-77750206D01*
X139753653Y-77773776D01*
X139635801Y-77844487D01*
X139565091Y-77868057D01*
X139517950Y-77868057D01*
X139447240Y-77844487D01*
X139400099Y-77797346D01*
X139376529Y-77726636D01*
X139376529Y-77679495D01*
X139400099Y-77608785D01*
X139517950Y-77490933D01*
X139612231Y-77443793D01*
X139753653Y-77255231D02*
X140060066Y-76948818D01*
X140083636Y-77302372D01*
X140154346Y-77231661D01*
X140225057Y-77208091D01*
X140272198Y-77208091D01*
X140342908Y-77231661D01*
X140460759Y-77349512D01*
X140484330Y-77420223D01*
X140484330Y-77467363D01*
X140460759Y-77538074D01*
X140319338Y-77679495D01*
X140248627Y-77703066D01*
X140201487Y-77703066D01*
X135967223Y-87826470D02*
X136061504Y-87779330D01*
X136179355Y-87661478D01*
X136202925Y-87590768D01*
X136202925Y-87543627D01*
X136179355Y-87472917D01*
X136132214Y-87425776D01*
X136061504Y-87402206D01*
X136014363Y-87402206D01*
X135943653Y-87425776D01*
X135825801Y-87496487D01*
X135755091Y-87520057D01*
X135707950Y-87520057D01*
X135637240Y-87496487D01*
X135590099Y-87449346D01*
X135566529Y-87378636D01*
X135566529Y-87331495D01*
X135590099Y-87260785D01*
X135707950Y-87142933D01*
X135802231Y-87095793D01*
X136014363Y-86930801D02*
X136014363Y-86883661D01*
X136037933Y-86812950D01*
X136155785Y-86695099D01*
X136226495Y-86671529D01*
X136273636Y-86671529D01*
X136344346Y-86695099D01*
X136391487Y-86742240D01*
X136438627Y-86836521D01*
X136438627Y-87402206D01*
X136745040Y-87095793D01*
X139777223Y-87826470D02*
X139871504Y-87779330D01*
X139989355Y-87661478D01*
X140012925Y-87590768D01*
X140012925Y-87543627D01*
X139989355Y-87472917D01*
X139942214Y-87425776D01*
X139871504Y-87402206D01*
X139824363Y-87402206D01*
X139753653Y-87425776D01*
X139635801Y-87496487D01*
X139565091Y-87520057D01*
X139517950Y-87520057D01*
X139447240Y-87496487D01*
X139400099Y-87449346D01*
X139376529Y-87378636D01*
X139376529Y-87331495D01*
X139400099Y-87260785D01*
X139517950Y-87142933D01*
X139612231Y-87095793D01*
X140555040Y-87095793D02*
X140272198Y-87378636D01*
X140413619Y-87237214D02*
X139918644Y-86742240D01*
X139942214Y-86860091D01*
X139942214Y-86954372D01*
X139918644Y-87025082D01*
D12*
%TO.C,R11*%
X144528000Y-108756267D02*
X144528000Y-108413733D01*
X143508000Y-108756267D02*
X143508000Y-108413733D01*
%TO.C,R10*%
X142238000Y-91903733D02*
X142238000Y-92246267D01*
X143258000Y-91903733D02*
X143258000Y-92246267D01*
%TO.C,R1*%
X128755000Y-123615267D02*
X128755000Y-123272733D01*
X127735000Y-123615267D02*
X127735000Y-123272733D01*
%TO.C,SW21*%
X153068000Y-104200000D02*
X153870470Y-104200000D01*
X154485530Y-104200000D02*
X155288000Y-104200000D01*
X153068000Y-101725000D02*
X153068000Y-104200000D01*
X155288000Y-101725000D02*
X155288000Y-104200000D01*
X153068000Y-101725000D02*
X153614529Y-101725000D01*
X154741471Y-101725000D02*
X155288000Y-101725000D01*
X153068000Y-100965000D02*
X153068000Y-100205000D01*
X153068000Y-100205000D02*
X154178000Y-100205000D01*
%TO.C,SW20*%
X153068000Y-93786000D02*
X153870470Y-93786000D01*
X154485530Y-93786000D02*
X155288000Y-93786000D01*
X153068000Y-91311000D02*
X153068000Y-93786000D01*
X155288000Y-91311000D02*
X155288000Y-93786000D01*
X153068000Y-91311000D02*
X153614529Y-91311000D01*
X154741471Y-91311000D02*
X155288000Y-91311000D01*
X153068000Y-90551000D02*
X153068000Y-89791000D01*
X153068000Y-89791000D02*
X154178000Y-89791000D01*
%TO.C,SW19*%
X171788000Y-108330000D02*
X172088000Y-108330000D01*
X172088000Y-108330000D02*
X172088000Y-105030000D01*
X172088000Y-105030000D02*
X171788000Y-105030000D01*
X169588000Y-108330000D02*
X169288000Y-108330000D01*
X169288000Y-108330000D02*
X169288000Y-105030000D01*
X169288000Y-105030000D02*
X169588000Y-105030000D01*
%TO.C,SW18*%
X164803000Y-108330000D02*
X165103000Y-108330000D01*
X165103000Y-108330000D02*
X165103000Y-105030000D01*
X165103000Y-105030000D02*
X164803000Y-105030000D01*
X162603000Y-108330000D02*
X162303000Y-108330000D01*
X162303000Y-108330000D02*
X162303000Y-105030000D01*
X162303000Y-105030000D02*
X162603000Y-105030000D01*
%TO.C,SW1*%
X171308000Y-98485000D02*
X171308000Y-100225000D01*
X164988000Y-98485000D02*
X164988000Y-100225000D01*
X171308000Y-89005000D02*
X171308000Y-90744000D01*
X164988000Y-89005000D02*
X171308000Y-89005000D01*
X164988000Y-89005000D02*
X164988000Y-89954000D01*
X162948000Y-89954000D02*
X164988000Y-89954000D01*
X164988000Y-100225000D02*
X171308000Y-100225000D01*
%TO.C,R28*%
X159429267Y-101475000D02*
X159086733Y-101475000D01*
X159429267Y-100455000D02*
X159086733Y-100455000D01*
%TO.C,R27*%
X159429267Y-104015000D02*
X159086733Y-104015000D01*
X159429267Y-102995000D02*
X159086733Y-102995000D01*
%TO.C,R26*%
X144778000Y-92246267D02*
X144778000Y-91903733D01*
X145798000Y-92246267D02*
X145798000Y-91903733D01*
%TO.C,R25*%
X150878000Y-91903733D02*
X150878000Y-92246267D01*
X149858000Y-91903733D02*
X149858000Y-92246267D01*
%TO.C,R24*%
X148588000Y-108756267D02*
X148588000Y-108413733D01*
X149608000Y-108756267D02*
X149608000Y-108413733D01*
%TO.C,R23*%
X148338000Y-91903733D02*
X148338000Y-92246267D01*
X147318000Y-91903733D02*
X147318000Y-92246267D01*
%TO.C,R22*%
X140968000Y-108756267D02*
X140968000Y-108413733D01*
X141988000Y-108756267D02*
X141988000Y-108413733D01*
%TO.C,R21*%
X147068000Y-108413733D02*
X147068000Y-108756267D01*
X146048000Y-108413733D02*
X146048000Y-108756267D01*
%TO.C,R20*%
X139698000Y-92246267D02*
X139698000Y-91903733D01*
X140718000Y-92246267D02*
X140718000Y-91903733D01*
%TO.C,R5*%
X158748000Y-108756267D02*
X158748000Y-108413733D01*
X159768000Y-108756267D02*
X159768000Y-108413733D01*
%TO.C,R4*%
X156208000Y-108756267D02*
X156208000Y-108413733D01*
X157228000Y-108756267D02*
X157228000Y-108413733D01*
%TO.C,R3*%
X153668000Y-108756267D02*
X153668000Y-108413733D01*
X154688000Y-108756267D02*
X154688000Y-108413733D01*
%TO.C,R2*%
X151128000Y-108756267D02*
X151128000Y-108413733D01*
X152148000Y-108756267D02*
X152148000Y-108413733D01*
%TO.C,R9*%
X159429267Y-98935000D02*
X159086733Y-98935000D01*
X159429267Y-97915000D02*
X159086733Y-97915000D01*
%TO.C,R8*%
X159429267Y-96395000D02*
X159086733Y-96395000D01*
X159429267Y-95375000D02*
X159086733Y-95375000D01*
%TO.C,R7*%
X159429267Y-93855000D02*
X159086733Y-93855000D01*
X159429267Y-92835000D02*
X159086733Y-92835000D01*
%TO.C,R6*%
X159429267Y-91315000D02*
X159086733Y-91315000D01*
X159429267Y-90295000D02*
X159086733Y-90295000D01*
%TO.C,JP1*%
X135540000Y-121415000D02*
X134737530Y-121415000D01*
X134122470Y-121415000D02*
X133320000Y-121415000D01*
X135540000Y-123890000D02*
X135540000Y-121415000D01*
X133320000Y-123890000D02*
X133320000Y-121415000D01*
X135540000Y-123890000D02*
X134993471Y-123890000D01*
X133866529Y-123890000D02*
X133320000Y-123890000D01*
X135540000Y-124650000D02*
X135540000Y-125410000D01*
X135540000Y-125410000D02*
X134430000Y-125410000D01*
%TO.C,D4*%
X178154000Y-113576000D02*
X178154000Y-111116000D01*
X178154000Y-111116000D02*
X176684000Y-111116000D01*
X176684000Y-111116000D02*
X176684000Y-113576000D01*
%TO.C,D3*%
X178154000Y-108242000D02*
X178154000Y-105782000D01*
X178154000Y-105782000D02*
X176684000Y-105782000D01*
X176684000Y-105782000D02*
X176684000Y-108242000D01*
%TO.C,D2*%
X178154000Y-102908000D02*
X178154000Y-100448000D01*
X178154000Y-100448000D02*
X176684000Y-100448000D01*
X176684000Y-100448000D02*
X176684000Y-102908000D01*
%TO.C,D1*%
X178154000Y-97574000D02*
X178154000Y-95114000D01*
X178154000Y-95114000D02*
X176684000Y-95114000D01*
X176684000Y-95114000D02*
X176684000Y-97574000D01*
%TO.C,CP13*%
X140718000Y-97618733D02*
X140718000Y-97961267D01*
X139698000Y-97618733D02*
X139698000Y-97961267D01*
%TO.C,CP10*%
X158748000Y-81108733D02*
X158748000Y-81451267D01*
X159768000Y-81108733D02*
X159768000Y-81451267D01*
%TO.C,CP9*%
X135638000Y-81108733D02*
X135638000Y-81451267D01*
X134618000Y-81108733D02*
X134618000Y-81451267D01*
%TO.C,CP8*%
X147318000Y-81108733D02*
X147318000Y-81451267D01*
X148338000Y-81108733D02*
X148338000Y-81451267D01*
%TO.C,CP7*%
X123188000Y-92143733D02*
X123188000Y-92486267D01*
X124208000Y-92143733D02*
X124208000Y-92486267D01*
%TO.C,CP6*%
X123188000Y-103079733D02*
X123188000Y-103422267D01*
X124208000Y-103079733D02*
X124208000Y-103422267D01*
%TO.C,CP5*%
X161288000Y-114128733D02*
X161288000Y-114471267D01*
X162308000Y-114128733D02*
X162308000Y-114471267D01*
%TO.C,CP4*%
X148588000Y-114128733D02*
X148588000Y-114471267D01*
X149608000Y-114128733D02*
X149608000Y-114471267D01*
%TO.C,CP3*%
X135888000Y-114128733D02*
X135888000Y-114471267D01*
X136908000Y-114128733D02*
X136908000Y-114471267D01*
%TO.C,CP2*%
X123188000Y-114128733D02*
X123188000Y-114471267D01*
X124208000Y-114128733D02*
X124208000Y-114471267D01*
%TO.C,CP1*%
X123188000Y-81108733D02*
X123188000Y-81451267D01*
X124208000Y-81108733D02*
X124208000Y-81451267D01*
%TO.C,C4*%
X153916748Y-97865000D02*
X154439252Y-97865000D01*
X153916748Y-96445000D02*
X154439252Y-96445000D01*
%TO.C,C3*%
X139013000Y-108846252D02*
X139013000Y-108323748D01*
X137593000Y-108846252D02*
X137593000Y-108323748D01*
%TO.C,C2*%
X139013000Y-103131252D02*
X139013000Y-102608748D01*
X137593000Y-103131252D02*
X137593000Y-102608748D01*
%TO.C,C1*%
X131916000Y-124046064D02*
X131916000Y-122841936D01*
X129196000Y-124046064D02*
X129196000Y-122841936D01*
D11*
%TO.C,P1*%
X140208000Y-125095000D02*
X157988000Y-125095000D01*
X157988000Y-125095000D02*
X157988000Y-122555000D01*
X157988000Y-122555000D02*
X140208000Y-122555000D01*
X137388000Y-125375000D02*
X138938000Y-125375000D01*
X140208000Y-125095000D02*
X140208000Y-122555000D01*
X138938000Y-122275000D02*
X137388000Y-122275000D01*
X137388000Y-122275000D02*
X137388000Y-125375000D01*
%TO.C,P2*%
X163068000Y-125095000D02*
X175768000Y-125095000D01*
X175768000Y-125095000D02*
X175768000Y-122555000D01*
X175768000Y-122555000D02*
X163068000Y-122555000D01*
X160248000Y-125375000D02*
X161798000Y-125375000D01*
X163068000Y-125095000D02*
X163068000Y-122555000D01*
X161798000Y-122275000D02*
X160248000Y-122275000D01*
X160248000Y-122275000D02*
X160248000Y-125375000D01*
%TO.C,P3*%
X131064000Y-76835000D02*
X153924000Y-76835000D01*
X153924000Y-76835000D02*
X153924000Y-74295000D01*
X153924000Y-74295000D02*
X131064000Y-74295000D01*
X128244000Y-77115000D02*
X129794000Y-77115000D01*
X131064000Y-76835000D02*
X131064000Y-74295000D01*
X129794000Y-74015000D02*
X128244000Y-74015000D01*
X128244000Y-74015000D02*
X128244000Y-77115000D01*
%TO.C,P4*%
X157988000Y-76835000D02*
X175768000Y-76835000D01*
X175768000Y-76835000D02*
X175768000Y-74295000D01*
X175768000Y-74295000D02*
X157988000Y-74295000D01*
X155168000Y-77115000D02*
X156718000Y-77115000D01*
X157988000Y-76835000D02*
X157988000Y-74295000D01*
X156718000Y-74015000D02*
X155168000Y-74015000D01*
X155168000Y-74015000D02*
X155168000Y-77115000D01*
%TO.C,P5*%
X127254000Y-123825000D02*
G75*
G03*
X127254000Y-123825000I-2286000J0D01*
G01*
%TO.C,P6*%
X179324000Y-118745000D02*
G75*
G03*
X179324000Y-118745000I-2286000J0D01*
G01*
%TO.C,P7*%
X128524000Y-75565000D02*
G75*
G03*
X128524000Y-75565000I-2286000J0D01*
G01*
%TO.C,P8*%
X179324000Y-90805000D02*
G75*
G03*
X179324000Y-90805000I-2286000J0D01*
G01*
D12*
%TO.C,D5*%
X174144000Y-78985000D02*
X174144000Y-81445000D01*
X175614000Y-78985000D02*
X174144000Y-78985000D01*
X175614000Y-81445000D02*
X175614000Y-78985000D01*
%TO.C,D6*%
X175614000Y-86652000D02*
X175614000Y-84192000D01*
X175614000Y-84192000D02*
X174144000Y-84192000D01*
X174144000Y-84192000D02*
X174144000Y-86652000D01*
%TO.C,R38*%
X172392000Y-80473733D02*
X172392000Y-80816267D01*
X171372000Y-80473733D02*
X171372000Y-80816267D01*
%TO.C,R39*%
X171372000Y-85680733D02*
X171372000Y-86023267D01*
X172392000Y-85680733D02*
X172392000Y-86023267D01*
D11*
%TO.C,U1*%
X124963000Y-85260000D02*
X124963000Y-86635000D01*
X133838000Y-85260000D02*
X133838000Y-81110000D01*
X124938000Y-85260000D02*
X124938000Y-81110000D01*
X133838000Y-85260000D02*
X133723000Y-85260000D01*
X133838000Y-81110000D02*
X133723000Y-81110000D01*
X124938000Y-81110000D02*
X125053000Y-81110000D01*
X124938000Y-85260000D02*
X124963000Y-85260000D01*
%TO.C,U2*%
X124973000Y-118280000D02*
X124998000Y-118280000D01*
X124973000Y-114130000D02*
X125078000Y-114130000D01*
X135123000Y-114130000D02*
X135018000Y-114130000D01*
X135123000Y-118280000D02*
X135018000Y-118280000D01*
X124973000Y-118280000D02*
X124973000Y-114130000D01*
X135123000Y-118280000D02*
X135123000Y-114130000D01*
X124998000Y-118280000D02*
X124998000Y-119655000D01*
%TO.C,U3*%
X137698000Y-118280000D02*
X137698000Y-119655000D01*
X147823000Y-118280000D02*
X147823000Y-114130000D01*
X137673000Y-118280000D02*
X137673000Y-114130000D01*
X147823000Y-118280000D02*
X147718000Y-118280000D01*
X147823000Y-114130000D02*
X147718000Y-114130000D01*
X137673000Y-114130000D02*
X137778000Y-114130000D01*
X137673000Y-118280000D02*
X137698000Y-118280000D01*
%TO.C,U4*%
X150373000Y-118280000D02*
X150398000Y-118280000D01*
X150373000Y-114130000D02*
X150478000Y-114130000D01*
X160523000Y-114130000D02*
X160418000Y-114130000D01*
X160523000Y-118280000D02*
X160418000Y-118280000D01*
X150373000Y-118280000D02*
X150373000Y-114130000D01*
X160523000Y-118280000D02*
X160523000Y-114130000D01*
X150398000Y-118280000D02*
X150398000Y-119655000D01*
%TO.C,U5*%
X163073000Y-118280000D02*
X163098000Y-118280000D01*
X163073000Y-114130000D02*
X163178000Y-114130000D01*
X173223000Y-114130000D02*
X173118000Y-114130000D01*
X173223000Y-118280000D02*
X173118000Y-118280000D01*
X163073000Y-118280000D02*
X163073000Y-114130000D01*
X173223000Y-118280000D02*
X173223000Y-114130000D01*
X163098000Y-118280000D02*
X163098000Y-119655000D01*
%TO.C,U6*%
X124998000Y-107231000D02*
X124998000Y-108606000D01*
X135123000Y-107231000D02*
X135123000Y-103081000D01*
X124973000Y-107231000D02*
X124973000Y-103081000D01*
X135123000Y-107231000D02*
X135018000Y-107231000D01*
X135123000Y-103081000D02*
X135018000Y-103081000D01*
X124973000Y-103081000D02*
X125078000Y-103081000D01*
X124973000Y-107231000D02*
X124998000Y-107231000D01*
%TO.C,U7*%
X124973000Y-96309000D02*
X124998000Y-96309000D01*
X124973000Y-92159000D02*
X125078000Y-92159000D01*
X135123000Y-92159000D02*
X135018000Y-92159000D01*
X135123000Y-96309000D02*
X135018000Y-96309000D01*
X124973000Y-96309000D02*
X124973000Y-92159000D01*
X135123000Y-96309000D02*
X135123000Y-92159000D01*
X124998000Y-96309000D02*
X124998000Y-97684000D01*
%TO.C,U8*%
X149093000Y-85260000D02*
X149118000Y-85260000D01*
X149093000Y-81110000D02*
X149208000Y-81110000D01*
X157993000Y-81110000D02*
X157878000Y-81110000D01*
X157993000Y-85260000D02*
X157878000Y-85260000D01*
X149093000Y-85260000D02*
X149093000Y-81110000D01*
X157993000Y-85260000D02*
X157993000Y-81110000D01*
X149118000Y-85260000D02*
X149118000Y-86635000D01*
%TO.C,U9*%
X136428000Y-85260000D02*
X136428000Y-86635000D01*
X146553000Y-85260000D02*
X146553000Y-81110000D01*
X136403000Y-85260000D02*
X136403000Y-81110000D01*
X146553000Y-85260000D02*
X146448000Y-85260000D01*
X146553000Y-81110000D02*
X146448000Y-81110000D01*
X136403000Y-81110000D02*
X136508000Y-81110000D01*
X136403000Y-85260000D02*
X136428000Y-85260000D01*
%TO.C,U10*%
X160548000Y-85260000D02*
X160548000Y-86635000D01*
X169423000Y-85260000D02*
X169423000Y-81110000D01*
X160523000Y-85260000D02*
X160523000Y-81110000D01*
X169423000Y-85260000D02*
X169308000Y-85260000D01*
X169423000Y-81110000D02*
X169308000Y-81110000D01*
X160523000Y-81110000D02*
X160638000Y-81110000D01*
X160523000Y-85260000D02*
X160548000Y-85260000D01*
%TO.C,U13*%
X141473000Y-101770000D02*
X141498000Y-101770000D01*
X141473000Y-97620000D02*
X141588000Y-97620000D01*
X150373000Y-97620000D02*
X150258000Y-97620000D01*
X150373000Y-101770000D02*
X150258000Y-101770000D01*
X141473000Y-101770000D02*
X141473000Y-97620000D01*
X150373000Y-101770000D02*
X150373000Y-97620000D01*
X141498000Y-101770000D02*
X141498000Y-103145000D01*
%TO.C,R11*%
D10*
X145426866Y-109035000D02*
X145093533Y-109268333D01*
X145426866Y-109435000D02*
X144726866Y-109435000D01*
X144726866Y-109168333D01*
X144760200Y-109101666D01*
X144793533Y-109068333D01*
X144860200Y-109035000D01*
X144960200Y-109035000D01*
X145026866Y-109068333D01*
X145060200Y-109101666D01*
X145093533Y-109168333D01*
X145093533Y-109435000D01*
X145426866Y-108368333D02*
X145426866Y-108768333D01*
X145426866Y-108568333D02*
X144726866Y-108568333D01*
X144826866Y-108635000D01*
X144893533Y-108701666D01*
X144926866Y-108768333D01*
X145426866Y-107701666D02*
X145426866Y-108101666D01*
X145426866Y-107901666D02*
X144726866Y-107901666D01*
X144826866Y-107968333D01*
X144893533Y-108035000D01*
X144926866Y-108101666D01*
%TO.C,R10*%
X144156866Y-92525000D02*
X143823533Y-92758333D01*
X144156866Y-92925000D02*
X143456866Y-92925000D01*
X143456866Y-92658333D01*
X143490200Y-92591666D01*
X143523533Y-92558333D01*
X143590200Y-92525000D01*
X143690200Y-92525000D01*
X143756866Y-92558333D01*
X143790200Y-92591666D01*
X143823533Y-92658333D01*
X143823533Y-92925000D01*
X144156866Y-91858333D02*
X144156866Y-92258333D01*
X144156866Y-92058333D02*
X143456866Y-92058333D01*
X143556866Y-92125000D01*
X143623533Y-92191666D01*
X143656866Y-92258333D01*
X143456866Y-91425000D02*
X143456866Y-91358333D01*
X143490200Y-91291666D01*
X143523533Y-91258333D01*
X143590200Y-91225000D01*
X143723533Y-91191666D01*
X143890200Y-91191666D01*
X144023533Y-91225000D01*
X144090200Y-91258333D01*
X144123533Y-91291666D01*
X144156866Y-91358333D01*
X144156866Y-91425000D01*
X144123533Y-91491666D01*
X144090200Y-91525000D01*
X144023533Y-91558333D01*
X143890200Y-91591666D01*
X143723533Y-91591666D01*
X143590200Y-91558333D01*
X143523533Y-91525000D01*
X143490200Y-91491666D01*
X143456866Y-91425000D01*
%TO.C,R1*%
X128561666Y-121274666D02*
X128228333Y-121508000D01*
X128561666Y-121674666D02*
X127861666Y-121674666D01*
X127861666Y-121408000D01*
X127895000Y-121341333D01*
X127928333Y-121308000D01*
X127995000Y-121274666D01*
X128095000Y-121274666D01*
X128161666Y-121308000D01*
X128195000Y-121341333D01*
X128228333Y-121408000D01*
X128228333Y-121674666D01*
X128561666Y-120608000D02*
X128561666Y-121008000D01*
X128561666Y-120808000D02*
X127861666Y-120808000D01*
X127961666Y-120874666D01*
X128028333Y-120941333D01*
X128061666Y-121008000D01*
%TO.C,SW21*%
X152911333Y-99914833D02*
X153011333Y-99948166D01*
X153178000Y-99948166D01*
X153244666Y-99914833D01*
X153278000Y-99881500D01*
X153311333Y-99814833D01*
X153311333Y-99748166D01*
X153278000Y-99681500D01*
X153244666Y-99648166D01*
X153178000Y-99614833D01*
X153044666Y-99581500D01*
X152978000Y-99548166D01*
X152944666Y-99514833D01*
X152911333Y-99448166D01*
X152911333Y-99381500D01*
X152944666Y-99314833D01*
X152978000Y-99281500D01*
X153044666Y-99248166D01*
X153211333Y-99248166D01*
X153311333Y-99281500D01*
X153544666Y-99248166D02*
X153711333Y-99948166D01*
X153844666Y-99448166D01*
X153978000Y-99948166D01*
X154144666Y-99248166D01*
X154378000Y-99314833D02*
X154411333Y-99281500D01*
X154478000Y-99248166D01*
X154644666Y-99248166D01*
X154711333Y-99281500D01*
X154744666Y-99314833D01*
X154778000Y-99381500D01*
X154778000Y-99448166D01*
X154744666Y-99548166D01*
X154344666Y-99948166D01*
X154778000Y-99948166D01*
X155444666Y-99948166D02*
X155044666Y-99948166D01*
X155244666Y-99948166D02*
X155244666Y-99248166D01*
X155178000Y-99348166D01*
X155111333Y-99414833D01*
X155044666Y-99448166D01*
%TO.C,SW20*%
X152911333Y-89500833D02*
X153011333Y-89534166D01*
X153178000Y-89534166D01*
X153244666Y-89500833D01*
X153278000Y-89467500D01*
X153311333Y-89400833D01*
X153311333Y-89334166D01*
X153278000Y-89267500D01*
X153244666Y-89234166D01*
X153178000Y-89200833D01*
X153044666Y-89167500D01*
X152978000Y-89134166D01*
X152944666Y-89100833D01*
X152911333Y-89034166D01*
X152911333Y-88967500D01*
X152944666Y-88900833D01*
X152978000Y-88867500D01*
X153044666Y-88834166D01*
X153211333Y-88834166D01*
X153311333Y-88867500D01*
X153544666Y-88834166D02*
X153711333Y-89534166D01*
X153844666Y-89034166D01*
X153978000Y-89534166D01*
X154144666Y-88834166D01*
X154378000Y-88900833D02*
X154411333Y-88867500D01*
X154478000Y-88834166D01*
X154644666Y-88834166D01*
X154711333Y-88867500D01*
X154744666Y-88900833D01*
X154778000Y-88967500D01*
X154778000Y-89034166D01*
X154744666Y-89134166D01*
X154344666Y-89534166D01*
X154778000Y-89534166D01*
X155211333Y-88834166D02*
X155278000Y-88834166D01*
X155344666Y-88867500D01*
X155378000Y-88900833D01*
X155411333Y-88967500D01*
X155444666Y-89100833D01*
X155444666Y-89267500D01*
X155411333Y-89400833D01*
X155378000Y-89467500D01*
X155344666Y-89500833D01*
X155278000Y-89534166D01*
X155211333Y-89534166D01*
X155144666Y-89500833D01*
X155111333Y-89467500D01*
X155078000Y-89400833D01*
X155044666Y-89267500D01*
X155044666Y-89100833D01*
X155078000Y-88967500D01*
X155111333Y-88900833D01*
X155144666Y-88867500D01*
X155211333Y-88834166D01*
%TO.C,SW19*%
X169002833Y-107946666D02*
X169036166Y-107846666D01*
X169036166Y-107680000D01*
X169002833Y-107613333D01*
X168969500Y-107580000D01*
X168902833Y-107546666D01*
X168836166Y-107546666D01*
X168769500Y-107580000D01*
X168736166Y-107613333D01*
X168702833Y-107680000D01*
X168669500Y-107813333D01*
X168636166Y-107880000D01*
X168602833Y-107913333D01*
X168536166Y-107946666D01*
X168469500Y-107946666D01*
X168402833Y-107913333D01*
X168369500Y-107880000D01*
X168336166Y-107813333D01*
X168336166Y-107646666D01*
X168369500Y-107546666D01*
X168336166Y-107313333D02*
X169036166Y-107146666D01*
X168536166Y-107013333D01*
X169036166Y-106880000D01*
X168336166Y-106713333D01*
X169036166Y-106080000D02*
X169036166Y-106480000D01*
X169036166Y-106280000D02*
X168336166Y-106280000D01*
X168436166Y-106346666D01*
X168502833Y-106413333D01*
X168536166Y-106480000D01*
X169036166Y-105746666D02*
X169036166Y-105613333D01*
X169002833Y-105546666D01*
X168969500Y-105513333D01*
X168869500Y-105446666D01*
X168736166Y-105413333D01*
X168469500Y-105413333D01*
X168402833Y-105446666D01*
X168369500Y-105480000D01*
X168336166Y-105546666D01*
X168336166Y-105680000D01*
X168369500Y-105746666D01*
X168402833Y-105780000D01*
X168469500Y-105813333D01*
X168636166Y-105813333D01*
X168702833Y-105780000D01*
X168736166Y-105746666D01*
X168769500Y-105680000D01*
X168769500Y-105546666D01*
X168736166Y-105480000D01*
X168702833Y-105446666D01*
X168636166Y-105413333D01*
%TO.C,SW18*%
X162030533Y-107921266D02*
X162063866Y-107821266D01*
X162063866Y-107654600D01*
X162030533Y-107587933D01*
X161997200Y-107554600D01*
X161930533Y-107521266D01*
X161863866Y-107521266D01*
X161797200Y-107554600D01*
X161763866Y-107587933D01*
X161730533Y-107654600D01*
X161697200Y-107787933D01*
X161663866Y-107854600D01*
X161630533Y-107887933D01*
X161563866Y-107921266D01*
X161497200Y-107921266D01*
X161430533Y-107887933D01*
X161397200Y-107854600D01*
X161363866Y-107787933D01*
X161363866Y-107621266D01*
X161397200Y-107521266D01*
X161363866Y-107287933D02*
X162063866Y-107121266D01*
X161563866Y-106987933D01*
X162063866Y-106854600D01*
X161363866Y-106687933D01*
X162063866Y-106054600D02*
X162063866Y-106454600D01*
X162063866Y-106254600D02*
X161363866Y-106254600D01*
X161463866Y-106321266D01*
X161530533Y-106387933D01*
X161563866Y-106454600D01*
X161663866Y-105654600D02*
X161630533Y-105721266D01*
X161597200Y-105754600D01*
X161530533Y-105787933D01*
X161497200Y-105787933D01*
X161430533Y-105754600D01*
X161397200Y-105721266D01*
X161363866Y-105654600D01*
X161363866Y-105521266D01*
X161397200Y-105454600D01*
X161430533Y-105421266D01*
X161497200Y-105387933D01*
X161530533Y-105387933D01*
X161597200Y-105421266D01*
X161630533Y-105454600D01*
X161663866Y-105521266D01*
X161663866Y-105654600D01*
X161697200Y-105721266D01*
X161730533Y-105754600D01*
X161797200Y-105787933D01*
X161930533Y-105787933D01*
X161997200Y-105754600D01*
X162030533Y-105721266D01*
X162063866Y-105654600D01*
X162063866Y-105521266D01*
X162030533Y-105454600D01*
X161997200Y-105421266D01*
X161930533Y-105387933D01*
X161797200Y-105387933D01*
X161730533Y-105421266D01*
X161697200Y-105454600D01*
X161663866Y-105521266D01*
%TO.C,SW1*%
X167214666Y-88700733D02*
X167314666Y-88734066D01*
X167481333Y-88734066D01*
X167548000Y-88700733D01*
X167581333Y-88667400D01*
X167614666Y-88600733D01*
X167614666Y-88534066D01*
X167581333Y-88467400D01*
X167548000Y-88434066D01*
X167481333Y-88400733D01*
X167348000Y-88367400D01*
X167281333Y-88334066D01*
X167248000Y-88300733D01*
X167214666Y-88234066D01*
X167214666Y-88167400D01*
X167248000Y-88100733D01*
X167281333Y-88067400D01*
X167348000Y-88034066D01*
X167514666Y-88034066D01*
X167614666Y-88067400D01*
X167848000Y-88034066D02*
X168014666Y-88734066D01*
X168148000Y-88234066D01*
X168281333Y-88734066D01*
X168448000Y-88034066D01*
X169081333Y-88734066D02*
X168681333Y-88734066D01*
X168881333Y-88734066D02*
X168881333Y-88034066D01*
X168814666Y-88134066D01*
X168748000Y-88200733D01*
X168681333Y-88234066D01*
%TO.C,R28*%
X158782600Y-102424666D02*
X158549266Y-102091333D01*
X158382600Y-102424666D02*
X158382600Y-101724666D01*
X158649266Y-101724666D01*
X158715933Y-101758000D01*
X158749266Y-101791333D01*
X158782600Y-101858000D01*
X158782600Y-101958000D01*
X158749266Y-102024666D01*
X158715933Y-102058000D01*
X158649266Y-102091333D01*
X158382600Y-102091333D01*
X159049266Y-101791333D02*
X159082600Y-101758000D01*
X159149266Y-101724666D01*
X159315933Y-101724666D01*
X159382600Y-101758000D01*
X159415933Y-101791333D01*
X159449266Y-101858000D01*
X159449266Y-101924666D01*
X159415933Y-102024666D01*
X159015933Y-102424666D01*
X159449266Y-102424666D01*
X159849266Y-102024666D02*
X159782600Y-101991333D01*
X159749266Y-101958000D01*
X159715933Y-101891333D01*
X159715933Y-101858000D01*
X159749266Y-101791333D01*
X159782600Y-101758000D01*
X159849266Y-101724666D01*
X159982600Y-101724666D01*
X160049266Y-101758000D01*
X160082600Y-101791333D01*
X160115933Y-101858000D01*
X160115933Y-101891333D01*
X160082600Y-101958000D01*
X160049266Y-101991333D01*
X159982600Y-102024666D01*
X159849266Y-102024666D01*
X159782600Y-102058000D01*
X159749266Y-102091333D01*
X159715933Y-102158000D01*
X159715933Y-102291333D01*
X159749266Y-102358000D01*
X159782600Y-102391333D01*
X159849266Y-102424666D01*
X159982600Y-102424666D01*
X160049266Y-102391333D01*
X160082600Y-102358000D01*
X160115933Y-102291333D01*
X160115933Y-102158000D01*
X160082600Y-102091333D01*
X160049266Y-102058000D01*
X159982600Y-102024666D01*
%TO.C,R27*%
X158782600Y-104939266D02*
X158549266Y-104605933D01*
X158382600Y-104939266D02*
X158382600Y-104239266D01*
X158649266Y-104239266D01*
X158715933Y-104272600D01*
X158749266Y-104305933D01*
X158782600Y-104372600D01*
X158782600Y-104472600D01*
X158749266Y-104539266D01*
X158715933Y-104572600D01*
X158649266Y-104605933D01*
X158382600Y-104605933D01*
X159049266Y-104305933D02*
X159082600Y-104272600D01*
X159149266Y-104239266D01*
X159315933Y-104239266D01*
X159382600Y-104272600D01*
X159415933Y-104305933D01*
X159449266Y-104372600D01*
X159449266Y-104439266D01*
X159415933Y-104539266D01*
X159015933Y-104939266D01*
X159449266Y-104939266D01*
X159682600Y-104239266D02*
X160149266Y-104239266D01*
X159849266Y-104939266D01*
%TO.C,R26*%
X146696866Y-92525000D02*
X146363533Y-92758333D01*
X146696866Y-92925000D02*
X145996866Y-92925000D01*
X145996866Y-92658333D01*
X146030200Y-92591666D01*
X146063533Y-92558333D01*
X146130200Y-92525000D01*
X146230200Y-92525000D01*
X146296866Y-92558333D01*
X146330200Y-92591666D01*
X146363533Y-92658333D01*
X146363533Y-92925000D01*
X146063533Y-92258333D02*
X146030200Y-92225000D01*
X145996866Y-92158333D01*
X145996866Y-91991666D01*
X146030200Y-91925000D01*
X146063533Y-91891666D01*
X146130200Y-91858333D01*
X146196866Y-91858333D01*
X146296866Y-91891666D01*
X146696866Y-92291666D01*
X146696866Y-91858333D01*
X145996866Y-91258333D02*
X145996866Y-91391666D01*
X146030200Y-91458333D01*
X146063533Y-91491666D01*
X146163533Y-91558333D01*
X146296866Y-91591666D01*
X146563533Y-91591666D01*
X146630200Y-91558333D01*
X146663533Y-91525000D01*
X146696866Y-91458333D01*
X146696866Y-91325000D01*
X146663533Y-91258333D01*
X146630200Y-91225000D01*
X146563533Y-91191666D01*
X146396866Y-91191666D01*
X146330200Y-91225000D01*
X146296866Y-91258333D01*
X146263533Y-91325000D01*
X146263533Y-91458333D01*
X146296866Y-91525000D01*
X146330200Y-91558333D01*
X146396866Y-91591666D01*
%TO.C,R25*%
X151776866Y-92525000D02*
X151443533Y-92758333D01*
X151776866Y-92925000D02*
X151076866Y-92925000D01*
X151076866Y-92658333D01*
X151110200Y-92591666D01*
X151143533Y-92558333D01*
X151210200Y-92525000D01*
X151310200Y-92525000D01*
X151376866Y-92558333D01*
X151410200Y-92591666D01*
X151443533Y-92658333D01*
X151443533Y-92925000D01*
X151143533Y-92258333D02*
X151110200Y-92225000D01*
X151076866Y-92158333D01*
X151076866Y-91991666D01*
X151110200Y-91925000D01*
X151143533Y-91891666D01*
X151210200Y-91858333D01*
X151276866Y-91858333D01*
X151376866Y-91891666D01*
X151776866Y-92291666D01*
X151776866Y-91858333D01*
X151076866Y-91225000D02*
X151076866Y-91558333D01*
X151410200Y-91591666D01*
X151376866Y-91558333D01*
X151343533Y-91491666D01*
X151343533Y-91325000D01*
X151376866Y-91258333D01*
X151410200Y-91225000D01*
X151476866Y-91191666D01*
X151643533Y-91191666D01*
X151710200Y-91225000D01*
X151743533Y-91258333D01*
X151776866Y-91325000D01*
X151776866Y-91491666D01*
X151743533Y-91558333D01*
X151710200Y-91591666D01*
%TO.C,R24*%
X150506866Y-109035000D02*
X150173533Y-109268333D01*
X150506866Y-109435000D02*
X149806866Y-109435000D01*
X149806866Y-109168333D01*
X149840200Y-109101666D01*
X149873533Y-109068333D01*
X149940200Y-109035000D01*
X150040200Y-109035000D01*
X150106866Y-109068333D01*
X150140200Y-109101666D01*
X150173533Y-109168333D01*
X150173533Y-109435000D01*
X149873533Y-108768333D02*
X149840200Y-108735000D01*
X149806866Y-108668333D01*
X149806866Y-108501666D01*
X149840200Y-108435000D01*
X149873533Y-108401666D01*
X149940200Y-108368333D01*
X150006866Y-108368333D01*
X150106866Y-108401666D01*
X150506866Y-108801666D01*
X150506866Y-108368333D01*
X150040200Y-107768333D02*
X150506866Y-107768333D01*
X149773533Y-107935000D02*
X150273533Y-108101666D01*
X150273533Y-107668333D01*
%TO.C,R23*%
X149262266Y-92525000D02*
X148928933Y-92758333D01*
X149262266Y-92925000D02*
X148562266Y-92925000D01*
X148562266Y-92658333D01*
X148595600Y-92591666D01*
X148628933Y-92558333D01*
X148695600Y-92525000D01*
X148795600Y-92525000D01*
X148862266Y-92558333D01*
X148895600Y-92591666D01*
X148928933Y-92658333D01*
X148928933Y-92925000D01*
X148628933Y-92258333D02*
X148595600Y-92225000D01*
X148562266Y-92158333D01*
X148562266Y-91991666D01*
X148595600Y-91925000D01*
X148628933Y-91891666D01*
X148695600Y-91858333D01*
X148762266Y-91858333D01*
X148862266Y-91891666D01*
X149262266Y-92291666D01*
X149262266Y-91858333D01*
X148562266Y-91625000D02*
X148562266Y-91191666D01*
X148828933Y-91425000D01*
X148828933Y-91325000D01*
X148862266Y-91258333D01*
X148895600Y-91225000D01*
X148962266Y-91191666D01*
X149128933Y-91191666D01*
X149195600Y-91225000D01*
X149228933Y-91258333D01*
X149262266Y-91325000D01*
X149262266Y-91525000D01*
X149228933Y-91591666D01*
X149195600Y-91625000D01*
%TO.C,R22*%
X142886866Y-109035000D02*
X142553533Y-109268333D01*
X142886866Y-109435000D02*
X142186866Y-109435000D01*
X142186866Y-109168333D01*
X142220200Y-109101666D01*
X142253533Y-109068333D01*
X142320200Y-109035000D01*
X142420200Y-109035000D01*
X142486866Y-109068333D01*
X142520200Y-109101666D01*
X142553533Y-109168333D01*
X142553533Y-109435000D01*
X142253533Y-108768333D02*
X142220200Y-108735000D01*
X142186866Y-108668333D01*
X142186866Y-108501666D01*
X142220200Y-108435000D01*
X142253533Y-108401666D01*
X142320200Y-108368333D01*
X142386866Y-108368333D01*
X142486866Y-108401666D01*
X142886866Y-108801666D01*
X142886866Y-108368333D01*
X142253533Y-108101666D02*
X142220200Y-108068333D01*
X142186866Y-108001666D01*
X142186866Y-107835000D01*
X142220200Y-107768333D01*
X142253533Y-107735000D01*
X142320200Y-107701666D01*
X142386866Y-107701666D01*
X142486866Y-107735000D01*
X142886866Y-108135000D01*
X142886866Y-107701666D01*
%TO.C,R21*%
X147966866Y-109035000D02*
X147633533Y-109268333D01*
X147966866Y-109435000D02*
X147266866Y-109435000D01*
X147266866Y-109168333D01*
X147300200Y-109101666D01*
X147333533Y-109068333D01*
X147400200Y-109035000D01*
X147500200Y-109035000D01*
X147566866Y-109068333D01*
X147600200Y-109101666D01*
X147633533Y-109168333D01*
X147633533Y-109435000D01*
X147333533Y-108768333D02*
X147300200Y-108735000D01*
X147266866Y-108668333D01*
X147266866Y-108501666D01*
X147300200Y-108435000D01*
X147333533Y-108401666D01*
X147400200Y-108368333D01*
X147466866Y-108368333D01*
X147566866Y-108401666D01*
X147966866Y-108801666D01*
X147966866Y-108368333D01*
X147966866Y-107701666D02*
X147966866Y-108101666D01*
X147966866Y-107901666D02*
X147266866Y-107901666D01*
X147366866Y-107968333D01*
X147433533Y-108035000D01*
X147466866Y-108101666D01*
%TO.C,R20*%
X141642266Y-92525000D02*
X141308933Y-92758333D01*
X141642266Y-92925000D02*
X140942266Y-92925000D01*
X140942266Y-92658333D01*
X140975600Y-92591666D01*
X141008933Y-92558333D01*
X141075600Y-92525000D01*
X141175600Y-92525000D01*
X141242266Y-92558333D01*
X141275600Y-92591666D01*
X141308933Y-92658333D01*
X141308933Y-92925000D01*
X141008933Y-92258333D02*
X140975600Y-92225000D01*
X140942266Y-92158333D01*
X140942266Y-91991666D01*
X140975600Y-91925000D01*
X141008933Y-91891666D01*
X141075600Y-91858333D01*
X141142266Y-91858333D01*
X141242266Y-91891666D01*
X141642266Y-92291666D01*
X141642266Y-91858333D01*
X140942266Y-91425000D02*
X140942266Y-91358333D01*
X140975600Y-91291666D01*
X141008933Y-91258333D01*
X141075600Y-91225000D01*
X141208933Y-91191666D01*
X141375600Y-91191666D01*
X141508933Y-91225000D01*
X141575600Y-91258333D01*
X141608933Y-91291666D01*
X141642266Y-91358333D01*
X141642266Y-91425000D01*
X141608933Y-91491666D01*
X141575600Y-91525000D01*
X141508933Y-91558333D01*
X141375600Y-91591666D01*
X141208933Y-91591666D01*
X141075600Y-91558333D01*
X141008933Y-91525000D01*
X140975600Y-91491666D01*
X140942266Y-91425000D01*
%TO.C,R5*%
X160692266Y-108701666D02*
X160358933Y-108935000D01*
X160692266Y-109101666D02*
X159992266Y-109101666D01*
X159992266Y-108835000D01*
X160025600Y-108768333D01*
X160058933Y-108735000D01*
X160125600Y-108701666D01*
X160225600Y-108701666D01*
X160292266Y-108735000D01*
X160325600Y-108768333D01*
X160358933Y-108835000D01*
X160358933Y-109101666D01*
X159992266Y-108068333D02*
X159992266Y-108401666D01*
X160325600Y-108435000D01*
X160292266Y-108401666D01*
X160258933Y-108335000D01*
X160258933Y-108168333D01*
X160292266Y-108101666D01*
X160325600Y-108068333D01*
X160392266Y-108035000D01*
X160558933Y-108035000D01*
X160625600Y-108068333D01*
X160658933Y-108101666D01*
X160692266Y-108168333D01*
X160692266Y-108335000D01*
X160658933Y-108401666D01*
X160625600Y-108435000D01*
%TO.C,R4*%
X158126866Y-108701666D02*
X157793533Y-108935000D01*
X158126866Y-109101666D02*
X157426866Y-109101666D01*
X157426866Y-108835000D01*
X157460200Y-108768333D01*
X157493533Y-108735000D01*
X157560200Y-108701666D01*
X157660200Y-108701666D01*
X157726866Y-108735000D01*
X157760200Y-108768333D01*
X157793533Y-108835000D01*
X157793533Y-109101666D01*
X157660200Y-108101666D02*
X158126866Y-108101666D01*
X157393533Y-108268333D02*
X157893533Y-108435000D01*
X157893533Y-108001666D01*
%TO.C,R3*%
X155586866Y-108701666D02*
X155253533Y-108935000D01*
X155586866Y-109101666D02*
X154886866Y-109101666D01*
X154886866Y-108835000D01*
X154920200Y-108768333D01*
X154953533Y-108735000D01*
X155020200Y-108701666D01*
X155120200Y-108701666D01*
X155186866Y-108735000D01*
X155220200Y-108768333D01*
X155253533Y-108835000D01*
X155253533Y-109101666D01*
X154886866Y-108468333D02*
X154886866Y-108035000D01*
X155153533Y-108268333D01*
X155153533Y-108168333D01*
X155186866Y-108101666D01*
X155220200Y-108068333D01*
X155286866Y-108035000D01*
X155453533Y-108035000D01*
X155520200Y-108068333D01*
X155553533Y-108101666D01*
X155586866Y-108168333D01*
X155586866Y-108368333D01*
X155553533Y-108435000D01*
X155520200Y-108468333D01*
%TO.C,R2*%
X153046866Y-108701666D02*
X152713533Y-108935000D01*
X153046866Y-109101666D02*
X152346866Y-109101666D01*
X152346866Y-108835000D01*
X152380200Y-108768333D01*
X152413533Y-108735000D01*
X152480200Y-108701666D01*
X152580200Y-108701666D01*
X152646866Y-108735000D01*
X152680200Y-108768333D01*
X152713533Y-108835000D01*
X152713533Y-109101666D01*
X152413533Y-108435000D02*
X152380200Y-108401666D01*
X152346866Y-108335000D01*
X152346866Y-108168333D01*
X152380200Y-108101666D01*
X152413533Y-108068333D01*
X152480200Y-108035000D01*
X152546866Y-108035000D01*
X152646866Y-108068333D01*
X153046866Y-108468333D01*
X153046866Y-108035000D01*
%TO.C,R9*%
X159115933Y-99884666D02*
X158882600Y-99551333D01*
X158715933Y-99884666D02*
X158715933Y-99184666D01*
X158982600Y-99184666D01*
X159049266Y-99218000D01*
X159082600Y-99251333D01*
X159115933Y-99318000D01*
X159115933Y-99418000D01*
X159082600Y-99484666D01*
X159049266Y-99518000D01*
X158982600Y-99551333D01*
X158715933Y-99551333D01*
X159449266Y-99884666D02*
X159582600Y-99884666D01*
X159649266Y-99851333D01*
X159682600Y-99818000D01*
X159749266Y-99718000D01*
X159782600Y-99584666D01*
X159782600Y-99318000D01*
X159749266Y-99251333D01*
X159715933Y-99218000D01*
X159649266Y-99184666D01*
X159515933Y-99184666D01*
X159449266Y-99218000D01*
X159415933Y-99251333D01*
X159382600Y-99318000D01*
X159382600Y-99484666D01*
X159415933Y-99551333D01*
X159449266Y-99584666D01*
X159515933Y-99618000D01*
X159649266Y-99618000D01*
X159715933Y-99584666D01*
X159749266Y-99551333D01*
X159782600Y-99484666D01*
%TO.C,R8*%
X159115933Y-97319266D02*
X158882600Y-96985933D01*
X158715933Y-97319266D02*
X158715933Y-96619266D01*
X158982600Y-96619266D01*
X159049266Y-96652600D01*
X159082600Y-96685933D01*
X159115933Y-96752600D01*
X159115933Y-96852600D01*
X159082600Y-96919266D01*
X159049266Y-96952600D01*
X158982600Y-96985933D01*
X158715933Y-96985933D01*
X159515933Y-96919266D02*
X159449266Y-96885933D01*
X159415933Y-96852600D01*
X159382600Y-96785933D01*
X159382600Y-96752600D01*
X159415933Y-96685933D01*
X159449266Y-96652600D01*
X159515933Y-96619266D01*
X159649266Y-96619266D01*
X159715933Y-96652600D01*
X159749266Y-96685933D01*
X159782600Y-96752600D01*
X159782600Y-96785933D01*
X159749266Y-96852600D01*
X159715933Y-96885933D01*
X159649266Y-96919266D01*
X159515933Y-96919266D01*
X159449266Y-96952600D01*
X159415933Y-96985933D01*
X159382600Y-97052600D01*
X159382600Y-97185933D01*
X159415933Y-97252600D01*
X159449266Y-97285933D01*
X159515933Y-97319266D01*
X159649266Y-97319266D01*
X159715933Y-97285933D01*
X159749266Y-97252600D01*
X159782600Y-97185933D01*
X159782600Y-97052600D01*
X159749266Y-96985933D01*
X159715933Y-96952600D01*
X159649266Y-96919266D01*
%TO.C,R7*%
X159115933Y-94779266D02*
X158882600Y-94445933D01*
X158715933Y-94779266D02*
X158715933Y-94079266D01*
X158982600Y-94079266D01*
X159049266Y-94112600D01*
X159082600Y-94145933D01*
X159115933Y-94212600D01*
X159115933Y-94312600D01*
X159082600Y-94379266D01*
X159049266Y-94412600D01*
X158982600Y-94445933D01*
X158715933Y-94445933D01*
X159349266Y-94079266D02*
X159815933Y-94079266D01*
X159515933Y-94779266D01*
%TO.C,R6*%
X159115933Y-92264666D02*
X158882600Y-91931333D01*
X158715933Y-92264666D02*
X158715933Y-91564666D01*
X158982600Y-91564666D01*
X159049266Y-91598000D01*
X159082600Y-91631333D01*
X159115933Y-91698000D01*
X159115933Y-91798000D01*
X159082600Y-91864666D01*
X159049266Y-91898000D01*
X158982600Y-91931333D01*
X158715933Y-91931333D01*
X159715933Y-91564666D02*
X159582600Y-91564666D01*
X159515933Y-91598000D01*
X159482600Y-91631333D01*
X159415933Y-91731333D01*
X159382600Y-91864666D01*
X159382600Y-92131333D01*
X159415933Y-92198000D01*
X159449266Y-92231333D01*
X159515933Y-92264666D01*
X159649266Y-92264666D01*
X159715933Y-92231333D01*
X159749266Y-92198000D01*
X159782600Y-92131333D01*
X159782600Y-91964666D01*
X159749266Y-91898000D01*
X159715933Y-91864666D01*
X159649266Y-91831333D01*
X159515933Y-91831333D01*
X159449266Y-91864666D01*
X159415933Y-91898000D01*
X159382600Y-91964666D01*
%TO.C,JP1*%
X133846666Y-125600166D02*
X133846666Y-126100166D01*
X133813333Y-126200166D01*
X133746666Y-126266833D01*
X133646666Y-126300166D01*
X133580000Y-126300166D01*
X134180000Y-126300166D02*
X134180000Y-125600166D01*
X134446666Y-125600166D01*
X134513333Y-125633500D01*
X134546666Y-125666833D01*
X134580000Y-125733500D01*
X134580000Y-125833500D01*
X134546666Y-125900166D01*
X134513333Y-125933500D01*
X134446666Y-125966833D01*
X134180000Y-125966833D01*
X135246666Y-126300166D02*
X134846666Y-126300166D01*
X135046666Y-126300166D02*
X135046666Y-125600166D01*
X134980000Y-125700166D01*
X134913333Y-125766833D01*
X134846666Y-125800166D01*
%TO.C,D4*%
X179056466Y-113292666D02*
X178356466Y-113292666D01*
X178356466Y-113126000D01*
X178389800Y-113026000D01*
X178456466Y-112959333D01*
X178523133Y-112926000D01*
X178656466Y-112892666D01*
X178756466Y-112892666D01*
X178889800Y-112926000D01*
X178956466Y-112959333D01*
X179023133Y-113026000D01*
X179056466Y-113126000D01*
X179056466Y-113292666D01*
X178589800Y-112292666D02*
X179056466Y-112292666D01*
X178323133Y-112459333D02*
X178823133Y-112626000D01*
X178823133Y-112192666D01*
%TO.C,D3*%
X179056466Y-107958666D02*
X178356466Y-107958666D01*
X178356466Y-107792000D01*
X178389800Y-107692000D01*
X178456466Y-107625333D01*
X178523133Y-107592000D01*
X178656466Y-107558666D01*
X178756466Y-107558666D01*
X178889800Y-107592000D01*
X178956466Y-107625333D01*
X179023133Y-107692000D01*
X179056466Y-107792000D01*
X179056466Y-107958666D01*
X178356466Y-107325333D02*
X178356466Y-106892000D01*
X178623133Y-107125333D01*
X178623133Y-107025333D01*
X178656466Y-106958666D01*
X178689800Y-106925333D01*
X178756466Y-106892000D01*
X178923133Y-106892000D01*
X178989800Y-106925333D01*
X179023133Y-106958666D01*
X179056466Y-107025333D01*
X179056466Y-107225333D01*
X179023133Y-107292000D01*
X178989800Y-107325333D01*
%TO.C,D2*%
X179056466Y-102624666D02*
X178356466Y-102624666D01*
X178356466Y-102458000D01*
X178389800Y-102358000D01*
X178456466Y-102291333D01*
X178523133Y-102258000D01*
X178656466Y-102224666D01*
X178756466Y-102224666D01*
X178889800Y-102258000D01*
X178956466Y-102291333D01*
X179023133Y-102358000D01*
X179056466Y-102458000D01*
X179056466Y-102624666D01*
X178423133Y-101958000D02*
X178389800Y-101924666D01*
X178356466Y-101858000D01*
X178356466Y-101691333D01*
X178389800Y-101624666D01*
X178423133Y-101591333D01*
X178489800Y-101558000D01*
X178556466Y-101558000D01*
X178656466Y-101591333D01*
X179056466Y-101991333D01*
X179056466Y-101558000D01*
%TO.C,D1*%
X179056466Y-97290666D02*
X178356466Y-97290666D01*
X178356466Y-97124000D01*
X178389800Y-97024000D01*
X178456466Y-96957333D01*
X178523133Y-96924000D01*
X178656466Y-96890666D01*
X178756466Y-96890666D01*
X178889800Y-96924000D01*
X178956466Y-96957333D01*
X179023133Y-97024000D01*
X179056466Y-97124000D01*
X179056466Y-97290666D01*
X179056466Y-96224000D02*
X179056466Y-96624000D01*
X179056466Y-96424000D02*
X178356466Y-96424000D01*
X178456466Y-96490666D01*
X178523133Y-96557333D01*
X178556466Y-96624000D01*
%TO.C,CP13*%
X139823000Y-101003000D02*
X139856333Y-101036333D01*
X139889666Y-101136333D01*
X139889666Y-101203000D01*
X139856333Y-101303000D01*
X139789666Y-101369666D01*
X139723000Y-101403000D01*
X139589666Y-101436333D01*
X139489666Y-101436333D01*
X139356333Y-101403000D01*
X139289666Y-101369666D01*
X139223000Y-101303000D01*
X139189666Y-101203000D01*
X139189666Y-101136333D01*
X139223000Y-101036333D01*
X139256333Y-101003000D01*
X139889666Y-100703000D02*
X139189666Y-100703000D01*
X139189666Y-100436333D01*
X139223000Y-100369666D01*
X139256333Y-100336333D01*
X139323000Y-100303000D01*
X139423000Y-100303000D01*
X139489666Y-100336333D01*
X139523000Y-100369666D01*
X139556333Y-100436333D01*
X139556333Y-100703000D01*
X139889666Y-99636333D02*
X139889666Y-100036333D01*
X139889666Y-99836333D02*
X139189666Y-99836333D01*
X139289666Y-99903000D01*
X139356333Y-99969666D01*
X139389666Y-100036333D01*
X139189666Y-99403000D02*
X139189666Y-98969666D01*
X139456333Y-99203000D01*
X139456333Y-99103000D01*
X139489666Y-99036333D01*
X139523000Y-99003000D01*
X139589666Y-98969666D01*
X139756333Y-98969666D01*
X139823000Y-99003000D01*
X139856333Y-99036333D01*
X139889666Y-99103000D01*
X139889666Y-99303000D01*
X139856333Y-99369666D01*
X139823000Y-99403000D01*
%TO.C,CP10*%
X158873000Y-84696200D02*
X158906333Y-84729533D01*
X158939666Y-84829533D01*
X158939666Y-84896200D01*
X158906333Y-84996200D01*
X158839666Y-85062866D01*
X158773000Y-85096200D01*
X158639666Y-85129533D01*
X158539666Y-85129533D01*
X158406333Y-85096200D01*
X158339666Y-85062866D01*
X158273000Y-84996200D01*
X158239666Y-84896200D01*
X158239666Y-84829533D01*
X158273000Y-84729533D01*
X158306333Y-84696200D01*
X158939666Y-84396200D02*
X158239666Y-84396200D01*
X158239666Y-84129533D01*
X158273000Y-84062866D01*
X158306333Y-84029533D01*
X158373000Y-83996200D01*
X158473000Y-83996200D01*
X158539666Y-84029533D01*
X158573000Y-84062866D01*
X158606333Y-84129533D01*
X158606333Y-84396200D01*
X158939666Y-83329533D02*
X158939666Y-83729533D01*
X158939666Y-83529533D02*
X158239666Y-83529533D01*
X158339666Y-83596200D01*
X158406333Y-83662866D01*
X158439666Y-83729533D01*
X158239666Y-82896200D02*
X158239666Y-82829533D01*
X158273000Y-82762866D01*
X158306333Y-82729533D01*
X158373000Y-82696200D01*
X158506333Y-82662866D01*
X158673000Y-82662866D01*
X158806333Y-82696200D01*
X158873000Y-82729533D01*
X158906333Y-82762866D01*
X158939666Y-82829533D01*
X158939666Y-82896200D01*
X158906333Y-82962866D01*
X158873000Y-82996200D01*
X158806333Y-83029533D01*
X158673000Y-83062866D01*
X158506333Y-83062866D01*
X158373000Y-83029533D01*
X158306333Y-82996200D01*
X158273000Y-82962866D01*
X158239666Y-82896200D01*
%TO.C,CP9*%
X134743000Y-83981866D02*
X134776333Y-84015200D01*
X134809666Y-84115200D01*
X134809666Y-84181866D01*
X134776333Y-84281866D01*
X134709666Y-84348533D01*
X134643000Y-84381866D01*
X134509666Y-84415200D01*
X134409666Y-84415200D01*
X134276333Y-84381866D01*
X134209666Y-84348533D01*
X134143000Y-84281866D01*
X134109666Y-84181866D01*
X134109666Y-84115200D01*
X134143000Y-84015200D01*
X134176333Y-83981866D01*
X134809666Y-83681866D02*
X134109666Y-83681866D01*
X134109666Y-83415200D01*
X134143000Y-83348533D01*
X134176333Y-83315200D01*
X134243000Y-83281866D01*
X134343000Y-83281866D01*
X134409666Y-83315200D01*
X134443000Y-83348533D01*
X134476333Y-83415200D01*
X134476333Y-83681866D01*
X134809666Y-82948533D02*
X134809666Y-82815200D01*
X134776333Y-82748533D01*
X134743000Y-82715200D01*
X134643000Y-82648533D01*
X134509666Y-82615200D01*
X134243000Y-82615200D01*
X134176333Y-82648533D01*
X134143000Y-82681866D01*
X134109666Y-82748533D01*
X134109666Y-82881866D01*
X134143000Y-82948533D01*
X134176333Y-82981866D01*
X134243000Y-83015200D01*
X134409666Y-83015200D01*
X134476333Y-82981866D01*
X134509666Y-82948533D01*
X134543000Y-82881866D01*
X134543000Y-82748533D01*
X134509666Y-82681866D01*
X134476333Y-82648533D01*
X134409666Y-82615200D01*
%TO.C,CP8*%
X147443000Y-84032666D02*
X147476333Y-84066000D01*
X147509666Y-84166000D01*
X147509666Y-84232666D01*
X147476333Y-84332666D01*
X147409666Y-84399333D01*
X147343000Y-84432666D01*
X147209666Y-84466000D01*
X147109666Y-84466000D01*
X146976333Y-84432666D01*
X146909666Y-84399333D01*
X146843000Y-84332666D01*
X146809666Y-84232666D01*
X146809666Y-84166000D01*
X146843000Y-84066000D01*
X146876333Y-84032666D01*
X147509666Y-83732666D02*
X146809666Y-83732666D01*
X146809666Y-83466000D01*
X146843000Y-83399333D01*
X146876333Y-83366000D01*
X146943000Y-83332666D01*
X147043000Y-83332666D01*
X147109666Y-83366000D01*
X147143000Y-83399333D01*
X147176333Y-83466000D01*
X147176333Y-83732666D01*
X147109666Y-82932666D02*
X147076333Y-82999333D01*
X147043000Y-83032666D01*
X146976333Y-83066000D01*
X146943000Y-83066000D01*
X146876333Y-83032666D01*
X146843000Y-82999333D01*
X146809666Y-82932666D01*
X146809666Y-82799333D01*
X146843000Y-82732666D01*
X146876333Y-82699333D01*
X146943000Y-82666000D01*
X146976333Y-82666000D01*
X147043000Y-82699333D01*
X147076333Y-82732666D01*
X147109666Y-82799333D01*
X147109666Y-82932666D01*
X147143000Y-82999333D01*
X147176333Y-83032666D01*
X147243000Y-83066000D01*
X147376333Y-83066000D01*
X147443000Y-83032666D01*
X147476333Y-82999333D01*
X147509666Y-82932666D01*
X147509666Y-82799333D01*
X147476333Y-82732666D01*
X147443000Y-82699333D01*
X147376333Y-82666000D01*
X147243000Y-82666000D01*
X147176333Y-82699333D01*
X147143000Y-82732666D01*
X147109666Y-82799333D01*
%TO.C,CP7*%
X123313000Y-94878466D02*
X123346333Y-94911800D01*
X123379666Y-95011800D01*
X123379666Y-95078466D01*
X123346333Y-95178466D01*
X123279666Y-95245133D01*
X123213000Y-95278466D01*
X123079666Y-95311800D01*
X122979666Y-95311800D01*
X122846333Y-95278466D01*
X122779666Y-95245133D01*
X122713000Y-95178466D01*
X122679666Y-95078466D01*
X122679666Y-95011800D01*
X122713000Y-94911800D01*
X122746333Y-94878466D01*
X123379666Y-94578466D02*
X122679666Y-94578466D01*
X122679666Y-94311800D01*
X122713000Y-94245133D01*
X122746333Y-94211800D01*
X122813000Y-94178466D01*
X122913000Y-94178466D01*
X122979666Y-94211800D01*
X123013000Y-94245133D01*
X123046333Y-94311800D01*
X123046333Y-94578466D01*
X122679666Y-93945133D02*
X122679666Y-93478466D01*
X123379666Y-93778466D01*
%TO.C,CP6*%
X123287600Y-105952866D02*
X123320933Y-105986200D01*
X123354266Y-106086200D01*
X123354266Y-106152866D01*
X123320933Y-106252866D01*
X123254266Y-106319533D01*
X123187600Y-106352866D01*
X123054266Y-106386200D01*
X122954266Y-106386200D01*
X122820933Y-106352866D01*
X122754266Y-106319533D01*
X122687600Y-106252866D01*
X122654266Y-106152866D01*
X122654266Y-106086200D01*
X122687600Y-105986200D01*
X122720933Y-105952866D01*
X123354266Y-105652866D02*
X122654266Y-105652866D01*
X122654266Y-105386200D01*
X122687600Y-105319533D01*
X122720933Y-105286200D01*
X122787600Y-105252866D01*
X122887600Y-105252866D01*
X122954266Y-105286200D01*
X122987600Y-105319533D01*
X123020933Y-105386200D01*
X123020933Y-105652866D01*
X122654266Y-104652866D02*
X122654266Y-104786200D01*
X122687600Y-104852866D01*
X122720933Y-104886200D01*
X122820933Y-104952866D01*
X122954266Y-104986200D01*
X123220933Y-104986200D01*
X123287600Y-104952866D01*
X123320933Y-104919533D01*
X123354266Y-104852866D01*
X123354266Y-104719533D01*
X123320933Y-104652866D01*
X123287600Y-104619533D01*
X123220933Y-104586200D01*
X123054266Y-104586200D01*
X122987600Y-104619533D01*
X122954266Y-104652866D01*
X122920933Y-104719533D01*
X122920933Y-104852866D01*
X122954266Y-104919533D01*
X122987600Y-104952866D01*
X123054266Y-104986200D01*
%TO.C,CP5*%
X161413000Y-117027266D02*
X161446333Y-117060600D01*
X161479666Y-117160600D01*
X161479666Y-117227266D01*
X161446333Y-117327266D01*
X161379666Y-117393933D01*
X161313000Y-117427266D01*
X161179666Y-117460600D01*
X161079666Y-117460600D01*
X160946333Y-117427266D01*
X160879666Y-117393933D01*
X160813000Y-117327266D01*
X160779666Y-117227266D01*
X160779666Y-117160600D01*
X160813000Y-117060600D01*
X160846333Y-117027266D01*
X161479666Y-116727266D02*
X160779666Y-116727266D01*
X160779666Y-116460600D01*
X160813000Y-116393933D01*
X160846333Y-116360600D01*
X160913000Y-116327266D01*
X161013000Y-116327266D01*
X161079666Y-116360600D01*
X161113000Y-116393933D01*
X161146333Y-116460600D01*
X161146333Y-116727266D01*
X160779666Y-115693933D02*
X160779666Y-116027266D01*
X161113000Y-116060600D01*
X161079666Y-116027266D01*
X161046333Y-115960600D01*
X161046333Y-115793933D01*
X161079666Y-115727266D01*
X161113000Y-115693933D01*
X161179666Y-115660600D01*
X161346333Y-115660600D01*
X161413000Y-115693933D01*
X161446333Y-115727266D01*
X161479666Y-115793933D01*
X161479666Y-115960600D01*
X161446333Y-116027266D01*
X161413000Y-116060600D01*
%TO.C,CP4*%
X148713000Y-117001866D02*
X148746333Y-117035200D01*
X148779666Y-117135200D01*
X148779666Y-117201866D01*
X148746333Y-117301866D01*
X148679666Y-117368533D01*
X148613000Y-117401866D01*
X148479666Y-117435200D01*
X148379666Y-117435200D01*
X148246333Y-117401866D01*
X148179666Y-117368533D01*
X148113000Y-117301866D01*
X148079666Y-117201866D01*
X148079666Y-117135200D01*
X148113000Y-117035200D01*
X148146333Y-117001866D01*
X148779666Y-116701866D02*
X148079666Y-116701866D01*
X148079666Y-116435200D01*
X148113000Y-116368533D01*
X148146333Y-116335200D01*
X148213000Y-116301866D01*
X148313000Y-116301866D01*
X148379666Y-116335200D01*
X148413000Y-116368533D01*
X148446333Y-116435200D01*
X148446333Y-116701866D01*
X148313000Y-115701866D02*
X148779666Y-115701866D01*
X148046333Y-115868533D02*
X148546333Y-116035200D01*
X148546333Y-115601866D01*
%TO.C,CP3*%
X136013000Y-116976466D02*
X136046333Y-117009800D01*
X136079666Y-117109800D01*
X136079666Y-117176466D01*
X136046333Y-117276466D01*
X135979666Y-117343133D01*
X135913000Y-117376466D01*
X135779666Y-117409800D01*
X135679666Y-117409800D01*
X135546333Y-117376466D01*
X135479666Y-117343133D01*
X135413000Y-117276466D01*
X135379666Y-117176466D01*
X135379666Y-117109800D01*
X135413000Y-117009800D01*
X135446333Y-116976466D01*
X136079666Y-116676466D02*
X135379666Y-116676466D01*
X135379666Y-116409800D01*
X135413000Y-116343133D01*
X135446333Y-116309800D01*
X135513000Y-116276466D01*
X135613000Y-116276466D01*
X135679666Y-116309800D01*
X135713000Y-116343133D01*
X135746333Y-116409800D01*
X135746333Y-116676466D01*
X135379666Y-116043133D02*
X135379666Y-115609800D01*
X135646333Y-115843133D01*
X135646333Y-115743133D01*
X135679666Y-115676466D01*
X135713000Y-115643133D01*
X135779666Y-115609800D01*
X135946333Y-115609800D01*
X136013000Y-115643133D01*
X136046333Y-115676466D01*
X136079666Y-115743133D01*
X136079666Y-115943133D01*
X136046333Y-116009800D01*
X136013000Y-116043133D01*
%TO.C,CP2*%
X123287600Y-117052666D02*
X123320933Y-117086000D01*
X123354266Y-117186000D01*
X123354266Y-117252666D01*
X123320933Y-117352666D01*
X123254266Y-117419333D01*
X123187600Y-117452666D01*
X123054266Y-117486000D01*
X122954266Y-117486000D01*
X122820933Y-117452666D01*
X122754266Y-117419333D01*
X122687600Y-117352666D01*
X122654266Y-117252666D01*
X122654266Y-117186000D01*
X122687600Y-117086000D01*
X122720933Y-117052666D01*
X123354266Y-116752666D02*
X122654266Y-116752666D01*
X122654266Y-116486000D01*
X122687600Y-116419333D01*
X122720933Y-116386000D01*
X122787600Y-116352666D01*
X122887600Y-116352666D01*
X122954266Y-116386000D01*
X122987600Y-116419333D01*
X123020933Y-116486000D01*
X123020933Y-116752666D01*
X122720933Y-116086000D02*
X122687600Y-116052666D01*
X122654266Y-115986000D01*
X122654266Y-115819333D01*
X122687600Y-115752666D01*
X122720933Y-115719333D01*
X122787600Y-115686000D01*
X122854266Y-115686000D01*
X122954266Y-115719333D01*
X123354266Y-116119333D01*
X123354266Y-115686000D01*
%TO.C,CP1*%
X123313000Y-84083466D02*
X123346333Y-84116800D01*
X123379666Y-84216800D01*
X123379666Y-84283466D01*
X123346333Y-84383466D01*
X123279666Y-84450133D01*
X123213000Y-84483466D01*
X123079666Y-84516800D01*
X122979666Y-84516800D01*
X122846333Y-84483466D01*
X122779666Y-84450133D01*
X122713000Y-84383466D01*
X122679666Y-84283466D01*
X122679666Y-84216800D01*
X122713000Y-84116800D01*
X122746333Y-84083466D01*
X123379666Y-83783466D02*
X122679666Y-83783466D01*
X122679666Y-83516800D01*
X122713000Y-83450133D01*
X122746333Y-83416800D01*
X122813000Y-83383466D01*
X122913000Y-83383466D01*
X122979666Y-83416800D01*
X123013000Y-83450133D01*
X123046333Y-83516800D01*
X123046333Y-83783466D01*
X123379666Y-82716800D02*
X123379666Y-83116800D01*
X123379666Y-82916800D02*
X122679666Y-82916800D01*
X122779666Y-82983466D01*
X122846333Y-83050133D01*
X122879666Y-83116800D01*
%TO.C,C4*%
X154061333Y-96135000D02*
X154028000Y-96168333D01*
X153928000Y-96201666D01*
X153861333Y-96201666D01*
X153761333Y-96168333D01*
X153694666Y-96101666D01*
X153661333Y-96035000D01*
X153628000Y-95901666D01*
X153628000Y-95801666D01*
X153661333Y-95668333D01*
X153694666Y-95601666D01*
X153761333Y-95535000D01*
X153861333Y-95501666D01*
X153928000Y-95501666D01*
X154028000Y-95535000D01*
X154061333Y-95568333D01*
X154661333Y-95735000D02*
X154661333Y-96201666D01*
X154494666Y-95468333D02*
X154328000Y-95968333D01*
X154761333Y-95968333D01*
%TO.C,C3*%
X139848400Y-108701666D02*
X139881733Y-108735000D01*
X139915066Y-108835000D01*
X139915066Y-108901666D01*
X139881733Y-109001666D01*
X139815066Y-109068333D01*
X139748400Y-109101666D01*
X139615066Y-109135000D01*
X139515066Y-109135000D01*
X139381733Y-109101666D01*
X139315066Y-109068333D01*
X139248400Y-109001666D01*
X139215066Y-108901666D01*
X139215066Y-108835000D01*
X139248400Y-108735000D01*
X139281733Y-108701666D01*
X139215066Y-108468333D02*
X139215066Y-108035000D01*
X139481733Y-108268333D01*
X139481733Y-108168333D01*
X139515066Y-108101666D01*
X139548400Y-108068333D01*
X139615066Y-108035000D01*
X139781733Y-108035000D01*
X139848400Y-108068333D01*
X139881733Y-108101666D01*
X139915066Y-108168333D01*
X139915066Y-108368333D01*
X139881733Y-108435000D01*
X139848400Y-108468333D01*
%TO.C,C2*%
X139848400Y-102986666D02*
X139881733Y-103020000D01*
X139915066Y-103120000D01*
X139915066Y-103186666D01*
X139881733Y-103286666D01*
X139815066Y-103353333D01*
X139748400Y-103386666D01*
X139615066Y-103420000D01*
X139515066Y-103420000D01*
X139381733Y-103386666D01*
X139315066Y-103353333D01*
X139248400Y-103286666D01*
X139215066Y-103186666D01*
X139215066Y-103120000D01*
X139248400Y-103020000D01*
X139281733Y-102986666D01*
X139281733Y-102720000D02*
X139248400Y-102686666D01*
X139215066Y-102620000D01*
X139215066Y-102453333D01*
X139248400Y-102386666D01*
X139281733Y-102353333D01*
X139348400Y-102320000D01*
X139415066Y-102320000D01*
X139515066Y-102353333D01*
X139915066Y-102753333D01*
X139915066Y-102320000D01*
%TO.C,C1*%
X132774500Y-123560666D02*
X132807833Y-123594000D01*
X132841166Y-123694000D01*
X132841166Y-123760666D01*
X132807833Y-123860666D01*
X132741166Y-123927333D01*
X132674500Y-123960666D01*
X132541166Y-123994000D01*
X132441166Y-123994000D01*
X132307833Y-123960666D01*
X132241166Y-123927333D01*
X132174500Y-123860666D01*
X132141166Y-123760666D01*
X132141166Y-123694000D01*
X132174500Y-123594000D01*
X132207833Y-123560666D01*
X132841166Y-122894000D02*
X132841166Y-123294000D01*
X132841166Y-123094000D02*
X132141166Y-123094000D01*
X132241166Y-123160666D01*
X132307833Y-123227333D01*
X132341166Y-123294000D01*
%TO.C,P1*%
X158939666Y-124341666D02*
X158239666Y-124341666D01*
X158239666Y-124075000D01*
X158273000Y-124008333D01*
X158306333Y-123975000D01*
X158373000Y-123941666D01*
X158473000Y-123941666D01*
X158539666Y-123975000D01*
X158573000Y-124008333D01*
X158606333Y-124075000D01*
X158606333Y-124341666D01*
X158939666Y-123275000D02*
X158939666Y-123675000D01*
X158939666Y-123475000D02*
X158239666Y-123475000D01*
X158339666Y-123541666D01*
X158406333Y-123608333D01*
X158439666Y-123675000D01*
%TO.C,P2*%
X176719666Y-124341666D02*
X176019666Y-124341666D01*
X176019666Y-124075000D01*
X176053000Y-124008333D01*
X176086333Y-123975000D01*
X176153000Y-123941666D01*
X176253000Y-123941666D01*
X176319666Y-123975000D01*
X176353000Y-124008333D01*
X176386333Y-124075000D01*
X176386333Y-124341666D01*
X176086333Y-123675000D02*
X176053000Y-123641666D01*
X176019666Y-123575000D01*
X176019666Y-123408333D01*
X176053000Y-123341666D01*
X176086333Y-123308333D01*
X176153000Y-123275000D01*
X176219666Y-123275000D01*
X176319666Y-123308333D01*
X176719666Y-123708333D01*
X176719666Y-123275000D01*
%TO.C,P3*%
X154875666Y-76081666D02*
X154175666Y-76081666D01*
X154175666Y-75815000D01*
X154209000Y-75748333D01*
X154242333Y-75715000D01*
X154309000Y-75681666D01*
X154409000Y-75681666D01*
X154475666Y-75715000D01*
X154509000Y-75748333D01*
X154542333Y-75815000D01*
X154542333Y-76081666D01*
X154175666Y-75448333D02*
X154175666Y-75015000D01*
X154442333Y-75248333D01*
X154442333Y-75148333D01*
X154475666Y-75081666D01*
X154509000Y-75048333D01*
X154575666Y-75015000D01*
X154742333Y-75015000D01*
X154809000Y-75048333D01*
X154842333Y-75081666D01*
X154875666Y-75148333D01*
X154875666Y-75348333D01*
X154842333Y-75415000D01*
X154809000Y-75448333D01*
%TO.C,P4*%
X176719666Y-76081666D02*
X176019666Y-76081666D01*
X176019666Y-75815000D01*
X176053000Y-75748333D01*
X176086333Y-75715000D01*
X176153000Y-75681666D01*
X176253000Y-75681666D01*
X176319666Y-75715000D01*
X176353000Y-75748333D01*
X176386333Y-75815000D01*
X176386333Y-76081666D01*
X176253000Y-75081666D02*
X176719666Y-75081666D01*
X175986333Y-75248333D02*
X176486333Y-75415000D01*
X176486333Y-74981666D01*
%TO.C,D5*%
X176541866Y-81161666D02*
X175841866Y-81161666D01*
X175841866Y-80995000D01*
X175875200Y-80895000D01*
X175941866Y-80828333D01*
X176008533Y-80795000D01*
X176141866Y-80761666D01*
X176241866Y-80761666D01*
X176375200Y-80795000D01*
X176441866Y-80828333D01*
X176508533Y-80895000D01*
X176541866Y-80995000D01*
X176541866Y-81161666D01*
X175841866Y-80128333D02*
X175841866Y-80461666D01*
X176175200Y-80495000D01*
X176141866Y-80461666D01*
X176108533Y-80395000D01*
X176108533Y-80228333D01*
X176141866Y-80161666D01*
X176175200Y-80128333D01*
X176241866Y-80095000D01*
X176408533Y-80095000D01*
X176475200Y-80128333D01*
X176508533Y-80161666D01*
X176541866Y-80228333D01*
X176541866Y-80395000D01*
X176508533Y-80461666D01*
X176475200Y-80495000D01*
%TO.C,D6*%
X176541866Y-86368666D02*
X175841866Y-86368666D01*
X175841866Y-86202000D01*
X175875200Y-86102000D01*
X175941866Y-86035333D01*
X176008533Y-86002000D01*
X176141866Y-85968666D01*
X176241866Y-85968666D01*
X176375200Y-86002000D01*
X176441866Y-86035333D01*
X176508533Y-86102000D01*
X176541866Y-86202000D01*
X176541866Y-86368666D01*
X175841866Y-85368666D02*
X175841866Y-85502000D01*
X175875200Y-85568666D01*
X175908533Y-85602000D01*
X176008533Y-85668666D01*
X176141866Y-85702000D01*
X176408533Y-85702000D01*
X176475200Y-85668666D01*
X176508533Y-85635333D01*
X176541866Y-85568666D01*
X176541866Y-85435333D01*
X176508533Y-85368666D01*
X176475200Y-85335333D01*
X176408533Y-85302000D01*
X176241866Y-85302000D01*
X176175200Y-85335333D01*
X176141866Y-85368666D01*
X176108533Y-85435333D01*
X176108533Y-85568666D01*
X176141866Y-85635333D01*
X176175200Y-85668666D01*
X176241866Y-85702000D01*
%TO.C,R38*%
X171055666Y-81095000D02*
X170722333Y-81328333D01*
X171055666Y-81495000D02*
X170355666Y-81495000D01*
X170355666Y-81228333D01*
X170389000Y-81161666D01*
X170422333Y-81128333D01*
X170489000Y-81095000D01*
X170589000Y-81095000D01*
X170655666Y-81128333D01*
X170689000Y-81161666D01*
X170722333Y-81228333D01*
X170722333Y-81495000D01*
X170355666Y-80861666D02*
X170355666Y-80428333D01*
X170622333Y-80661666D01*
X170622333Y-80561666D01*
X170655666Y-80495000D01*
X170689000Y-80461666D01*
X170755666Y-80428333D01*
X170922333Y-80428333D01*
X170989000Y-80461666D01*
X171022333Y-80495000D01*
X171055666Y-80561666D01*
X171055666Y-80761666D01*
X171022333Y-80828333D01*
X170989000Y-80861666D01*
X170655666Y-80028333D02*
X170622333Y-80095000D01*
X170589000Y-80128333D01*
X170522333Y-80161666D01*
X170489000Y-80161666D01*
X170422333Y-80128333D01*
X170389000Y-80095000D01*
X170355666Y-80028333D01*
X170355666Y-79895000D01*
X170389000Y-79828333D01*
X170422333Y-79795000D01*
X170489000Y-79761666D01*
X170522333Y-79761666D01*
X170589000Y-79795000D01*
X170622333Y-79828333D01*
X170655666Y-79895000D01*
X170655666Y-80028333D01*
X170689000Y-80095000D01*
X170722333Y-80128333D01*
X170789000Y-80161666D01*
X170922333Y-80161666D01*
X170989000Y-80128333D01*
X171022333Y-80095000D01*
X171055666Y-80028333D01*
X171055666Y-79895000D01*
X171022333Y-79828333D01*
X170989000Y-79795000D01*
X170922333Y-79761666D01*
X170789000Y-79761666D01*
X170722333Y-79795000D01*
X170689000Y-79828333D01*
X170655666Y-79895000D01*
%TO.C,R39*%
X171055666Y-86302000D02*
X170722333Y-86535333D01*
X171055666Y-86702000D02*
X170355666Y-86702000D01*
X170355666Y-86435333D01*
X170389000Y-86368666D01*
X170422333Y-86335333D01*
X170489000Y-86302000D01*
X170589000Y-86302000D01*
X170655666Y-86335333D01*
X170689000Y-86368666D01*
X170722333Y-86435333D01*
X170722333Y-86702000D01*
X170355666Y-86068666D02*
X170355666Y-85635333D01*
X170622333Y-85868666D01*
X170622333Y-85768666D01*
X170655666Y-85702000D01*
X170689000Y-85668666D01*
X170755666Y-85635333D01*
X170922333Y-85635333D01*
X170989000Y-85668666D01*
X171022333Y-85702000D01*
X171055666Y-85768666D01*
X171055666Y-85968666D01*
X171022333Y-86035333D01*
X170989000Y-86068666D01*
X171055666Y-85302000D02*
X171055666Y-85168666D01*
X171022333Y-85102000D01*
X170989000Y-85068666D01*
X170889000Y-85002000D01*
X170755666Y-84968666D01*
X170489000Y-84968666D01*
X170422333Y-85002000D01*
X170389000Y-85035333D01*
X170355666Y-85102000D01*
X170355666Y-85235333D01*
X170389000Y-85302000D01*
X170422333Y-85335333D01*
X170489000Y-85368666D01*
X170655666Y-85368666D01*
X170722333Y-85335333D01*
X170755666Y-85302000D01*
X170789000Y-85235333D01*
X170789000Y-85102000D01*
X170755666Y-85035333D01*
X170722333Y-85002000D01*
X170655666Y-84968666D01*
%TO.C,TP1*%
D11*
X139581095Y-71366380D02*
X140152523Y-71366380D01*
X139866809Y-72366380D02*
X139866809Y-71366380D01*
X140485857Y-72366380D02*
X140485857Y-71366380D01*
X140866809Y-71366380D01*
X140962047Y-71414000D01*
X141009666Y-71461619D01*
X141057285Y-71556857D01*
X141057285Y-71699714D01*
X141009666Y-71794952D01*
X140962047Y-71842571D01*
X140866809Y-71890190D01*
X140485857Y-71890190D01*
X142009666Y-72366380D02*
X141438238Y-72366380D01*
X141723952Y-72366380D02*
X141723952Y-71366380D01*
X141628714Y-71509238D01*
X141533476Y-71604476D01*
X141438238Y-71652095D01*
%TO.C,TP2*%
X135771095Y-71366380D02*
X136342523Y-71366380D01*
X136056809Y-72366380D02*
X136056809Y-71366380D01*
X136675857Y-72366380D02*
X136675857Y-71366380D01*
X137056809Y-71366380D01*
X137152047Y-71414000D01*
X137199666Y-71461619D01*
X137247285Y-71556857D01*
X137247285Y-71699714D01*
X137199666Y-71794952D01*
X137152047Y-71842571D01*
X137056809Y-71890190D01*
X136675857Y-71890190D01*
X137628238Y-71461619D02*
X137675857Y-71414000D01*
X137771095Y-71366380D01*
X138009190Y-71366380D01*
X138104428Y-71414000D01*
X138152047Y-71461619D01*
X138199666Y-71556857D01*
X138199666Y-71652095D01*
X138152047Y-71794952D01*
X137580619Y-72366380D01*
X138199666Y-72366380D01*
%TO.C,TP3*%
X139581095Y-71366380D02*
X140152523Y-71366380D01*
X139866809Y-72366380D02*
X139866809Y-71366380D01*
X140485857Y-72366380D02*
X140485857Y-71366380D01*
X140866809Y-71366380D01*
X140962047Y-71414000D01*
X141009666Y-71461619D01*
X141057285Y-71556857D01*
X141057285Y-71699714D01*
X141009666Y-71794952D01*
X140962047Y-71842571D01*
X140866809Y-71890190D01*
X140485857Y-71890190D01*
X141390619Y-71366380D02*
X142009666Y-71366380D01*
X141676333Y-71747333D01*
X141819190Y-71747333D01*
X141914428Y-71794952D01*
X141962047Y-71842571D01*
X142009666Y-71937809D01*
X142009666Y-72175904D01*
X141962047Y-72271142D01*
X141914428Y-72318761D01*
X141819190Y-72366380D01*
X141533476Y-72366380D01*
X141438238Y-72318761D01*
X141390619Y-72271142D01*
%TO.C,TP4*%
X143391095Y-71366380D02*
X143962523Y-71366380D01*
X143676809Y-72366380D02*
X143676809Y-71366380D01*
X144295857Y-72366380D02*
X144295857Y-71366380D01*
X144676809Y-71366380D01*
X144772047Y-71414000D01*
X144819666Y-71461619D01*
X144867285Y-71556857D01*
X144867285Y-71699714D01*
X144819666Y-71794952D01*
X144772047Y-71842571D01*
X144676809Y-71890190D01*
X144295857Y-71890190D01*
X145724428Y-71699714D02*
X145724428Y-72366380D01*
X145486333Y-71318761D02*
X145248238Y-72033047D01*
X145867285Y-72033047D01*
%TO.C,TP5*%
X128100095Y-71340980D02*
X128671523Y-71340980D01*
X128385809Y-72340980D02*
X128385809Y-71340980D01*
X129004857Y-72340980D02*
X129004857Y-71340980D01*
X129385809Y-71340980D01*
X129481047Y-71388600D01*
X129528666Y-71436219D01*
X129576285Y-71531457D01*
X129576285Y-71674314D01*
X129528666Y-71769552D01*
X129481047Y-71817171D01*
X129385809Y-71864790D01*
X129004857Y-71864790D01*
X130481047Y-71340980D02*
X130004857Y-71340980D01*
X129957238Y-71817171D01*
X130004857Y-71769552D01*
X130100095Y-71721933D01*
X130338190Y-71721933D01*
X130433428Y-71769552D01*
X130481047Y-71817171D01*
X130528666Y-71912409D01*
X130528666Y-72150504D01*
X130481047Y-72245742D01*
X130433428Y-72293361D01*
X130338190Y-72340980D01*
X130100095Y-72340980D01*
X130004857Y-72293361D01*
X129957238Y-72245742D01*
%TO.C,TP6*%
X130640095Y-71340980D02*
X131211523Y-71340980D01*
X130925809Y-72340980D02*
X130925809Y-71340980D01*
X131544857Y-72340980D02*
X131544857Y-71340980D01*
X131925809Y-71340980D01*
X132021047Y-71388600D01*
X132068666Y-71436219D01*
X132116285Y-71531457D01*
X132116285Y-71674314D01*
X132068666Y-71769552D01*
X132021047Y-71817171D01*
X131925809Y-71864790D01*
X131544857Y-71864790D01*
X132973428Y-71340980D02*
X132782952Y-71340980D01*
X132687714Y-71388600D01*
X132640095Y-71436219D01*
X132544857Y-71579076D01*
X132497238Y-71769552D01*
X132497238Y-72150504D01*
X132544857Y-72245742D01*
X132592476Y-72293361D01*
X132687714Y-72340980D01*
X132878190Y-72340980D01*
X132973428Y-72293361D01*
X133021047Y-72245742D01*
X133068666Y-72150504D01*
X133068666Y-71912409D01*
X133021047Y-71817171D01*
X132973428Y-71769552D01*
X132878190Y-71721933D01*
X132687714Y-71721933D01*
X132592476Y-71769552D01*
X132544857Y-71817171D01*
X132497238Y-71912409D01*
%TO.C,TP7*%
X133231095Y-127119380D02*
X133802523Y-127119380D01*
X133516809Y-128119380D02*
X133516809Y-127119380D01*
X134135857Y-128119380D02*
X134135857Y-127119380D01*
X134516809Y-127119380D01*
X134612047Y-127167000D01*
X134659666Y-127214619D01*
X134707285Y-127309857D01*
X134707285Y-127452714D01*
X134659666Y-127547952D01*
X134612047Y-127595571D01*
X134516809Y-127643190D01*
X134135857Y-127643190D01*
X135040619Y-127119380D02*
X135707285Y-127119380D01*
X135278714Y-128119380D01*
%TO.C,TP8*%
X145931095Y-127119380D02*
X146502523Y-127119380D01*
X146216809Y-128119380D02*
X146216809Y-127119380D01*
X146835857Y-128119380D02*
X146835857Y-127119380D01*
X147216809Y-127119380D01*
X147312047Y-127167000D01*
X147359666Y-127214619D01*
X147407285Y-127309857D01*
X147407285Y-127452714D01*
X147359666Y-127547952D01*
X147312047Y-127595571D01*
X147216809Y-127643190D01*
X146835857Y-127643190D01*
X147978714Y-127547952D02*
X147883476Y-127500333D01*
X147835857Y-127452714D01*
X147788238Y-127357476D01*
X147788238Y-127309857D01*
X147835857Y-127214619D01*
X147883476Y-127167000D01*
X147978714Y-127119380D01*
X148169190Y-127119380D01*
X148264428Y-127167000D01*
X148312047Y-127214619D01*
X148359666Y-127309857D01*
X148359666Y-127357476D01*
X148312047Y-127452714D01*
X148264428Y-127500333D01*
X148169190Y-127547952D01*
X147978714Y-127547952D01*
X147883476Y-127595571D01*
X147835857Y-127643190D01*
X147788238Y-127738428D01*
X147788238Y-127928904D01*
X147835857Y-128024142D01*
X147883476Y-128071761D01*
X147978714Y-128119380D01*
X148169190Y-128119380D01*
X148264428Y-128071761D01*
X148312047Y-128024142D01*
X148359666Y-127928904D01*
X148359666Y-127738428D01*
X148312047Y-127643190D01*
X148264428Y-127595571D01*
X148169190Y-127547952D01*
%TO.C,TP9*%
X158631095Y-127119380D02*
X159202523Y-127119380D01*
X158916809Y-128119380D02*
X158916809Y-127119380D01*
X159535857Y-128119380D02*
X159535857Y-127119380D01*
X159916809Y-127119380D01*
X160012047Y-127167000D01*
X160059666Y-127214619D01*
X160107285Y-127309857D01*
X160107285Y-127452714D01*
X160059666Y-127547952D01*
X160012047Y-127595571D01*
X159916809Y-127643190D01*
X159535857Y-127643190D01*
X160583476Y-128119380D02*
X160773952Y-128119380D01*
X160869190Y-128071761D01*
X160916809Y-128024142D01*
X161012047Y-127881285D01*
X161059666Y-127690809D01*
X161059666Y-127309857D01*
X161012047Y-127214619D01*
X160964428Y-127167000D01*
X160869190Y-127119380D01*
X160678714Y-127119380D01*
X160583476Y-127167000D01*
X160535857Y-127214619D01*
X160488238Y-127309857D01*
X160488238Y-127547952D01*
X160535857Y-127643190D01*
X160583476Y-127690809D01*
X160678714Y-127738428D01*
X160869190Y-127738428D01*
X160964428Y-127690809D01*
X161012047Y-127643190D01*
X161059666Y-127547952D01*
%TO.C,TP10*%
X170854904Y-127119380D02*
X171426333Y-127119380D01*
X171140619Y-128119380D02*
X171140619Y-127119380D01*
X171759666Y-128119380D02*
X171759666Y-127119380D01*
X172140619Y-127119380D01*
X172235857Y-127167000D01*
X172283476Y-127214619D01*
X172331095Y-127309857D01*
X172331095Y-127452714D01*
X172283476Y-127547952D01*
X172235857Y-127595571D01*
X172140619Y-127643190D01*
X171759666Y-127643190D01*
X173283476Y-128119380D02*
X172712047Y-128119380D01*
X172997761Y-128119380D02*
X172997761Y-127119380D01*
X172902523Y-127262238D01*
X172807285Y-127357476D01*
X172712047Y-127405095D01*
X173902523Y-127119380D02*
X173997761Y-127119380D01*
X174093000Y-127167000D01*
X174140619Y-127214619D01*
X174188238Y-127309857D01*
X174235857Y-127500333D01*
X174235857Y-127738428D01*
X174188238Y-127928904D01*
X174140619Y-128024142D01*
X174093000Y-128071761D01*
X173997761Y-128119380D01*
X173902523Y-128119380D01*
X173807285Y-128071761D01*
X173759666Y-128024142D01*
X173712047Y-127928904D01*
X173664428Y-127738428D01*
X173664428Y-127500333D01*
X173712047Y-127309857D01*
X173759666Y-127214619D01*
X173807285Y-127167000D01*
X173902523Y-127119380D01*
%TO.C,TP11*%
X150534904Y-71366380D02*
X151106333Y-71366380D01*
X150820619Y-72366380D02*
X150820619Y-71366380D01*
X151439666Y-72366380D02*
X151439666Y-71366380D01*
X151820619Y-71366380D01*
X151915857Y-71414000D01*
X151963476Y-71461619D01*
X152011095Y-71556857D01*
X152011095Y-71699714D01*
X151963476Y-71794952D01*
X151915857Y-71842571D01*
X151820619Y-71890190D01*
X151439666Y-71890190D01*
X152963476Y-72366380D02*
X152392047Y-72366380D01*
X152677761Y-72366380D02*
X152677761Y-71366380D01*
X152582523Y-71509238D01*
X152487285Y-71604476D01*
X152392047Y-71652095D01*
X153915857Y-72366380D02*
X153344428Y-72366380D01*
X153630142Y-72366380D02*
X153630142Y-71366380D01*
X153534904Y-71509238D01*
X153439666Y-71604476D01*
X153344428Y-71652095D01*
%TO.C,TP12*%
X148375904Y-71366380D02*
X148947333Y-71366380D01*
X148661619Y-72366380D02*
X148661619Y-71366380D01*
X149280666Y-72366380D02*
X149280666Y-71366380D01*
X149661619Y-71366380D01*
X149756857Y-71414000D01*
X149804476Y-71461619D01*
X149852095Y-71556857D01*
X149852095Y-71699714D01*
X149804476Y-71794952D01*
X149756857Y-71842571D01*
X149661619Y-71890190D01*
X149280666Y-71890190D01*
X150804476Y-72366380D02*
X150233047Y-72366380D01*
X150518761Y-72366380D02*
X150518761Y-71366380D01*
X150423523Y-71509238D01*
X150328285Y-71604476D01*
X150233047Y-71652095D01*
X151185428Y-71461619D02*
X151233047Y-71414000D01*
X151328285Y-71366380D01*
X151566380Y-71366380D01*
X151661619Y-71414000D01*
X151709238Y-71461619D01*
X151756857Y-71556857D01*
X151756857Y-71652095D01*
X151709238Y-71794952D01*
X151137809Y-72366380D01*
X151756857Y-72366380D01*
%TO.C,TP13*%
X147994904Y-127112780D02*
X148566333Y-127112780D01*
X148280619Y-128112780D02*
X148280619Y-127112780D01*
X148899666Y-128112780D02*
X148899666Y-127112780D01*
X149280619Y-127112780D01*
X149375857Y-127160400D01*
X149423476Y-127208019D01*
X149471095Y-127303257D01*
X149471095Y-127446114D01*
X149423476Y-127541352D01*
X149375857Y-127588971D01*
X149280619Y-127636590D01*
X148899666Y-127636590D01*
X150423476Y-128112780D02*
X149852047Y-128112780D01*
X150137761Y-128112780D02*
X150137761Y-127112780D01*
X150042523Y-127255638D01*
X149947285Y-127350876D01*
X149852047Y-127398495D01*
X150756809Y-127112780D02*
X151375857Y-127112780D01*
X151042523Y-127493733D01*
X151185380Y-127493733D01*
X151280619Y-127541352D01*
X151328238Y-127588971D01*
X151375857Y-127684209D01*
X151375857Y-127922304D01*
X151328238Y-128017542D01*
X151280619Y-128065161D01*
X151185380Y-128112780D01*
X150899666Y-128112780D01*
X150804428Y-128065161D01*
X150756809Y-128017542D01*
%TO.C,TP14*%
X150534904Y-127112780D02*
X151106333Y-127112780D01*
X150820619Y-128112780D02*
X150820619Y-127112780D01*
X151439666Y-128112780D02*
X151439666Y-127112780D01*
X151820619Y-127112780D01*
X151915857Y-127160400D01*
X151963476Y-127208019D01*
X152011095Y-127303257D01*
X152011095Y-127446114D01*
X151963476Y-127541352D01*
X151915857Y-127588971D01*
X151820619Y-127636590D01*
X151439666Y-127636590D01*
X152963476Y-128112780D02*
X152392047Y-128112780D01*
X152677761Y-128112780D02*
X152677761Y-127112780D01*
X152582523Y-127255638D01*
X152487285Y-127350876D01*
X152392047Y-127398495D01*
X153820619Y-127446114D02*
X153820619Y-128112780D01*
X153582523Y-127065161D02*
X153344428Y-127779447D01*
X153963476Y-127779447D01*
%TO.C,TP15*%
X153074904Y-127112780D02*
X153646333Y-127112780D01*
X153360619Y-128112780D02*
X153360619Y-127112780D01*
X153979666Y-128112780D02*
X153979666Y-127112780D01*
X154360619Y-127112780D01*
X154455857Y-127160400D01*
X154503476Y-127208019D01*
X154551095Y-127303257D01*
X154551095Y-127446114D01*
X154503476Y-127541352D01*
X154455857Y-127588971D01*
X154360619Y-127636590D01*
X153979666Y-127636590D01*
X155503476Y-128112780D02*
X154932047Y-128112780D01*
X155217761Y-128112780D02*
X155217761Y-127112780D01*
X155122523Y-127255638D01*
X155027285Y-127350876D01*
X154932047Y-127398495D01*
X156408238Y-127112780D02*
X155932047Y-127112780D01*
X155884428Y-127588971D01*
X155932047Y-127541352D01*
X156027285Y-127493733D01*
X156265380Y-127493733D01*
X156360619Y-127541352D01*
X156408238Y-127588971D01*
X156455857Y-127684209D01*
X156455857Y-127922304D01*
X156408238Y-128017542D01*
X156360619Y-128065161D01*
X156265380Y-128112780D01*
X156027285Y-128112780D01*
X155932047Y-128065161D01*
X155884428Y-128017542D01*
%TO.C,TP16*%
X155614904Y-127112780D02*
X156186333Y-127112780D01*
X155900619Y-128112780D02*
X155900619Y-127112780D01*
X156519666Y-128112780D02*
X156519666Y-127112780D01*
X156900619Y-127112780D01*
X156995857Y-127160400D01*
X157043476Y-127208019D01*
X157091095Y-127303257D01*
X157091095Y-127446114D01*
X157043476Y-127541352D01*
X156995857Y-127588971D01*
X156900619Y-127636590D01*
X156519666Y-127636590D01*
X158043476Y-128112780D02*
X157472047Y-128112780D01*
X157757761Y-128112780D02*
X157757761Y-127112780D01*
X157662523Y-127255638D01*
X157567285Y-127350876D01*
X157472047Y-127398495D01*
X158900619Y-127112780D02*
X158710142Y-127112780D01*
X158614904Y-127160400D01*
X158567285Y-127208019D01*
X158472047Y-127350876D01*
X158424428Y-127541352D01*
X158424428Y-127922304D01*
X158472047Y-128017542D01*
X158519666Y-128065161D01*
X158614904Y-128112780D01*
X158805380Y-128112780D01*
X158900619Y-128065161D01*
X158948238Y-128017542D01*
X158995857Y-127922304D01*
X158995857Y-127684209D01*
X158948238Y-127588971D01*
X158900619Y-127541352D01*
X158805380Y-127493733D01*
X158614904Y-127493733D01*
X158519666Y-127541352D01*
X158472047Y-127588971D01*
X158424428Y-127684209D01*
%TO.C,TP17*%
X149772904Y-127087380D02*
X150344333Y-127087380D01*
X150058619Y-128087380D02*
X150058619Y-127087380D01*
X150677666Y-128087380D02*
X150677666Y-127087380D01*
X151058619Y-127087380D01*
X151153857Y-127135000D01*
X151201476Y-127182619D01*
X151249095Y-127277857D01*
X151249095Y-127420714D01*
X151201476Y-127515952D01*
X151153857Y-127563571D01*
X151058619Y-127611190D01*
X150677666Y-127611190D01*
X152201476Y-128087380D02*
X151630047Y-128087380D01*
X151915761Y-128087380D02*
X151915761Y-127087380D01*
X151820523Y-127230238D01*
X151725285Y-127325476D01*
X151630047Y-127373095D01*
X152534809Y-127087380D02*
X153201476Y-127087380D01*
X152772904Y-128087380D01*
%TO.C,TP18*%
X136564904Y-71359780D02*
X137136333Y-71359780D01*
X136850619Y-72359780D02*
X136850619Y-71359780D01*
X137469666Y-72359780D02*
X137469666Y-71359780D01*
X137850619Y-71359780D01*
X137945857Y-71407400D01*
X137993476Y-71455019D01*
X138041095Y-71550257D01*
X138041095Y-71693114D01*
X137993476Y-71788352D01*
X137945857Y-71835971D01*
X137850619Y-71883590D01*
X137469666Y-71883590D01*
X138993476Y-72359780D02*
X138422047Y-72359780D01*
X138707761Y-72359780D02*
X138707761Y-71359780D01*
X138612523Y-71502638D01*
X138517285Y-71597876D01*
X138422047Y-71645495D01*
X139564904Y-71788352D02*
X139469666Y-71740733D01*
X139422047Y-71693114D01*
X139374428Y-71597876D01*
X139374428Y-71550257D01*
X139422047Y-71455019D01*
X139469666Y-71407400D01*
X139564904Y-71359780D01*
X139755380Y-71359780D01*
X139850619Y-71407400D01*
X139898238Y-71455019D01*
X139945857Y-71550257D01*
X139945857Y-71597876D01*
X139898238Y-71693114D01*
X139850619Y-71740733D01*
X139755380Y-71788352D01*
X139564904Y-71788352D01*
X139469666Y-71835971D01*
X139422047Y-71883590D01*
X139374428Y-71978828D01*
X139374428Y-72169304D01*
X139422047Y-72264542D01*
X139469666Y-72312161D01*
X139564904Y-72359780D01*
X139755380Y-72359780D01*
X139850619Y-72312161D01*
X139898238Y-72264542D01*
X139945857Y-72169304D01*
X139945857Y-71978828D01*
X139898238Y-71883590D01*
X139850619Y-71835971D01*
X139755380Y-71788352D01*
%TO.C,U1*%
X123719380Y-86613904D02*
X124528904Y-86613904D01*
X124624142Y-86566285D01*
X124671761Y-86518666D01*
X124719380Y-86423428D01*
X124719380Y-86232952D01*
X124671761Y-86137714D01*
X124624142Y-86090095D01*
X124528904Y-86042476D01*
X123719380Y-86042476D01*
X124719380Y-85042476D02*
X124719380Y-85613904D01*
X124719380Y-85328190D02*
X123719380Y-85328190D01*
X123862238Y-85423428D01*
X123957476Y-85518666D01*
X124005095Y-85613904D01*
%TO.C,U2*%
X123754380Y-119633904D02*
X124563904Y-119633904D01*
X124659142Y-119586285D01*
X124706761Y-119538666D01*
X124754380Y-119443428D01*
X124754380Y-119252952D01*
X124706761Y-119157714D01*
X124659142Y-119110095D01*
X124563904Y-119062476D01*
X123754380Y-119062476D01*
X123849619Y-118633904D02*
X123802000Y-118586285D01*
X123754380Y-118491047D01*
X123754380Y-118252952D01*
X123802000Y-118157714D01*
X123849619Y-118110095D01*
X123944857Y-118062476D01*
X124040095Y-118062476D01*
X124182952Y-118110095D01*
X124754380Y-118681523D01*
X124754380Y-118062476D01*
%TO.C,U3*%
X136454380Y-119633904D02*
X137263904Y-119633904D01*
X137359142Y-119586285D01*
X137406761Y-119538666D01*
X137454380Y-119443428D01*
X137454380Y-119252952D01*
X137406761Y-119157714D01*
X137359142Y-119110095D01*
X137263904Y-119062476D01*
X136454380Y-119062476D01*
X136454380Y-118681523D02*
X136454380Y-118062476D01*
X136835333Y-118395809D01*
X136835333Y-118252952D01*
X136882952Y-118157714D01*
X136930571Y-118110095D01*
X137025809Y-118062476D01*
X137263904Y-118062476D01*
X137359142Y-118110095D01*
X137406761Y-118157714D01*
X137454380Y-118252952D01*
X137454380Y-118538666D01*
X137406761Y-118633904D01*
X137359142Y-118681523D01*
%TO.C,U4*%
X149154380Y-119633904D02*
X149963904Y-119633904D01*
X150059142Y-119586285D01*
X150106761Y-119538666D01*
X150154380Y-119443428D01*
X150154380Y-119252952D01*
X150106761Y-119157714D01*
X150059142Y-119110095D01*
X149963904Y-119062476D01*
X149154380Y-119062476D01*
X149487714Y-118157714D02*
X150154380Y-118157714D01*
X149106761Y-118395809D02*
X149821047Y-118633904D01*
X149821047Y-118014857D01*
%TO.C,U5*%
X161854380Y-119633904D02*
X162663904Y-119633904D01*
X162759142Y-119586285D01*
X162806761Y-119538666D01*
X162854380Y-119443428D01*
X162854380Y-119252952D01*
X162806761Y-119157714D01*
X162759142Y-119110095D01*
X162663904Y-119062476D01*
X161854380Y-119062476D01*
X161854380Y-118110095D02*
X161854380Y-118586285D01*
X162330571Y-118633904D01*
X162282952Y-118586285D01*
X162235333Y-118491047D01*
X162235333Y-118252952D01*
X162282952Y-118157714D01*
X162330571Y-118110095D01*
X162425809Y-118062476D01*
X162663904Y-118062476D01*
X162759142Y-118110095D01*
X162806761Y-118157714D01*
X162854380Y-118252952D01*
X162854380Y-118491047D01*
X162806761Y-118586285D01*
X162759142Y-118633904D01*
%TO.C,U6*%
X123754380Y-108584904D02*
X124563904Y-108584904D01*
X124659142Y-108537285D01*
X124706761Y-108489666D01*
X124754380Y-108394428D01*
X124754380Y-108203952D01*
X124706761Y-108108714D01*
X124659142Y-108061095D01*
X124563904Y-108013476D01*
X123754380Y-108013476D01*
X123754380Y-107108714D02*
X123754380Y-107299190D01*
X123802000Y-107394428D01*
X123849619Y-107442047D01*
X123992476Y-107537285D01*
X124182952Y-107584904D01*
X124563904Y-107584904D01*
X124659142Y-107537285D01*
X124706761Y-107489666D01*
X124754380Y-107394428D01*
X124754380Y-107203952D01*
X124706761Y-107108714D01*
X124659142Y-107061095D01*
X124563904Y-107013476D01*
X124325809Y-107013476D01*
X124230571Y-107061095D01*
X124182952Y-107108714D01*
X124135333Y-107203952D01*
X124135333Y-107394428D01*
X124182952Y-107489666D01*
X124230571Y-107537285D01*
X124325809Y-107584904D01*
%TO.C,U7*%
X123754380Y-97662904D02*
X124563904Y-97662904D01*
X124659142Y-97615285D01*
X124706761Y-97567666D01*
X124754380Y-97472428D01*
X124754380Y-97281952D01*
X124706761Y-97186714D01*
X124659142Y-97139095D01*
X124563904Y-97091476D01*
X123754380Y-97091476D01*
X123754380Y-96710523D02*
X123754380Y-96043857D01*
X124754380Y-96472428D01*
%TO.C,U8*%
X147889980Y-86588504D02*
X148699504Y-86588504D01*
X148794742Y-86540885D01*
X148842361Y-86493266D01*
X148889980Y-86398028D01*
X148889980Y-86207552D01*
X148842361Y-86112314D01*
X148794742Y-86064695D01*
X148699504Y-86017076D01*
X147889980Y-86017076D01*
X148318552Y-85398028D02*
X148270933Y-85493266D01*
X148223314Y-85540885D01*
X148128076Y-85588504D01*
X148080457Y-85588504D01*
X147985219Y-85540885D01*
X147937600Y-85493266D01*
X147889980Y-85398028D01*
X147889980Y-85207552D01*
X147937600Y-85112314D01*
X147985219Y-85064695D01*
X148080457Y-85017076D01*
X148128076Y-85017076D01*
X148223314Y-85064695D01*
X148270933Y-85112314D01*
X148318552Y-85207552D01*
X148318552Y-85398028D01*
X148366171Y-85493266D01*
X148413790Y-85540885D01*
X148509028Y-85588504D01*
X148699504Y-85588504D01*
X148794742Y-85540885D01*
X148842361Y-85493266D01*
X148889980Y-85398028D01*
X148889980Y-85207552D01*
X148842361Y-85112314D01*
X148794742Y-85064695D01*
X148699504Y-85017076D01*
X148509028Y-85017076D01*
X148413790Y-85064695D01*
X148366171Y-85112314D01*
X148318552Y-85207552D01*
%TO.C,U9*%
X135184380Y-86613904D02*
X135993904Y-86613904D01*
X136089142Y-86566285D01*
X136136761Y-86518666D01*
X136184380Y-86423428D01*
X136184380Y-86232952D01*
X136136761Y-86137714D01*
X136089142Y-86090095D01*
X135993904Y-86042476D01*
X135184380Y-86042476D01*
X136184380Y-85518666D02*
X136184380Y-85328190D01*
X136136761Y-85232952D01*
X136089142Y-85185333D01*
X135946285Y-85090095D01*
X135755809Y-85042476D01*
X135374857Y-85042476D01*
X135279619Y-85090095D01*
X135232000Y-85137714D01*
X135184380Y-85232952D01*
X135184380Y-85423428D01*
X135232000Y-85518666D01*
X135279619Y-85566285D01*
X135374857Y-85613904D01*
X135612952Y-85613904D01*
X135708190Y-85566285D01*
X135755809Y-85518666D01*
X135803428Y-85423428D01*
X135803428Y-85232952D01*
X135755809Y-85137714D01*
X135708190Y-85090095D01*
X135612952Y-85042476D01*
%TO.C,U10*%
X159304380Y-86607495D02*
X160113904Y-86607495D01*
X160209142Y-86559876D01*
X160256761Y-86512257D01*
X160304380Y-86417019D01*
X160304380Y-86226542D01*
X160256761Y-86131304D01*
X160209142Y-86083685D01*
X160113904Y-86036066D01*
X159304380Y-86036066D01*
X160304380Y-85036066D02*
X160304380Y-85607495D01*
X160304380Y-85321780D02*
X159304380Y-85321780D01*
X159447238Y-85417019D01*
X159542476Y-85512257D01*
X159590095Y-85607495D01*
X159304380Y-84417019D02*
X159304380Y-84321780D01*
X159352000Y-84226542D01*
X159399619Y-84178923D01*
X159494857Y-84131304D01*
X159685333Y-84083685D01*
X159923428Y-84083685D01*
X160113904Y-84131304D01*
X160209142Y-84178923D01*
X160256761Y-84226542D01*
X160304380Y-84321780D01*
X160304380Y-84417019D01*
X160256761Y-84512257D01*
X160209142Y-84559876D01*
X160113904Y-84607495D01*
X159923428Y-84655114D01*
X159685333Y-84655114D01*
X159494857Y-84607495D01*
X159399619Y-84559876D01*
X159352000Y-84512257D01*
X159304380Y-84417019D01*
%TO.C,U13*%
X140254380Y-103117495D02*
X141063904Y-103117495D01*
X141159142Y-103069876D01*
X141206761Y-103022257D01*
X141254380Y-102927019D01*
X141254380Y-102736542D01*
X141206761Y-102641304D01*
X141159142Y-102593685D01*
X141063904Y-102546066D01*
X140254380Y-102546066D01*
X141254380Y-101546066D02*
X141254380Y-102117495D01*
X141254380Y-101831780D02*
X140254380Y-101831780D01*
X140397238Y-101927019D01*
X140492476Y-102022257D01*
X140540095Y-102117495D01*
X140254380Y-101212733D02*
X140254380Y-100593685D01*
X140635333Y-100927019D01*
X140635333Y-100784161D01*
X140682952Y-100688923D01*
X140730571Y-100641304D01*
X140825809Y-100593685D01*
X141063904Y-100593685D01*
X141159142Y-100641304D01*
X141206761Y-100688923D01*
X141254380Y-100784161D01*
X141254380Y-101069876D01*
X141206761Y-101165114D01*
X141159142Y-101212733D01*
%TD*%
M02*
