M48
; DRILL file {KiCad (5.1.6)-1} date 08/20/20 00:58:15
; FORMAT={-:-/ absolute / metric / decimal}
; #@! TF.CreationDate,2020-08-20T00:58:15+09:00
; #@! TF.GenerationSoftware,Kicad,Pcbnew,(5.1.6)-1
FMAT,2
METRIC
T1C0.400
T2C0.500
T3C0.650
T4C0.800
T5C1.016
T6C3.048
T7C0.800
%
G90
G05
T1
X126.629Y-98.193
X128.912Y-109.123
X129.21Y-98.188
X129.841Y-117.618
X130.712Y-117.653
X130.909Y-112.229
X131.953Y-98.203
X132.164Y-112.244
X132.228Y-110.438
X132.234Y-99.405
X132.801Y-92.811
X132.858Y-103.871
X133.408Y-95.683
X133.631Y-106.6
X134.048Y-93.985
X134.156Y-117.049
X134.31Y-90.185
X135.249Y-78.98
X136.205Y-105.24
X136.605Y-111.72
X137.124Y-111.035
X137.233Y-100.072
X138.191Y-117.248
X138.23Y-82.123
X138.593Y-84.178
X138.598Y-87.146
X138.903Y-117.667
X139.045Y-82.286
X141.746Y-112.232
X141.748Y-116.824
X143.077Y-116.61
X146.611Y-104.594
X146.821Y-82.437
X147.777Y-85.28
X148.548Y-84.537
X151.898Y-90.812
X152.654Y-83.17
X152.718Y-122.608
X154.362Y-87.217
X154.942Y-116.302
X155.355Y-105.829
X156.351Y-115.675
X156.419Y-98.525
X156.584Y-84.614
X159.545Y-83.203
X160.133Y-91.797
X161.15Y-96.735
X164.336Y-81.657
X166.037Y-114.761
X167.313Y-87.149
X167.376Y-114.756
X168.783Y-114.77
X169.593Y-81.535
T2
X129.828Y-115.256
X141.768Y-98.37
X144.475Y-94.754
X145.376Y-110.008
X145.883Y-83.177
X146.71Y-114.871
X149.363Y-81.874
X158.264Y-85.244
T3
X134.43Y-122.11
X134.43Y-123.38
X134.43Y-124.65
X154.178Y-100.965
X154.178Y-102.235
X154.178Y-103.505
X154.178Y-90.551
X154.178Y-91.821
X154.178Y-93.091
T4
X140.843Y-88.011
X151.511Y-104.521
X172.593Y-111.379
X154.813Y-111.379
X159.893Y-111.379
X152.273Y-111.379
X144.653Y-78.359
X138.303Y-98.679
X129.362Y-78.334
X147.193Y-111.379
X152.273Y-88.011
X134.493Y-111.379
X140.843Y-78.359
X150.114Y-78.359
X137.033Y-88.011
X149.733Y-111.379
X157.353Y-111.379
X131.902Y-78.334
T5
X138.938Y-123.825
X141.478Y-123.825
X144.018Y-123.825
X146.558Y-123.825
X149.098Y-123.825
X151.638Y-123.825
X154.178Y-123.825
X156.718Y-123.825
X161.798Y-123.825
X164.338Y-123.825
X166.878Y-123.825
X169.418Y-123.825
X171.958Y-123.825
X174.498Y-123.825
X156.718Y-75.565
X159.258Y-75.565
X161.798Y-75.565
X164.338Y-75.565
X166.878Y-75.565
X169.418Y-75.565
X171.958Y-75.565
X174.498Y-75.565
X129.794Y-75.565
X132.334Y-75.565
X134.874Y-75.565
X137.414Y-75.565
X139.954Y-75.565
X142.494Y-75.565
X145.034Y-75.565
X147.574Y-75.565
X150.114Y-75.565
X152.654Y-75.565
T6
X177.038Y-118.745
X124.968Y-123.825
X177.038Y-90.805
X126.238Y-75.565
T7
X163.703Y-106.68
X170.688Y-106.68
T0
M30
