M48
; DRILL file {KiCad (5.1.6)-1} date 09/08/20 16:49:57
; FORMAT={-:-/ absolute / metric / decimal}
; #@! TF.CreationDate,2020-09-08T16:49:57+09:00
; #@! TF.GenerationSoftware,Kicad,Pcbnew,(5.1.6)-1
FMAT,2
METRIC
T1C0.400
T2C0.500
T3C0.650
T4C0.800
T5C1.016
T6C3.048
T7C0.800
%
G90
G05
T1
X128.727Y-94.47
X129.886Y-98.206
X129.886Y-110.129
X130.292Y-117.65
X130.457Y-112.248
X131.057Y-110.911
X131.732Y-117.634
X131.741Y-112.244
X132.166Y-98.198
X132.732Y-103.854
X133.259Y-116.447
X133.333Y-92.796
X133.376Y-115.621
X133.995Y-95.68
X134.03Y-80.866
X134.816Y-101.188
X135.449Y-83.779
X135.958Y-104.766
X136.063Y-90.484
X136.992Y-117.222
X137.796Y-117.644
X138.425Y-91.668
X138.792Y-87.7
X139.225Y-91.768
X139.399Y-102.958
X139.409Y-87.154
X139.562Y-82.148
X140.203Y-81.657
X140.689Y-94.072
X141.726Y-82.113
X142.748Y-117.782
X142.814Y-112.075
X144.509Y-87.144
X144.706Y-101.113
X145.547Y-81.745
X146.472Y-98.237
X146.472Y-101.148
X146.835Y-92.95
X147.127Y-93.909
X148.867Y-98.252
X148.867Y-101.145
X151.526Y-120.149
X152.005Y-98.045
X152.603Y-77.519
X152.742Y-95.551
X153.563Y-82.748
X156.444Y-117.653
X156.5Y-100.965
X156.537Y-106.215
X158.159Y-80.067
X159.196Y-120.383
X160.699Y-119.776
X160.705Y-118.016
X167.295Y-87.147
X167.815Y-112.254
X168.904Y-82.269
X168.971Y-112.253
T2
X126.611Y-112.136
X136.031Y-83.088
X137.189Y-100.792
X139.17Y-114.887
X141.354Y-95.849
X143.603Y-90.344
X144.018Y-110.609
X147.094Y-114.866
X150.273Y-115.08
X150.321Y-82.259
X153.774Y-89.111
X157.201Y-82.939
X158.147Y-81.675
X160.234Y-86.291
T3
X154.178Y-100.965
X154.178Y-102.235
X154.178Y-103.505
X154.178Y-90.551
X154.178Y-91.821
X154.178Y-93.091
X134.43Y-122.11
X134.43Y-123.38
X134.43Y-124.65
T4
X154.813Y-111.379
X149.733Y-111.379
X147.193Y-111.379
X152.273Y-111.379
X131.902Y-78.334
X159.893Y-111.379
X138.303Y-98.679
X140.843Y-78.359
X172.593Y-111.379
X151.511Y-104.521
X137.033Y-88.011
X152.273Y-88.011
X134.493Y-111.379
X140.843Y-88.011
X150.114Y-78.359
X157.353Y-111.379
X144.653Y-78.359
X129.362Y-78.334
T5
X156.718Y-75.565
X159.258Y-75.565
X161.798Y-75.565
X164.338Y-75.565
X166.878Y-75.565
X169.418Y-75.565
X171.958Y-75.565
X174.498Y-75.565
X161.798Y-123.825
X164.338Y-123.825
X166.878Y-123.825
X169.418Y-123.825
X171.958Y-123.825
X174.498Y-123.825
X138.938Y-123.825
X141.478Y-123.825
X144.018Y-123.825
X146.558Y-123.825
X149.098Y-123.825
X151.638Y-123.825
X154.178Y-123.825
X156.718Y-123.825
X129.794Y-75.565
X132.334Y-75.565
X134.874Y-75.565
X137.414Y-75.565
X139.954Y-75.565
X142.494Y-75.565
X145.034Y-75.565
X147.574Y-75.565
X150.114Y-75.565
X152.654Y-75.565
T6
X126.238Y-75.565
X177.038Y-90.805
X177.038Y-118.745
X124.968Y-123.825
T7
X170.688Y-106.68
X163.703Y-106.68
T0
M30
