%TF.GenerationSoftware,KiCad,Pcbnew,(5.1.6)-1*%
%TF.CreationDate,2020-08-20T00:58:02+09:00*%
%TF.ProjectId,td4-shield,7464342d-7368-4696-956c-642e6b696361,rev?*%
%TF.SameCoordinates,Original*%
%TF.FileFunction,Copper,L2,Bot*%
%TF.FilePolarity,Positive*%
%FSLAX46Y46*%
G04 Gerber Fmt 4.6, Leading zero omitted, Abs format (unit mm)*
G04 Created by KiCad (PCBNEW (5.1.6)-1) date 2020-08-20 00:58:02*
%MOMM*%
%LPD*%
G01*
G04 APERTURE LIST*
%TA.AperFunction,ComponentPad*%
%ADD10O,1.000000X1.000000*%
%TD*%
%TA.AperFunction,ComponentPad*%
%ADD11R,1.000000X1.000000*%
%TD*%
%TA.AperFunction,ComponentPad*%
%ADD12O,1.727200X2.032000*%
%TD*%
%TA.AperFunction,ComponentPad*%
%ADD13C,4.064000*%
%TD*%
%TA.AperFunction,ComponentPad*%
%ADD14C,1.500000*%
%TD*%
%TA.AperFunction,ViaPad*%
%ADD15C,0.800000*%
%TD*%
%TA.AperFunction,ViaPad*%
%ADD16C,0.600000*%
%TD*%
%TA.AperFunction,Conductor*%
%ADD17C,0.300000*%
%TD*%
%TA.AperFunction,Conductor*%
%ADD18C,0.200000*%
%TD*%
G04 APERTURE END LIST*
D10*
%TO.P,SW21,3*%
%TO.N,Net-(R27-Pad2)*%
X154178000Y-103505000D03*
%TO.P,SW21,2*%
%TO.N,/3(\u002A\u002A)*%
X154178000Y-102235000D03*
D11*
%TO.P,SW21,1*%
%TO.N,Net-(R28-Pad2)*%
X154178000Y-100965000D03*
%TD*%
D10*
%TO.P,SW20,3*%
%TO.N,Net-(R26-Pad2)*%
X154178000Y-93091000D03*
%TO.P,SW20,2*%
%TO.N,Net-(C4-Pad2)*%
X154178000Y-91821000D03*
D11*
%TO.P,SW20,1*%
%TO.N,Net-(R25-Pad1)*%
X154178000Y-90551000D03*
%TD*%
D10*
%TO.P,JP1,3*%
%TO.N,+3V3*%
X134430000Y-122110000D03*
%TO.P,JP1,2*%
%TO.N,VCC*%
X134430000Y-123380000D03*
D11*
%TO.P,JP1,1*%
%TO.N,+5V*%
X134430000Y-124650000D03*
%TD*%
D12*
%TO.P,P1,1*%
%TO.N,N/C*%
X138938000Y-123825000D03*
%TO.P,P1,2*%
X141478000Y-123825000D03*
%TO.P,P1,3*%
X144018000Y-123825000D03*
%TO.P,P1,4*%
%TO.N,+3V3*%
X146558000Y-123825000D03*
%TO.P,P1,5*%
%TO.N,+5V*%
X149098000Y-123825000D03*
%TO.P,P1,6*%
%TO.N,GND*%
X151638000Y-123825000D03*
%TO.P,P1,7*%
X154178000Y-123825000D03*
%TO.P,P1,8*%
%TO.N,N/C*%
X156718000Y-123825000D03*
%TD*%
%TO.P,P2,1*%
%TO.N,ROM_A0*%
X161798000Y-123825000D03*
%TO.P,P2,2*%
%TO.N,ROM_A1*%
X164338000Y-123825000D03*
%TO.P,P2,3*%
%TO.N,ROM_A2*%
X166878000Y-123825000D03*
%TO.P,P2,4*%
%TO.N,ROM_A3*%
X169418000Y-123825000D03*
%TO.P,P2,5*%
%TO.N,N/C*%
X171958000Y-123825000D03*
%TO.P,P2,6*%
X174498000Y-123825000D03*
%TD*%
%TO.P,P3,1*%
%TO.N,N/C*%
X129794000Y-75565000D03*
%TO.P,P3,2*%
X132334000Y-75565000D03*
%TO.P,P3,3*%
X134874000Y-75565000D03*
%TO.P,P3,4*%
%TO.N,GND*%
X137414000Y-75565000D03*
%TO.P,P3,5*%
%TO.N,N/C*%
X139954000Y-75565000D03*
%TO.P,P3,6*%
X142494000Y-75565000D03*
%TO.P,P3,7*%
%TO.N,ROM_D7*%
X145034000Y-75565000D03*
%TO.P,P3,8*%
%TO.N,ROM_D6*%
X147574000Y-75565000D03*
%TO.P,P3,9*%
%TO.N,ROM_D5*%
X150114000Y-75565000D03*
%TO.P,P3,10*%
%TO.N,ROM_D4*%
X152654000Y-75565000D03*
%TD*%
%TO.P,P4,1*%
%TO.N,ROM_D3*%
X156718000Y-75565000D03*
%TO.P,P4,2*%
%TO.N,ROM_D2*%
X159258000Y-75565000D03*
%TO.P,P4,3*%
%TO.N,ROM_D1*%
X161798000Y-75565000D03*
%TO.P,P4,4*%
%TO.N,ROM_D0*%
X164338000Y-75565000D03*
%TO.P,P4,5*%
%TO.N,/3(\u002A\u002A)*%
X166878000Y-75565000D03*
%TO.P,P4,6*%
%TO.N,/2*%
X169418000Y-75565000D03*
%TO.P,P4,7*%
%TO.N,N/C*%
X171958000Y-75565000D03*
%TO.P,P4,8*%
X174498000Y-75565000D03*
%TD*%
D13*
%TO.P,P5,1*%
%TO.N,N/C*%
X124968000Y-123825000D03*
%TD*%
%TO.P,P6,1*%
%TO.N,N/C*%
X177038000Y-118745000D03*
%TD*%
%TO.P,P7,1*%
%TO.N,N/C*%
X126238000Y-75565000D03*
%TD*%
%TO.P,P8,1*%
%TO.N,N/C*%
X177038000Y-90805000D03*
%TD*%
D14*
%TO.P,TP1,1*%
%TO.N,/ALU_S1*%
X140843000Y-88011000D03*
%TD*%
%TO.P,TP2,1*%
%TO.N,/ALU_S2*%
X137033000Y-88011000D03*
%TD*%
%TO.P,TP3,1*%
%TO.N,/ALU_S3*%
X140843000Y-78359000D03*
%TD*%
%TO.P,TP4,1*%
%TO.N,/ALU_S4*%
X144653000Y-78359000D03*
%TD*%
%TO.P,TP5,1*%
%TO.N,/ALU_C*%
X129362000Y-78333600D03*
%TD*%
%TO.P,TP6,1*%
%TO.N,/FLG_C*%
X131902000Y-78333600D03*
%TD*%
%TO.P,TP7,1*%
%TO.N,/~LOAD0*%
X134493000Y-111379000D03*
%TD*%
%TO.P,TP8,1*%
%TO.N,/~LOAD1*%
X147193000Y-111379000D03*
%TD*%
%TO.P,TP9,1*%
%TO.N,/~LOAD2*%
X159893000Y-111379000D03*
%TD*%
%TO.P,TP10,1*%
%TO.N,/~LOAD3*%
X172593000Y-111379000D03*
%TD*%
%TO.P,TP11,1*%
%TO.N,/SEL_A*%
X152273000Y-88011000D03*
%TD*%
%TO.P,TP12,1*%
%TO.N,ROM_D5*%
X150114000Y-78359000D03*
%TD*%
%TO.P,TP13,1*%
%TO.N,/OUT1*%
X149733000Y-111379000D03*
%TD*%
%TO.P,TP14,1*%
%TO.N,/OUT2*%
X152273000Y-111379000D03*
%TD*%
%TO.P,TP15,1*%
%TO.N,/OUT3*%
X154813000Y-111379000D03*
%TD*%
%TO.P,TP16,1*%
%TO.N,/OUT4*%
X157353000Y-111379000D03*
%TD*%
%TO.P,TP17,1*%
%TO.N,GND*%
X151511000Y-104521000D03*
%TD*%
%TO.P,TP18,1*%
%TO.N,GND*%
X138303000Y-98679000D03*
%TD*%
D15*
%TO.N,GND*%
X141767800Y-98369900D03*
%TO.N,VCC*%
X129828300Y-115256100D03*
X146710400Y-114871100D03*
X145376500Y-110007800D03*
X145883000Y-83176800D03*
X149362800Y-81874300D03*
X144475400Y-94753800D03*
X158264300Y-85243900D03*
D16*
%TO.N,ROM_A2*%
X168783000Y-114770400D03*
%TO.N,ROM_A1*%
X167376500Y-114756200D03*
%TO.N,ROM_A0*%
X166037500Y-114760800D03*
%TO.N,ROM_D5*%
X126629300Y-98193100D03*
%TO.N,ROM_D4*%
X152654000Y-83169600D03*
%TO.N,ROM_D3*%
X146821000Y-82436600D03*
%TO.N,ROM_D2*%
X135249000Y-78980200D03*
%TO.N,ROM_D1*%
X148548000Y-84537200D03*
%TO.N,ROM_D0*%
X147776900Y-85280300D03*
%TO.N,/3(\u002A\u002A)*%
X152718300Y-122608200D03*
X154942400Y-116302300D03*
%TO.N,/2*%
X156350700Y-115674600D03*
X156418800Y-98524900D03*
%TO.N,/IN1*%
X160133000Y-91797300D03*
X128911900Y-109122800D03*
%TO.N,/IN3*%
X161149600Y-96735300D03*
X129209700Y-98187600D03*
%TO.N,Net-(R10-Pad2)*%
X155355200Y-105829200D03*
X151898500Y-90811900D03*
%TO.N,/RA2*%
X132228100Y-110438100D03*
X132857900Y-103871400D03*
%TO.N,/RA3*%
X130908600Y-112229100D03*
X131953000Y-98203100D03*
%TO.N,/RA4*%
X132163800Y-112243900D03*
X132801200Y-92811000D03*
%TO.N,/ALU_S4*%
X143077200Y-116609700D03*
%TO.N,/ALU_S3*%
X130712300Y-117653500D03*
X141747700Y-116824200D03*
%TO.N,/ALU_S2*%
X129840600Y-117618200D03*
X138190700Y-117247700D03*
%TO.N,/ALU_S1*%
X138903300Y-117667200D03*
X134155800Y-117049200D03*
%TO.N,/RB2*%
X141746000Y-112232200D03*
X136204600Y-105239600D03*
%TO.N,/RB3*%
X132233600Y-99405400D03*
X136604700Y-111719900D03*
%TO.N,/RB4*%
X134047700Y-93985200D03*
X137124400Y-111035000D03*
%TO.N,Net-(U6-Pad9)*%
X137233100Y-100071900D03*
X138598100Y-87145600D03*
%TO.N,Net-(U6-Pad7)*%
X133631100Y-106599900D03*
X138593200Y-84178400D03*
%TO.N,Net-(U7-Pad9)*%
X134309900Y-90185000D03*
X139045000Y-82285600D03*
%TO.N,Net-(U7-Pad7)*%
X133407800Y-95682900D03*
X138229500Y-82122600D03*
%TO.N,Net-(U10-Pad11)*%
X164336300Y-81656600D03*
X156583800Y-84614500D03*
%TO.N,/~LOAD0*%
X146611000Y-104594400D03*
X159545100Y-83203000D03*
%TO.N,/~LOAD1*%
X154362500Y-87216900D03*
%TO.N,/~LOAD2*%
X167312900Y-87149000D03*
%TO.N,/~LOAD3*%
X169592600Y-81535300D03*
%TD*%
D17*
%TO.N,GND*%
X151638000Y-123825000D02*
X151638000Y-122458700D01*
X151511000Y-104521000D02*
X151148700Y-104883300D01*
X151148700Y-104883300D02*
X151148700Y-121969400D01*
X151148700Y-121969400D02*
X151638000Y-122458700D01*
X139695300Y-97286700D02*
X139695300Y-79212600D01*
X139695300Y-79212600D02*
X137414000Y-76931300D01*
X138303000Y-98679000D02*
X139695300Y-97286700D01*
X139695300Y-97286700D02*
X140778500Y-98369900D01*
X140778500Y-98369900D02*
X141767800Y-98369900D01*
X137414000Y-75565000D02*
X137414000Y-76931300D01*
%TO.N,VCC*%
X145920600Y-114745500D02*
X146046100Y-114871100D01*
X146046100Y-114871100D02*
X146710400Y-114871100D01*
X145376500Y-110007800D02*
X145376500Y-114201500D01*
X145376500Y-114201500D02*
X145920600Y-114745500D01*
X145920600Y-114745500D02*
X141934700Y-118731400D01*
X141934700Y-118731400D02*
X139928900Y-118731400D01*
X139928900Y-118731400D02*
X135280300Y-123380000D01*
X134430000Y-123380000D02*
X135280300Y-123380000D01*
X134430000Y-123380000D02*
X129190200Y-118140200D01*
X129190200Y-118140200D02*
X129190200Y-115894200D01*
X129190200Y-115894200D02*
X129828300Y-115256100D01*
X144475400Y-94753800D02*
X144475400Y-109106700D01*
X144475400Y-109106700D02*
X145376500Y-110007800D01*
X147095200Y-83979400D02*
X146685600Y-83979400D01*
X146685600Y-83979400D02*
X145883000Y-83176800D01*
X149362800Y-81874300D02*
X149200300Y-81874300D01*
X149200300Y-81874300D02*
X147095200Y-83979400D01*
X147095200Y-83979400D02*
X147095200Y-85740100D01*
X147095200Y-85740100D02*
X147350300Y-85995200D01*
X147350300Y-85995200D02*
X157513000Y-85995200D01*
X157513000Y-85995200D02*
X158264300Y-85243900D01*
X144475400Y-94753800D02*
X144475400Y-88870100D01*
X144475400Y-88870100D02*
X147350300Y-85995200D01*
%TO.N,+5V*%
X149098000Y-123825000D02*
X147884100Y-123825000D01*
X147884100Y-123825000D02*
X147884100Y-123218100D01*
X147884100Y-123218100D02*
X147124500Y-122458500D01*
X147124500Y-122458500D02*
X138098400Y-122458500D01*
X138098400Y-122458500D02*
X135906900Y-124650000D01*
X135906900Y-124650000D02*
X134430000Y-124650000D01*
D18*
%TO.N,ROM_A2*%
X166878000Y-123825000D02*
X166878000Y-116675400D01*
X166878000Y-116675400D02*
X168783000Y-114770400D01*
%TO.N,ROM_A1*%
X165501900Y-123825000D02*
X165501900Y-116630800D01*
X165501900Y-116630800D02*
X167376500Y-114756200D01*
X164338000Y-123825000D02*
X165501900Y-123825000D01*
%TO.N,ROM_A0*%
X161798000Y-123825000D02*
X161798000Y-119000300D01*
X161798000Y-119000300D02*
X166037500Y-114760800D01*
%TO.N,ROM_D5*%
X148950100Y-75565000D02*
X148950100Y-75128500D01*
X148950100Y-75128500D02*
X148044500Y-74222900D01*
X148044500Y-74222900D02*
X136934700Y-74222900D01*
X136934700Y-74222900D02*
X136249700Y-74907900D01*
X136249700Y-74907900D02*
X136249700Y-78876200D01*
X136249700Y-78876200D02*
X126629300Y-88496600D01*
X126629300Y-88496600D02*
X126629300Y-98193100D01*
X150114000Y-75565000D02*
X148950100Y-75565000D01*
X150114000Y-78359000D02*
X150114000Y-75565000D01*
%TO.N,ROM_D4*%
X152654000Y-76881300D02*
X152654000Y-83169600D01*
X152654000Y-75565000D02*
X152654000Y-76881300D01*
%TO.N,ROM_D3*%
X155554100Y-75565000D02*
X154237700Y-74248600D01*
X154237700Y-74248600D02*
X152106500Y-74248600D01*
X152106500Y-74248600D02*
X151278000Y-75077100D01*
X151278000Y-75077100D02*
X151278000Y-78708600D01*
X151278000Y-78708600D02*
X147550000Y-82436600D01*
X147550000Y-82436600D02*
X146821000Y-82436600D01*
X156718000Y-75565000D02*
X155554100Y-75565000D01*
%TO.N,ROM_D2*%
X158094100Y-75565000D02*
X158094100Y-75128500D01*
X158094100Y-75128500D02*
X156759700Y-73794100D01*
X156759700Y-73794100D02*
X134838400Y-73794100D01*
X134838400Y-73794100D02*
X133691200Y-74941300D01*
X133691200Y-74941300D02*
X133691200Y-77422400D01*
X133691200Y-77422400D02*
X135249000Y-78980200D01*
X159258000Y-75565000D02*
X158094100Y-75565000D01*
%TO.N,ROM_D1*%
X161798000Y-75565000D02*
X160634100Y-75565000D01*
X148548000Y-84537200D02*
X152137900Y-84537200D01*
X152137900Y-84537200D02*
X160634100Y-76041000D01*
X160634100Y-76041000D02*
X160634100Y-75565000D01*
%TO.N,ROM_D0*%
X164338000Y-75565000D02*
X163174100Y-75565000D01*
X147776900Y-85280300D02*
X153934800Y-85280300D01*
X153934800Y-85280300D02*
X163174100Y-76041000D01*
X163174100Y-76041000D02*
X163174100Y-75565000D01*
%TO.N,/3(\u002A\u002A)*%
X154942400Y-116302300D02*
X152718300Y-118526400D01*
X152718300Y-118526400D02*
X152718300Y-122608200D01*
X154978300Y-102235000D02*
X155967100Y-103223800D01*
X155967100Y-103223800D02*
X155967100Y-106355100D01*
X155967100Y-106355100D02*
X155863400Y-106458800D01*
X155863400Y-106458800D02*
X155863400Y-114936800D01*
X155863400Y-114936800D02*
X154942400Y-115857800D01*
X154942400Y-115857800D02*
X154942400Y-116302300D01*
X166878000Y-75565000D02*
X166878000Y-83604700D01*
X166878000Y-83604700D02*
X154978300Y-95504400D01*
X154978300Y-95504400D02*
X154978300Y-102235000D01*
X154178000Y-102235000D02*
X154978300Y-102235000D01*
%TO.N,/2*%
X156418800Y-98524900D02*
X156418800Y-94630000D01*
X156418800Y-94630000D02*
X168254100Y-82794700D01*
X168254100Y-82794700D02*
X168254100Y-75565000D01*
X156350700Y-115674600D02*
X156302600Y-115626500D01*
X156302600Y-115626500D02*
X156302600Y-106585900D01*
X156302600Y-106585900D02*
X156418800Y-106469700D01*
X156418800Y-106469700D02*
X156418800Y-98524900D01*
X169418000Y-75565000D02*
X168254100Y-75565000D01*
%TO.N,/IN1*%
X128911900Y-109122800D02*
X128706700Y-109328000D01*
X128706700Y-109328000D02*
X128706700Y-120399800D01*
X128706700Y-120399800D02*
X133768200Y-125461300D01*
X133768200Y-125461300D02*
X154387400Y-125461300D01*
X154387400Y-125461300D02*
X155342000Y-124506700D01*
X155342000Y-124506700D02*
X155342000Y-120291300D01*
X155342000Y-120291300D02*
X158452800Y-117180500D01*
X158452800Y-117180500D02*
X158452800Y-93477500D01*
X158452800Y-93477500D02*
X160133000Y-91797300D01*
%TO.N,/IN3*%
X129209700Y-98187600D02*
X128251400Y-99145900D01*
X128251400Y-99145900D02*
X128251400Y-120540500D01*
X128251400Y-120540500D02*
X133573400Y-125862500D01*
X133573400Y-125862500D02*
X156532800Y-125862500D01*
X156532800Y-125862500D02*
X161149600Y-121245700D01*
X161149600Y-121245700D02*
X161149600Y-96735300D01*
%TO.N,Net-(R10-Pad2)*%
X155355200Y-105829200D02*
X151898500Y-102372500D01*
X151898500Y-102372500D02*
X151898500Y-90811900D01*
%TO.N,/RA2*%
X132228100Y-110438100D02*
X132206200Y-110416200D01*
X132206200Y-110416200D02*
X132206200Y-104523100D01*
X132206200Y-104523100D02*
X132857900Y-103871400D01*
%TO.N,/RA3*%
X131953000Y-98203100D02*
X130908600Y-99247500D01*
X130908600Y-99247500D02*
X130908600Y-112229100D01*
%TO.N,/RA4*%
X132801200Y-92811000D02*
X132801200Y-98237600D01*
X132801200Y-98237600D02*
X132233700Y-98805100D01*
X132233700Y-98805100D02*
X131985000Y-98805100D01*
X131985000Y-98805100D02*
X131617000Y-99173100D01*
X131617000Y-99173100D02*
X131617000Y-111697100D01*
X131617000Y-111697100D02*
X132163800Y-112243900D01*
%TO.N,/ALU_S4*%
X144653000Y-78359000D02*
X143753500Y-79258500D01*
X143753500Y-79258500D02*
X143753500Y-115933400D01*
X143753500Y-115933400D02*
X143077200Y-116609700D01*
%TO.N,/ALU_S3*%
X140843000Y-78359000D02*
X142962100Y-80478100D01*
X142962100Y-80478100D02*
X142962100Y-115609800D01*
X142962100Y-115609800D02*
X141747700Y-116824200D01*
X130712300Y-117653500D02*
X131339800Y-118281000D01*
X131339800Y-118281000D02*
X140290900Y-118281000D01*
X140290900Y-118281000D02*
X141747700Y-116824200D01*
%TO.N,/ALU_S2*%
X137383600Y-116440600D02*
X131018200Y-116440600D01*
X131018200Y-116440600D02*
X129840600Y-117618200D01*
X137383600Y-116440600D02*
X138190700Y-117247700D01*
X137033000Y-88011000D02*
X135604300Y-89439700D01*
X135604300Y-89439700D02*
X135604300Y-108424200D01*
X135604300Y-108424200D02*
X137739400Y-110559300D01*
X137739400Y-110559300D02*
X137739400Y-116084800D01*
X137739400Y-116084800D02*
X137383600Y-116440600D01*
%TO.N,/ALU_S1*%
X140843000Y-88011000D02*
X142503300Y-89671300D01*
X142503300Y-89671300D02*
X142503300Y-114028800D01*
X142503300Y-114028800D02*
X138884100Y-117648000D01*
X138884100Y-117648000D02*
X138903300Y-117667200D01*
X134155800Y-117049200D02*
X134954600Y-117848000D01*
X134954600Y-117848000D02*
X138684100Y-117848000D01*
X138684100Y-117848000D02*
X138884100Y-117648000D01*
%TO.N,/RB2*%
X136204600Y-105239600D02*
X141746000Y-110781000D01*
X141746000Y-110781000D02*
X141746000Y-112232200D01*
%TO.N,/RB3*%
X136604700Y-111719900D02*
X132607200Y-107722400D01*
X132607200Y-107722400D02*
X132607200Y-105206100D01*
X132607200Y-105206100D02*
X133458200Y-104355100D01*
X133458200Y-104355100D02*
X133458200Y-100630000D01*
X133458200Y-100630000D02*
X132233600Y-99405400D01*
%TO.N,/RB4*%
X137124400Y-111035000D02*
X133009100Y-106919700D01*
X133009100Y-106919700D02*
X133009100Y-106349900D01*
X133009100Y-106349900D02*
X134047700Y-105311300D01*
X134047700Y-105311300D02*
X134047700Y-93985200D01*
%TO.N,Net-(U6-Pad9)*%
X137233100Y-100071900D02*
X137233100Y-95966900D01*
X137233100Y-95966900D02*
X138598100Y-94601900D01*
X138598100Y-94601900D02*
X138598100Y-87145600D01*
%TO.N,Net-(U6-Pad7)*%
X133631100Y-106599900D02*
X134921700Y-105309300D01*
X134921700Y-105309300D02*
X134921700Y-87849900D01*
X134921700Y-87849900D02*
X138593200Y-84178400D01*
%TO.N,Net-(U7-Pad9)*%
X134309900Y-90185000D02*
X134309900Y-87020700D01*
X134309900Y-87020700D02*
X139045000Y-82285600D01*
%TO.N,Net-(U7-Pad7)*%
X133407800Y-95682900D02*
X133407800Y-86944300D01*
X133407800Y-86944300D02*
X138229500Y-82122600D01*
%TO.N,Net-(U10-Pad11)*%
X156583800Y-84614500D02*
X159541700Y-81656600D01*
X159541700Y-81656600D02*
X164336300Y-81656600D01*
%TO.N,/~LOAD0*%
X146611000Y-104594400D02*
X146611000Y-92157500D01*
X146611000Y-92157500D02*
X152231200Y-86537300D01*
X152231200Y-86537300D02*
X157971500Y-86537300D01*
X157971500Y-86537300D02*
X159545100Y-84963700D01*
X159545100Y-84963700D02*
X159545100Y-83203000D01*
%TO.N,/~LOAD1*%
X154362500Y-87216900D02*
X154362500Y-87453100D01*
X154362500Y-87453100D02*
X148062600Y-93753000D01*
X148062600Y-93753000D02*
X148062600Y-110509400D01*
X148062600Y-110509400D02*
X147193000Y-111379000D01*
%TO.N,/~LOAD2*%
X159893000Y-111379000D02*
X159893000Y-94568900D01*
X159893000Y-94568900D02*
X167312900Y-87149000D01*
%TO.N,/~LOAD3*%
X172593000Y-111379000D02*
X172593000Y-84535700D01*
X172593000Y-84535700D02*
X169592600Y-81535300D01*
%TD*%
M02*
